<svg width="80" height="77" viewBox="0 0 80 77" fill="none" xmlns="http://www.w3.org/2000/svg">
<path fill-rule="evenodd" clip-rule="evenodd" d="M7 47C3.13401 47 0 43.866 0 40V24C0 20.134 3.13401 17 7 17H28V21V43V47H22V73C22 75.2091 20.2091 77 18 77H14C11.7909 77 10 75.2091 10 73V47H7ZM8 21C5.79086 21 4 22.7909 4 25V39C4 41.2091 5.79086 43 8 43H23C23.5523 43 24 42.5523 24 42V22C24 21.4477 23.5523 21 23 21H8ZM14 47H18V72C18 72.5523 17.5523 73 17 73H15C14.4477 73 14 72.5523 14 72V47Z" fill="#FFFEFB"/>
<path fill-rule="evenodd" clip-rule="evenodd" d="M32 17L71.6923 0.461539C75.6444 -1.18518 80 1.71853 80 6V58C80 62.2815 75.6444 65.1852 71.6923 63.5385L32 47V17ZM76 7.63976C76 5.46278 73.7541 4.01064 71.7689 4.90399L36.5896 20.7347C36.2308 20.8961 36 21.2531 36 21.6466V42.3534C36 42.7469 36.2308 43.1039 36.5896 43.2653L71.7689 59.096C73.7541 59.9894 76 58.5372 76 56.3602V7.63976Z" fill="#FFFEFB"/>
</svg>
