<svg width="80" height="80" viewBox="0 0 80 80" fill="none" xmlns="http://www.w3.org/2000/svg">
<path fill-rule="evenodd" clip-rule="evenodd" d="M74.0494 29C80 23.0494 80 15 80 15V7C80 6.44772 79.6017 6 79.0494 6H68.0984C68.1938 2.31108 68.0494 0 68.0494 0H12.0494C12.0494 0 11.9049 2.31108 12.0003 6H1.04938C0.497098 6 0 6.44772 0 7V15C0 15 0.0433288 22.9506 6.04938 29C9.70404 32.681 17.0724 33.749 17.0724 33.749C22.0678 45.7871 33.0494 47.5 33.0494 53C33.0494 59.6293 26.3583 63.2173 23.4132 64.4755C22.6123 64.8176 22.0494 65.5915 22.0494 66.4624V80H58.0494V66.4624C58.0494 65.5915 57.4865 64.8176 56.6856 64.4755C53.7405 63.2173 47.0494 59.6294 47.0494 53C47.0494 47.5 58.031 45.7871 63.0263 33.749C63.0263 33.749 70.3815 32.6679 74.0494 29ZM59.5494 31C64.0494 18.5 64.0494 4 64.0494 4H16.0494C16.0494 4 16.0494 18.5 20.5494 31C22.4244 36.2084 25.165 39.0578 27.6026 41.5922C30.5471 44.6537 37.0494 47.2555 37.0494 53C37.0494 61.5 26.0494 69 26.0494 69V75H54.0494V69C54.0494 69 43.0494 61.5 43.0494 53C43.0494 47.2555 49.5517 44.6537 52.4962 41.5922C54.9338 39.0578 57.6744 36.2084 59.5494 31ZM76.0494 15C76.0494 20.5 75.0503 22.199 72.0494 25.5C68.1533 29.7857 64.5494 29.5 64.5494 29.5C66.4326 22.8798 67.6015 15.1553 67.9279 10H76.0494V15ZM4.04938 15C4.04938 20.5 5.04844 22.199 8.04938 25.5C11.9455 29.7857 15.5494 29.5 15.5494 29.5C13.6662 22.8798 12.4972 15.1553 12.1709 10H4.04938V15Z" fill="#FFFEFB"/>
</svg>
