<svg width="80" height="80" viewBox="0 0 80 80" fill="none" xmlns="http://www.w3.org/2000/svg">
<path fill-rule="evenodd" clip-rule="evenodd" d="M40 0C62.0914 0 80 17.9086 80 40C80 62.0914 62.0914 80 40 80C17.9086 80 0 62.0914 0 40C0 17.9086 17.9086 0 40 0ZM40 76C59.8823 76 76 59.8823 76 40C76 20.1177 59.8823 4 40 4C20.1177 4 4 20.1177 4 40C4 59.8823 20.1177 76 40 76Z" fill="#FFFEFB"/>
<path d="M21.5 42.5C20.6716 41.6716 20.6716 40.3284 21.5 39.5C22.3284 38.6716 23.6716 38.6716 24.5 39.5L35 50L56.5 28.5C57.3284 27.6716 58.6716 27.6716 59.5 28.5C60.3284 29.3284 60.3284 30.6716 59.5 31.5L35 56L21.5 42.5Z" fill="#FFFEFB"/>
</svg>
