<svg width="80" height="78" viewBox="0 0 80 78" fill="none" xmlns="http://www.w3.org/2000/svg">
<path fill-rule="evenodd" clip-rule="evenodd" d="M64 6C64 2.68629 61.3137 0 58 0H6C2.68629 0 0 2.68629 0 6V44C0 47.3137 2.68629 50 6 50H10V58.238C10 60.6651 12.7321 62.0876 14.7204 60.6957L30 50H58C61.3137 50 64 47.3137 64 44V20V16V6ZM60 6C60 4.89543 59.1046 4 58 4H6C4.89543 4 4 4.89543 4 6V44C4 45.1046 4.89543 46 6 46H13C13.5523 46 14 46.4477 14 47V56L29 46H58C59.1046 46 60 45.1046 60 44V6Z" fill="#FFFEFB"/>
<path d="M74 20C75.1046 20 76 20.8954 76 22V60C76 61.1046 75.1046 62 74 62H67C66.4477 62 66 62.4477 66 63V72L51 62H26C24.8954 62 24 62.8954 24 64C24 65.1046 24.8954 66 26 66H50L65.2796 76.6957C67.2679 78.0876 70 76.6651 70 74.238V66H74C77.3137 66 80 63.3137 80 60V22C80 18.6863 77.3137 16 74 16H64V20H74Z" fill="#FFFEFB"/>
<path d="M32 41C33.1046 41 34 40.1046 34 39C34 37.8954 33.1046 37 32 37C30.8954 37 30 37.8954 30 39C30 40.1046 30.8954 41 32 41Z" fill="#FFFEFB"/>
<path d="M30 35C31.5621 35 32.4379 35 34 35C34 24 44 26.5 44 18C44 13 41 8 33 8C23 8 22 15 22 18C23 18 25 18 26 18C26 16 28 12 33 12C38 12 40 16 40 18C40 25 30 22 30 35Z" fill="#FFFEFB"/>
</svg>
