<svg width="80" height="80" viewBox="0 0 80 80" fill="none" xmlns="http://www.w3.org/2000/svg">
<path d="M46 12C46 10.8954 45.1046 10 44 10H10C4.47715 10 0 14.4772 0 20V56C0 61.5229 4.47715 66 10 66H24V78C24 79.1046 24.8954 80 26 80H26.9237C27.6195 80 28.2937 79.7581 28.8308 79.3158L43.3383 67.3684C44.4126 66.4837 45.761 66 47.1526 66H64C69.5229 66 74 61.5228 74 56V48.5V29C74 27.8954 73.1046 27 72 27C70.8954 27 70 27.8954 70 29V56C70 59.3137 67.3137 62 64 62H45.1047C43.7423 62 42.4204 62.4637 41.3565 63.3148L28 74V64C28 62.8954 27.1046 62 26 62H10C6.68629 62 4 59.3137 4 56V20C4 16.6863 6.68629 14 10 14H44C45.1046 14 46 13.1046 46 12Z" fill="#FFFEFB"/>
<path fill-rule="evenodd" clip-rule="evenodd" d="M41 38C41 39.1046 41.8954 40 43 40H51.3004C52.3865 40 53.4259 39.5584 54.1798 38.7765L78.6367 13.4137C79.3936 12.6288 79.3823 11.3823 78.6113 10.6113L69.4402 1.44016C68.6491 0.649053 67.3629 0.660744 66.5863 1.4661L42.1206 26.8379C41.4017 27.5834 41 28.5787 41 29.6144V38ZM52 36H45V29L68 5L75 12L52 36Z" fill="#FFFEFB"/>
<path d="M14 24C12.8954 24 12 24.8954 12 26C12 27.1046 12.8954 28 14 28H34C35.1046 28 36 27.1046 36 26C36 24.8954 35.1046 24 34 24H14Z" fill="#FFFEFB"/>
<path d="M14 48C12.8954 48 12 48.8954 12 50C12 51.1046 12.8954 52 14 52H60C61.1046 52 62 51.1046 62 50C62 48.8954 61.1046 48 60 48H14Z" fill="#FFFEFB"/>
<path d="M14 36C12.8954 36 12 36.8954 12 38C12 39.1046 12.8954 40 14 40H34C35.1046 40 36 39.1046 36 38C36 36.8954 35.1046 36 34 36H14Z" fill="#FFFEFB"/>
</svg>
