<svg width="70" height="52" viewBox="0 0 70 52" fill="none" xmlns="http://www.w3.org/2000/svg">
<path d="M0 5.53571C0 2.7604 2.26035 0.516146 5.03559 0.535969L65.0358 0.964541C67.7832 0.984165 70 3.21687 70 5.96429C70 8.7396 67.7397 10.9839 64.9644 10.964L4.96417 10.5355C2.21682 10.5158 0 8.28313 0 5.53571Z" fill="#FFFEFB"/>
<path d="M5 31C2.23858 31 0 28.7614 0 26C0 23.2386 2.23858 21 5 21H65C67.7614 21 70 23.2386 70 26C70 28.7614 67.7614 31 65 31H5Z" fill="#FFFEFB"/>
<path d="M5 41C2.23858 41 0 43.2386 0 46V46.5C0 49.2614 2.23858 51.5 5 51.5H65C67.7614 51.5 70 49.2614 70 46.5V46C70 43.2386 67.7614 41 65 41H5Z" fill="#FFFEFB"/>
</svg>
