<svg width="80" height="79" viewBox="0 0 80 79" fill="none" xmlns="http://www.w3.org/2000/svg">
<path fill-rule="evenodd" clip-rule="evenodd" d="M12 45V75C12 77.2091 13.7909 79 16 79H34C34.5523 79 35 78.5523 35 78V59H45V78C45 78.5523 45.4477 79 46 79H64C66.2091 79 68 77.2091 68 75V45H75.0761C77.7955 45 80 42.7955 80 40.0761C80 38.7486 79.464 37.4774 78.5135 36.5506L42.828 1.75728C41.2604 0.228866 38.7553 0.244717 37.2072 1.79285L1.24264 37.7574C0.446988 38.553 1.29374e-10 39.6321 1.02254e-10 40.7574C0 43.1005 1.89949 45 4.24264 45H12ZM16 75V41H6.41421C5.52331 41 5.07714 39.9229 5.70711 39.2929L40 5L75.2356 39.2833C75.8789 39.9092 75.4358 41 74.5382 41H64V75H49V58C49 55.7909 47.2091 54 45 54H35C32.7909 54 31 55.7909 31 58V75H16Z" fill="#FFFEFB"/>
</svg>
