<svg width="80" height="80" viewBox="0 0 80 80" fill="none" xmlns="http://www.w3.org/2000/svg">
<path fill-rule="evenodd" clip-rule="evenodd" d="M61 80C71.4934 80 80 71.4934 80 61C80 50.5066 71.4934 42 61 42C50.5066 42 42 50.5066 42 61C42 71.4934 50.5066 80 61 80ZM76 61C75.7239 69.0081 69.2843 76 61 76C52.7157 76 46.2761 69.0081 46 61C45.7145 52.7206 52.7157 46 61 46C69.2843 46 76.2855 52.7206 76 61Z" fill="#FFFEFB"/>
<path d="M19.0005 30C20.3812 30 21.5005 31.1193 21.5005 32.5C21.5005 33.8807 20.3812 35 19.0005 35C17.6198 35 16.5005 33.8807 16.5005 32.5C16.5005 31.1193 17.6198 30 19.0005 30Z" fill="#FFFEFB"/>
<path d="M59 61C59 62.1046 59.8954 63 61 63H65C66.1046 63 67 62.1046 67 61C67 59.8954 66.1046 59 65 59H63V54C63 52.8954 62.1046 52 61 52C59.8954 52 59 52.8954 59 54V61Z" fill="#FFFEFB"/>
<path d="M61 30C62.3807 30 63.5 31.1193 63.5 32.5C63.5 33.8807 62.3807 35 61 35C59.6193 35 58.5 33.8807 58.5 32.5C58.5 31.1193 59.6193 30 61 30Z" fill="#FFFEFB"/>
<path d="M33 30C34.3807 30 35.5 31.1193 35.5 32.5C35.5 33.8807 34.3807 35 33 35C31.6193 35 30.5 33.8807 30.5 32.5C30.5 31.1193 31.6193 30 33 30Z" fill="#FFFEFB"/>
<path d="M47.0005 30C48.3812 30 49.5005 31.1193 49.5005 32.5C49.5005 33.8807 48.3812 35 47.0005 35C45.6198 35 44.5005 33.8807 44.5005 32.5C44.5005 31.1193 45.6198 30 47.0005 30Z" fill="#FFFEFB"/>
<path d="M19.0005 44C20.3812 44 21.5005 45.1193 21.5005 46.5C21.5005 47.8807 20.3812 49 19.0005 49C17.6198 49 16.5005 47.8807 16.5005 46.5C16.5005 45.1193 17.6198 44 19.0005 44Z" fill="#FFFEFB"/>
<path d="M33 44C34.3807 44 35.5 45.1193 35.5 46.5C35.5 47.8807 34.3807 49 33 49C31.6193 49 30.5 47.8807 30.5 46.5C30.5 45.1193 31.6193 44 33 44Z" fill="#FFFEFB"/>
<path d="M19.0005 58C20.3812 58 21.5005 59.1193 21.5005 60.5C21.5005 61.8807 20.3812 63 19.0005 63C17.6198 63 16.5005 61.8807 16.5005 60.5C16.5005 59.1193 17.6198 58 19.0005 58Z" fill="#FFFEFB"/>
<path d="M33 58C34.3807 58 35.5 59.1193 35.5 60.5C35.5 61.8807 34.3807 63 33 63C31.6193 63 30.5 61.8807 30.5 60.5C30.5 59.1193 31.6193 58 33 58Z" fill="#FFFEFB"/>
<path d="M12 6C5.37258 6 0 11.3726 0 18V68C0 74.6274 5.37258 80 12 80H38C39.1046 80 40 79.1046 40 78C40 76.8954 39.1046 76 38 76H12C7.58172 76 4 72.4183 4 68V18C4 13.5817 7.58172 10 12 10H17V14C17 15.1046 17.8954 16 19 16C20.1046 16 21 15.1046 21 14V10H38V14C38 15.1046 38.8954 16 40 16C41.1046 16 42 15.1046 42 14V10H59V14C59 15.1046 59.8954 16 61 16C62.1046 16 63 15.1046 63 14V10H68C72.4183 10 76 13.5817 76 18V25V38C76 39.1046 76.8954 40 78 40C79.1046 40 80 39.1046 80 38V18C80 11.3726 74.6274 6 68 6H63V2C63 0.89543 62.1046 0 61 0C59.8954 0 59 0.895431 59 2V6H42V2C42 0.89543 41.1046 0 40 0C38.8954 0 38 0.89543 38 2V6H21V2C21 0.89543 20.1046 0 19 0C17.8954 0 17 0.89543 17 2V6H12Z" fill="#FFFEFB"/>
</svg>
