<svg version="1.1" id="Layer_1" xmlns="http://www.w3.org/2000/svg" xmlns:xlink="http://www.w3.org/1999/xlink" x="0px" y="0px"
	 width="100%" viewBox="0 0 1425 175" enable-background="new 0 0 1425 175" xml:space="preserve">
<path fill="#FFFFFF" opacity="1.000000" stroke="none" 
	d="
M1316.000000,176.000000 
	C877.727173,176.000000 439.454315,176.000000 1.090725,176.000000 
	C1.090725,117.735321 1.090725,59.470463 1.090725,1.102799 
	C476.000000,1.102799 951.000000,1.102799 1426.000000,1.100252 
	C1426.000000,34.093166 1426.000000,67.088631 1425.615845,100.541931 
	C1423.638794,101.686531 1421.887573,102.139679 1420.477539,103.096138 
	C1405.836426,113.027863 1391.257935,123.051788 1376.646973,133.028107 
	C1356.582642,146.727829 1336.501221,160.402283 1316.465210,174.143036 
	C1316.071045,174.413391 1316.144653,175.365829 1316.000000,176.000000 
z"/>
<path fill="#000000" opacity="1.000000" stroke="none" 
	d="
M1316.468628,176.000000 
	C1316.144653,175.365829 1316.071045,174.413391 1316.465210,174.143036 
	C1336.501221,160.402283 1356.582642,146.727829 1376.646973,133.028107 
	C1391.257935,123.051788 1405.836426,113.027863 1420.477539,103.096138 
	C1421.887573,102.139679 1423.638794,101.686531 1425.615845,100.999886 
	C1426.000000,125.940750 1426.000000,150.881500 1426.000000,176.000000 
	C1389.645996,176.000000 1353.291626,176.000000 1316.468628,176.000000 
z"/>
</svg>