<svg width="377" height="1247" viewBox="0 0 377 1247" fill="none" xmlns="http://www.w3.org/2000/svg">
<path d="M237 199.5L344.25 199.5L344.25 223.5L300.3 223.5L300.3 299.1L344.25 299.1L344.25 323.1L237 323.1L237 299.1L280.8 299.1L280.8 223.5L237 223.5L237 199.5ZM237 335.08L344.25 383.38L344.25 420.43L237 468.73L237 442.63L259.65 432.43L259.65 371.38L237 361.18L237 335.08ZM279.15 380.08L279.15 423.73L325.5 402.88L325.5 400.93L279.15 380.08ZM236.25 533.02C236.25 513.22 240.8 498.07 249.9 487.57C259.1 477.07 272.7 471.82 290.7 471.82C308.6 471.82 322.15 477.07 331.35 487.57C340.55 498.07 345.1 513.22 345 533.02L344.7 587.02L325.5 587.02L325.5 534.67C325.5 521.67 322.75 512.02 317.25 505.72C311.75 499.42 302.9 496.27 290.7 496.27C278.5 496.27 269.6 499.42 264 505.72C258.5 512.02 255.75 521.67 255.75 534.67L255.75 588.52L236.25 588.52L236.25 533.02ZM237 603.504L343.95 603.504L343.95 627.504L300.3 627.504L300.3 663.204L343.95 698.454L343.95 728.304L290.55 684.204L237 728.304L237 698.454L280.8 663.054L280.8 627.504L237 627.504L237 603.504ZM237 740.32L344.25 740.32L344.25 857.92L324.75 857.92L324.75 764.32L301.05 764.32L301.05 849.22L281.55 849.22L281.55 764.32L256.5 764.32L256.5 857.92L237 857.92L237 740.32ZM237 874.354L344.25 874.354L344.25 964.204C344.25 975.304 341.45 983.904 335.85 990.004C330.25 996.204 321.75 999.304 310.35 999.304C300.65 999.304 293.05 997.054 287.55 992.554C282.05 988.054 278.6 981.654 277.2 973.354L237 998.104L237 970.804L276.45 947.854L276.45 898.354L237 898.354L237 874.354ZM324.75 961.354L324.75 898.354L296.1 898.354L295.95 961.354C295.95 965.754 297.05 969.104 299.25 971.404C301.45 973.804 305.15 975.004 310.35 975.004C315.65 975.004 319.35 973.804 321.45 971.404C323.65 969.104 324.75 965.754 324.75 961.354ZM237 1069.76L344.25 1069.76L344.25 1093.76L237 1093.76L237 1069.76ZM237 1114.73L344.25 1114.73L344.25 1132.43L344.4 1180.43C344.4 1199.83 339.85 1214.88 330.75 1225.58C321.65 1236.28 308.3 1241.63 290.7 1241.63C273.1 1241.63 259.75 1236.28 250.65 1225.58C241.55 1214.88 237 1199.83 237 1180.43L237 1114.73ZM324.9 1178.78L324.9 1138.73L256.5 1138.73L256.5 1178.78C256.5 1191.38 259.25 1200.93 264.75 1207.43C270.25 1213.93 278.9 1217.18 290.7 1217.18C302.6 1217.18 311.25 1213.93 316.65 1207.43C322.15 1200.93 324.9 1191.38 324.9 1178.78Z" fill="#F2EBD9" fill-opacity="0.75"/>
<mask id="path-2-outside-1_1215_1110" maskUnits="userSpaceOnUse" x="176" y="59.9995" width="116" height="1049" fill="black">
<rect fill="white" x="176" y="59.9995" width="116" height="1049"/>
<path d="M180 63.4995L287.25 63.4995L287.25 87.4995L243.3 87.4995L243.3 163.1L287.25 163.1L287.25 187.1L180 187.1L180 163.1L223.8 163.1L223.8 87.4995L180 87.4995L180 63.4995ZM180 199.08L287.25 247.38L287.25 284.43L180 332.73L180 306.63L202.65 296.43L202.65 235.38L180 225.18L180 199.08ZM222.15 244.08L222.15 287.73L268.5 266.88L268.5 264.93L222.15 244.08ZM179.25 397.02C179.25 377.22 183.8 362.07 192.9 351.57C202.1 341.07 215.7 335.82 233.7 335.82C251.6 335.82 265.15 341.07 274.35 351.57C283.55 362.07 288.1 377.22 288 397.02L287.7 451.02L268.5 451.02L268.5 398.67C268.5 385.67 265.75 376.02 260.25 369.72C254.75 363.42 245.9 360.27 233.7 360.27C221.5 360.27 212.6 363.42 207 369.72C201.5 376.02 198.75 385.67 198.75 398.67L198.75 452.52L179.25 452.52L179.25 397.02ZM180 467.503L286.95 467.503L286.95 491.503L243.3 491.503L243.3 527.203L286.95 562.453L286.95 592.303L233.55 548.203L180 592.303L180 562.453L223.8 527.053L223.8 491.503L180 491.503L180 467.503ZM180 604.32L287.25 604.32L287.25 721.92L267.75 721.92L267.75 628.32L244.05 628.32L244.05 713.22L224.55 713.22L224.55 628.32L199.5 628.32L199.5 721.92L180 721.92L180 604.32ZM180 738.353L287.25 738.353L287.25 828.203C287.25 839.303 284.45 847.903 278.85 854.003C273.25 860.203 264.75 863.303 253.35 863.303C243.65 863.303 236.05 861.053 230.55 856.553C225.05 852.053 221.6 845.653 220.2 837.353L180 862.103L180 834.803L219.45 811.853L219.45 762.353L180 762.353L180 738.353ZM267.75 825.353L267.75 762.353L239.1 762.353L238.95 825.353C238.95 829.753 240.05 833.103 242.25 835.403C244.45 837.803 248.15 839.003 253.35 839.003C258.65 839.003 262.35 837.803 264.45 835.403C266.65 833.103 267.75 829.753 267.75 825.353ZM180 933.763L287.25 933.763L287.25 957.763L180 957.763L180 933.763ZM180 978.734L287.25 978.734L287.25 996.434L287.4 1044.43C287.4 1063.83 282.85 1078.88 273.75 1089.58C264.65 1100.28 251.3 1105.63 233.7 1105.63C216.1 1105.63 202.75 1100.28 193.65 1089.58C184.55 1078.88 180 1063.83 180 1044.43L180 978.734ZM267.9 1042.78L267.9 1002.73L199.5 1002.73L199.5 1042.78C199.5 1055.38 202.25 1064.93 207.75 1071.43C213.25 1077.93 221.9 1081.18 233.7 1081.18C245.6 1081.18 254.25 1077.93 259.65 1071.43C265.15 1064.93 267.9 1055.38 267.9 1042.78Z"/>
</mask>
<path d="M180 63.4995L180 60.4995L177 60.4995L177 63.4995L180 63.4995ZM287.25 63.4995L290.25 63.4995L290.25 60.4995L287.25 60.4995L287.25 63.4995ZM287.25 87.4995L287.25 90.4995L290.25 90.4995L290.25 87.4995L287.25 87.4995ZM243.3 87.4995L243.3 84.4995L240.3 84.4995L240.3 87.4995L243.3 87.4995ZM243.3 163.1L240.3 163.1L240.3 166.1L243.3 166.1L243.3 163.1ZM287.25 163.1L290.25 163.1L290.25 160.1L287.25 160.1L287.25 163.1ZM287.25 187.1L287.25 190.1L290.25 190.1L290.25 187.1L287.25 187.1ZM180 187.1L177 187.1L177 190.1L180 190.1L180 187.1ZM180 163.1L180 160.1L177 160.1L177 163.1L180 163.1ZM223.8 163.1L223.8 166.1L226.8 166.1L226.8 163.1L223.8 163.1ZM223.8 87.4995L226.8 87.4995L226.8 84.4995L223.8 84.4995L223.8 87.4995ZM180 87.4995L177 87.4995L177 90.4995L180 90.4995L180 87.4995ZM180 66.4995L287.25 66.4995L287.25 60.4995L180 60.4995L180 66.4995ZM284.25 63.4995L284.25 87.4995L290.25 87.4995L290.25 63.4995L284.25 63.4995ZM287.25 84.4995L243.3 84.4995L243.3 90.4995L287.25 90.4995L287.25 84.4995ZM240.3 87.4995L240.3 163.1L246.3 163.1L246.3 87.4995L240.3 87.4995ZM243.3 166.1L287.25 166.1L287.25 160.1L243.3 160.1L243.3 166.1ZM284.25 163.1L284.25 187.1L290.25 187.1L290.25 163.1L284.25 163.1ZM287.25 184.1L180 184.1L180 190.1L287.25 190.1L287.25 184.1ZM183 187.1L183 163.1L177 163.1L177 187.1L183 187.1ZM180 166.1L223.8 166.1L223.8 160.1L180 160.1L180 166.1ZM226.8 163.1L226.8 87.4995L220.8 87.4995L220.8 163.1L226.8 163.1ZM223.8 84.4995L180 84.4995L180 90.4995L223.8 90.4995L223.8 84.4995ZM183 87.4995L183 63.4995L177 63.4995L177 87.4995L183 87.4995ZM180 199.08L181.232 196.344L177 194.438L177 199.08L180 199.08ZM287.25 247.38L290.25 247.38L290.25 245.44L288.482 244.644L287.25 247.38ZM287.25 284.43L288.482 287.165L290.25 286.369L290.25 284.43L287.25 284.43ZM180 332.73L177 332.73L177 337.371L181.232 335.465L180 332.73ZM180 306.63L178.768 303.894L177 304.69L177 306.63L180 306.63ZM202.65 296.43L203.882 299.165L205.65 298.369L205.65 296.43L202.65 296.43ZM202.65 235.38L205.65 235.38L205.65 233.44L203.882 232.644L202.65 235.38ZM180 225.18L177 225.18L177 227.119L178.768 227.915L180 225.18ZM222.15 244.08L223.38 241.344L219.15 239.441L219.15 244.08L222.15 244.08ZM222.15 287.73L219.15 287.73L219.15 292.369L223.38 290.466L222.15 287.73ZM268.5 266.88L269.73 269.616L271.5 268.82L271.5 266.88L268.5 266.88ZM268.5 264.93L271.5 264.93L271.5 262.99L269.73 262.194L268.5 264.93ZM178.768 201.815L286.018 250.115L288.482 244.644L181.232 196.344L178.768 201.815ZM284.25 247.38L284.25 284.43L290.25 284.43L290.25 247.38L284.25 247.38ZM286.018 281.694L178.768 329.994L181.232 335.465L288.482 287.165L286.018 281.694ZM183 332.73L183 306.63L177 306.63L177 332.73L183 332.73ZM181.232 309.365L203.882 299.165L201.418 293.694L178.768 303.894L181.232 309.365ZM205.65 296.43L205.65 235.38L199.65 235.38L199.65 296.43L205.65 296.43ZM203.882 232.644L181.232 222.444L178.768 227.915L201.418 238.115L203.882 232.644ZM183 225.18L183 199.08L177 199.08L177 225.18L183 225.18ZM219.15 244.08L219.15 287.73L225.15 287.73L225.15 244.08L219.15 244.08ZM223.38 290.466L269.73 269.616L267.269 264.144L220.919 284.994L223.38 290.466ZM271.5 266.88L271.5 264.93L265.5 264.93L265.5 266.88L271.5 266.88ZM269.73 262.194L223.38 241.344L220.919 246.816L267.269 267.666L269.73 262.194ZM192.9 351.57L190.643 349.593L190.638 349.599L190.633 349.605L192.9 351.57ZM288 397.02L291 397.036L291 397.035L288 397.02ZM287.7 451.02L287.7 454.02L290.683 454.02L290.7 451.036L287.7 451.02ZM268.5 451.02L265.5 451.02L265.5 454.02L268.5 454.02L268.5 451.02ZM260.25 369.72L257.99 371.693L257.99 371.693L260.25 369.72ZM207 369.72L204.757 367.727L204.749 367.737L204.74 367.747L207 369.72ZM198.75 452.52L198.75 455.52L201.75 455.52L201.75 452.52L198.75 452.52ZM179.25 452.52L176.25 452.52L176.25 455.52L179.25 455.52L179.25 452.52ZM182.25 397.02C182.25 377.639 186.706 363.297 195.167 353.535L190.633 349.605C180.893 360.843 176.25 376.801 176.25 397.02L182.25 397.02ZM195.156 353.547C203.631 343.874 216.297 338.82 233.7 338.82L233.7 332.82C215.102 332.82 200.568 338.266 190.643 349.593L195.156 353.547ZM233.7 338.82C250.996 338.82 263.615 343.87 272.093 353.547L276.606 349.593C266.684 338.269 252.203 332.82 233.7 332.82L233.7 338.82ZM272.093 353.547C280.642 363.304 285.098 377.633 285 397.005L291 397.035C291.102 376.806 286.457 360.836 276.606 349.593L272.093 353.547ZM285 397.003L284.7 451.003L290.7 451.036L291 397.036L285 397.003ZM287.7 448.02L268.5 448.02L268.5 454.02L287.7 454.02L287.7 448.02ZM271.5 451.02L271.5 398.67L265.5 398.67L265.5 451.02L271.5 451.02ZM271.5 398.67C271.5 385.329 268.69 374.826 262.51 367.747L257.99 371.693C262.809 377.213 265.5 386.011 265.5 398.67L271.5 398.67ZM262.51 367.747C256.219 360.541 246.36 357.27 233.7 357.27L233.7 363.27C245.439 363.27 253.281 366.299 257.99 371.693L262.51 367.747ZM233.7 357.27C221.034 357.27 211.143 360.543 204.757 367.727L209.242 371.713C214.056 366.297 221.965 363.27 233.7 363.27L233.7 357.27ZM204.74 367.747C198.559 374.826 195.75 385.329 195.75 398.67L201.75 398.67C201.75 386.011 204.44 377.213 209.26 371.693L204.74 367.747ZM195.75 398.67L195.75 452.52L201.75 452.52L201.75 398.67L195.75 398.67ZM198.75 449.52L179.25 449.52L179.25 455.52L198.75 455.52L198.75 449.52ZM182.25 452.52L182.25 397.02L176.25 397.02L176.25 452.52L182.25 452.52ZM180 467.503L180 464.503L177 464.503L177 467.503L180 467.503ZM286.95 467.503L289.95 467.503L289.95 464.503L286.95 464.503L286.95 467.503ZM286.95 491.503L286.95 494.503L289.95 494.503L289.95 491.503L286.95 491.503ZM243.3 491.503L243.3 488.503L240.3 488.503L240.3 491.503L243.3 491.503ZM243.3 527.203L240.3 527.203L240.3 528.637L241.415 529.537L243.3 527.203ZM286.95 562.453L289.95 562.453L289.95 561.02L288.835 560.119L286.95 562.453ZM286.95 592.303L285.039 594.617L289.95 598.672L289.95 592.303L286.95 592.303ZM233.55 548.203L235.46 545.89L233.552 544.315L231.643 545.888L233.55 548.203ZM180 592.303L177 592.303L177 598.66L181.907 594.619L180 592.303ZM180 562.453L178.114 560.12L177 561.021L177 562.453L180 562.453ZM223.8 527.053L225.685 529.387L226.8 528.486L226.8 527.053L223.8 527.053ZM223.8 491.503L226.8 491.503L226.8 488.503L223.8 488.503L223.8 491.503ZM180 491.503L177 491.503L177 494.503L180 494.503L180 491.503ZM180 470.503L286.95 470.503L286.95 464.503L180 464.503L180 470.503ZM283.95 467.503L283.95 491.503L289.95 491.503L289.95 467.503L283.95 467.503ZM286.95 488.503L243.3 488.503L243.3 494.503L286.95 494.503L286.95 488.503ZM240.3 491.503L240.3 527.203L246.3 527.203L246.3 491.503L240.3 491.503ZM241.415 529.537L285.065 564.787L288.835 560.119L245.185 524.869L241.415 529.537ZM283.95 562.453L283.95 592.303L289.95 592.303L289.95 562.453L283.95 562.453ZM288.86 589.99L235.46 545.89L231.639 550.517L285.039 594.617L288.86 589.99ZM231.643 545.888L178.093 589.988L181.907 594.619L235.457 550.519L231.643 545.888ZM183 592.303L183 562.453L177 562.453L177 592.303L183 592.303ZM181.885 564.787L225.685 529.387L221.914 524.72L178.114 560.12L181.885 564.787ZM226.8 527.053L226.8 491.503L220.8 491.503L220.8 527.053L226.8 527.053ZM223.8 488.503L180 488.503L180 494.503L223.8 494.503L223.8 488.503ZM183 491.503L183 467.503L177 467.503L177 491.503L183 491.503ZM180 604.32L180 601.32L177 601.32L177 604.32L180 604.32ZM287.25 604.32L290.25 604.32L290.25 601.32L287.25 601.32L287.25 604.32ZM287.25 721.92L287.25 724.92L290.25 724.92L290.25 721.92L287.25 721.92ZM267.75 721.92L264.75 721.92L264.75 724.92L267.75 724.92L267.75 721.92ZM267.75 628.32L270.75 628.32L270.75 625.32L267.75 625.32L267.75 628.32ZM244.05 628.32L244.05 625.32L241.05 625.32L241.05 628.32L244.05 628.32ZM244.05 713.22L244.05 716.22L247.05 716.22L247.05 713.22L244.05 713.22ZM224.55 713.22L221.55 713.22L221.55 716.22L224.55 716.22L224.55 713.22ZM224.55 628.32L227.55 628.32L227.55 625.32L224.55 625.32L224.55 628.32ZM199.5 628.32L199.5 625.32L196.5 625.32L196.5 628.32L199.5 628.32ZM199.5 721.92L199.5 724.92L202.5 724.92L202.5 721.92L199.5 721.92ZM180 721.92L177 721.92L177 724.92L180 724.92L180 721.92ZM180 607.32L287.25 607.32L287.25 601.32L180 601.32L180 607.32ZM284.25 604.32L284.25 721.92L290.25 721.92L290.25 604.32L284.25 604.32ZM287.25 718.92L267.75 718.92L267.75 724.92L287.25 724.92L287.25 718.92ZM270.75 721.92L270.75 628.32L264.75 628.32L264.75 721.92L270.75 721.92ZM267.75 625.32L244.05 625.32L244.05 631.32L267.75 631.32L267.75 625.32ZM241.05 628.32L241.05 713.22L247.05 713.22L247.05 628.32L241.05 628.32ZM244.05 710.22L224.55 710.22L224.55 716.22L244.05 716.22L244.05 710.22ZM227.55 713.22L227.55 628.32L221.55 628.32L221.55 713.22L227.55 713.22ZM224.55 625.32L199.5 625.32L199.5 631.32L224.55 631.32L224.55 625.32ZM196.5 628.32L196.5 721.92L202.5 721.92L202.5 628.32L196.5 628.32ZM199.5 718.92L180 718.92L180 724.92L199.5 724.92L199.5 718.92ZM183 721.92L183 604.32L177 604.32L177 721.92L183 721.92ZM180 738.353L180 735.353L177 735.353L177 738.353L180 738.353ZM287.25 738.353L290.25 738.353L290.25 735.353L287.25 735.353L287.25 738.353ZM278.85 854.003L276.64 851.974L276.631 851.983L276.623 851.992L278.85 854.003ZM220.2 837.353L223.158 836.854L222.417 832.465L218.627 834.798L220.2 837.353ZM180 862.103L177 862.103L177 867.473L181.572 864.658L180 862.103ZM180 834.803L178.491 832.21L177 833.078L177 834.803L180 834.803ZM219.45 811.853L220.958 814.446L222.45 813.578L222.45 811.853L219.45 811.853ZM219.45 762.353L222.45 762.353L222.45 759.353L219.45 759.353L219.45 762.353ZM180 762.353L177 762.353L177 765.353L180 765.353L180 762.353ZM267.75 762.353L270.75 762.353L270.75 759.353L267.75 759.353L267.75 762.353ZM239.1 762.353L239.1 759.353L236.107 759.353L236.1 762.346L239.1 762.353ZM238.95 825.353L235.95 825.346L235.95 825.353L238.95 825.353ZM242.25 835.403L244.461 833.376L244.44 833.352L244.418 833.329L242.25 835.403ZM264.45 835.403L262.282 833.329L262.236 833.377L262.192 833.428L264.45 835.403ZM180 741.353L287.25 741.353L287.25 735.353L180 735.353L180 741.353ZM284.25 738.353L284.25 828.203L290.25 828.203L290.25 738.353L284.25 738.353ZM284.25 828.203C284.25 838.812 281.579 846.594 276.64 851.974L281.06 856.032C287.32 849.213 290.25 839.794 290.25 828.203L284.25 828.203ZM276.623 851.992C271.777 857.358 264.223 860.303 253.35 860.303L253.35 866.303C265.276 866.303 274.722 863.049 281.076 856.014L276.623 851.992ZM253.35 860.303C244.091 860.303 237.247 858.156 232.449 854.231L228.65 858.875C234.853 863.95 243.209 866.303 253.35 866.303L253.35 860.303ZM232.449 854.231C227.611 850.273 224.461 844.577 223.158 836.854L217.241 837.852C218.739 846.729 222.488 853.833 228.65 858.875L232.449 854.231ZM218.627 834.798L178.427 859.548L181.572 864.658L221.772 839.908L218.627 834.798ZM183 862.103L183 834.803L177 834.803L177 862.103L183 862.103ZM181.508 837.396L220.958 814.446L217.941 809.26L178.491 832.21L181.508 837.396ZM222.45 811.853L222.45 762.353L216.45 762.353L216.45 811.853L222.45 811.853ZM219.45 759.353L180 759.353L180 765.353L219.45 765.353L219.45 759.353ZM183 762.353L183 738.353L177 738.353L177 762.353L183 762.353ZM270.75 825.353L270.75 762.353L264.75 762.353L264.75 825.353L270.75 825.353ZM267.75 759.353L239.1 759.353L239.1 765.353L267.75 765.353L267.75 759.353ZM236.1 762.346L235.95 825.346L241.95 825.36L242.1 762.36L236.1 762.346ZM235.95 825.353C235.95 830.226 237.172 834.434 240.082 837.477L244.418 833.329C242.928 831.772 241.95 829.28 241.95 825.353L235.95 825.353ZM240.038 837.43C243.07 840.737 247.799 842.003 253.35 842.003L253.35 836.003C248.5 836.003 245.83 834.869 244.461 833.376L240.038 837.43ZM253.35 842.003C258.961 842.003 263.754 840.754 266.707 837.379L262.192 833.428C260.946 834.852 258.338 836.003 253.35 836.003L253.35 842.003ZM266.618 837.477C269.528 834.434 270.75 830.226 270.75 825.353L264.75 825.353C264.75 829.28 263.772 831.772 262.282 833.329L266.618 837.477ZM180 933.763L180 930.763L177 930.763L177 933.763L180 933.763ZM287.25 933.763L290.25 933.763L290.25 930.763L287.25 930.763L287.25 933.763ZM287.25 957.763L287.25 960.763L290.25 960.763L290.25 957.763L287.25 957.763ZM180 957.763L177 957.763L177 960.763L180 960.763L180 957.763ZM180 936.763L287.25 936.763L287.25 930.763L180 930.763L180 936.763ZM284.25 933.763L284.25 957.763L290.25 957.763L290.25 933.763L284.25 933.763ZM287.25 954.763L180 954.763L180 960.763L287.25 960.763L287.25 954.763ZM183 957.763L183 933.763L177 933.763L177 957.763L183 957.763ZM180 978.734L180 975.734L177 975.734L177 978.734L180 978.734ZM287.25 978.734L290.25 978.734L290.25 975.734L287.25 975.734L287.25 978.734ZM287.25 996.434L284.25 996.434L284.25 996.443L287.25 996.434ZM287.4 1044.43L290.4 1044.43L290.4 1044.42L287.4 1044.43ZM273.75 1089.58L271.464 1087.64L271.464 1087.64L273.75 1089.58ZM193.65 1089.58L195.935 1087.64L195.935 1087.64L193.65 1089.58ZM267.9 1002.73L270.9 1002.73L270.9 999.734L267.9 999.734L267.9 1002.73ZM199.5 1002.73L199.5 999.734L196.5 999.734L196.5 1002.73L199.5 1002.73ZM207.75 1071.43L205.459 1073.37L205.459 1073.37L207.75 1071.43ZM259.65 1071.43L257.359 1069.5L257.351 1069.51L257.342 1069.52L259.65 1071.43ZM180 981.734L287.25 981.734L287.25 975.734L180 975.734L180 981.734ZM284.25 978.734L284.25 996.434L290.25 996.434L290.25 978.734L284.25 978.734ZM284.25 996.443L284.4 1044.44L290.4 1044.42L290.25 996.425L284.25 996.443ZM284.4 1044.43C284.4 1063.39 279.954 1077.66 271.464 1087.64L276.035 1091.53C285.746 1080.11 290.4 1064.28 290.4 1044.43L284.4 1044.43ZM271.464 1087.64C263.074 1097.51 250.661 1102.63 233.7 1102.63L233.7 1108.63C251.938 1108.63 266.225 1103.06 276.035 1091.53L271.464 1087.64ZM233.7 1102.63C216.738 1102.63 204.325 1097.51 195.935 1087.64L191.364 1091.53C201.174 1103.06 215.461 1108.63 233.7 1108.63L233.7 1102.63ZM195.935 1087.64C187.446 1077.66 183 1063.39 183 1044.43L177 1044.43C177 1064.28 181.654 1080.11 191.364 1091.53L195.935 1087.64ZM183 1044.43L183 978.734L177 978.734L177 1044.43L183 1044.43ZM270.9 1042.78L270.9 1002.73L264.9 1002.73L264.9 1042.78L270.9 1042.78ZM267.9 999.734L199.5 999.734L199.5 1005.73L267.9 1005.73L267.9 999.734ZM196.5 1002.73L196.5 1042.78L202.5 1042.78L202.5 1002.73L196.5 1002.73ZM196.5 1042.78C196.5 1055.76 199.325 1066.12 205.459 1073.37L210.04 1069.5C205.174 1063.75 202.5 1055 202.5 1042.78L196.5 1042.78ZM205.459 1073.37C211.725 1080.78 221.374 1084.18 233.7 1084.18L233.7 1078.18C222.426 1078.18 214.774 1075.09 210.04 1069.5L205.459 1073.37ZM233.7 1084.18C246.112 1084.18 255.782 1080.78 261.957 1073.35L257.342 1069.52C252.717 1075.08 245.088 1078.18 233.7 1078.18L233.7 1084.18ZM261.94 1073.37C268.074 1066.12 270.9 1055.76 270.9 1042.78L264.9 1042.78C264.9 1055 262.225 1063.75 257.359 1069.5L261.94 1073.37Z" fill="#FFC75B" mask="url(#path-2-outside-1_1215_1110)"/>
<path d="M40.0001 10.5L147.25 10.5L147.25 34.5L103.3 34.5L103.3 110.1L147.25 110.1L147.25 134.1L40.0001 134.1L40.0001 110.1L83.8001 110.1L83.8001 34.5L40.0001 34.5L40.0001 10.5ZM40.0001 146.08L147.25 194.38L147.25 231.43L40 279.73L40 253.63L62.6501 243.43L62.6501 182.38L40.0001 172.18L40.0001 146.08ZM82.1501 191.08L82.1501 234.73L128.5 213.88L128.5 211.93L82.1501 191.08ZM39.25 344.02C39.25 324.22 43.8 309.07 52.9 298.57C62.1 288.07 75.7 282.82 93.7001 282.82C111.6 282.82 125.15 288.07 134.35 298.57C143.55 309.07 148.1 324.22 148 344.02L147.7 398.02L128.5 398.02L128.5 345.67C128.5 332.67 125.75 323.02 120.25 316.72C114.75 310.42 105.9 307.27 93.7 307.27C81.5 307.27 72.6 310.42 67 316.72C61.5 323.02 58.75 332.67 58.75 345.67L58.75 399.52L39.25 399.52L39.25 344.02ZM40 414.504L146.95 414.504L146.95 438.504L103.3 438.504L103.3 474.204L146.95 509.454L146.95 539.304L93.55 495.204L40 539.304L40 509.454L83.8 474.054L83.8 438.504L40 438.504L40 414.504ZM40 551.32L147.25 551.32L147.25 668.92L127.75 668.92L127.75 575.32L104.05 575.32L104.05 660.22L84.55 660.22L84.55 575.32L59.5 575.32L59.5 668.92L40 668.92L40 551.32ZM40 685.354L147.25 685.354L147.25 775.204C147.25 786.304 144.45 794.904 138.85 801.004C133.25 807.204 124.75 810.304 113.35 810.304C103.65 810.304 96.05 808.054 90.55 803.554C85.05 799.054 81.6 792.654 80.2 784.354L40 809.104L40 781.804L79.45 758.854L79.45 709.354L40 709.354L40 685.354ZM127.75 772.354L127.75 709.354L99.1 709.354L98.95 772.354C98.95 776.754 100.05 780.104 102.25 782.404C104.45 784.804 108.15 786.004 113.35 786.004C118.65 786.004 122.35 784.804 124.45 782.404C126.65 780.104 127.75 776.754 127.75 772.354ZM40 880.764L147.25 880.764L147.25 904.764L40 904.764L40 880.764ZM40 925.734L147.25 925.734L147.25 943.434L147.4 991.434C147.4 1010.83 142.85 1025.88 133.75 1036.58C124.65 1047.28 111.3 1052.63 93.7 1052.63C76.1 1052.63 62.75 1047.28 53.65 1036.58C44.55 1025.88 40 1010.83 40 991.434L40 925.734ZM127.9 989.784L127.9 949.734L59.5 949.734L59.5 989.784C59.5 1002.38 62.25 1011.93 67.75 1018.43C73.25 1024.93 81.9 1028.18 93.7 1028.18C105.6 1028.18 114.25 1024.93 119.65 1018.43C125.15 1011.93 127.9 1002.38 127.9 989.784Z" fill="#E1563F" fill-opacity="0.75"/>
</svg>
