<svg width="377" height="1117" viewBox="0 0 377 1117" fill="none" xmlns="http://www.w3.org/2000/svg">
<path d="M237 188.5L344.25 188.5L344.25 212.5L300.3 212.5L300.3 288.1L344.25 288.1L344.25 312.1L237 312.1L237 288.1L280.8 288.1L280.8 212.5L237 212.5L237 188.5ZM237 324.08L344.25 372.38L344.25 409.43L237 457.73L237 431.63L259.65 421.43L259.65 360.38L237 350.18L237 324.08ZM279.15 369.08L279.15 412.73L325.5 391.88L325.5 389.93L279.15 369.08ZM236.25 522.02C236.25 502.22 240.8 487.07 249.9 476.57C259.1 466.07 272.7 460.82 290.7 460.82C308.6 460.82 322.15 466.07 331.35 476.57C340.55 487.07 345.1 502.22 345 522.02L344.7 576.02L325.5 576.02L325.5 523.67C325.5 510.67 322.75 501.02 317.25 494.72C311.75 488.42 302.9 485.27 290.7 485.27C278.5 485.27 269.6 488.42 264 494.72C258.5 501.02 255.75 510.67 255.75 523.67L255.75 577.52L236.25 577.52L236.25 522.02ZM237 592.504L343.95 592.504L343.95 616.504L300.3 616.504L300.3 652.204L343.95 687.454L343.95 717.304L290.55 673.204L237 717.304L237 687.454L280.8 652.054L280.8 616.504L237 616.504L237 592.504ZM237 729.32L344.25 729.32L344.25 846.92L324.75 846.92L324.75 753.32L301.05 753.32L301.05 838.22L281.55 838.22L281.55 753.32L256.5 753.32L256.5 846.92L237 846.92L237 729.32ZM237 863.354L344.25 863.354L344.25 953.204C344.25 964.304 341.45 972.904 335.85 979.004C330.25 985.204 321.75 988.304 310.35 988.304C300.65 988.304 293.05 986.054 287.55 981.554C282.05 977.054 278.6 970.654 277.2 962.354L237 987.104L237 959.804L276.45 936.854L276.45 887.354L237 887.354L237 863.354ZM324.75 950.354L324.75 887.354L296.1 887.354L295.95 950.354C295.95 954.754 297.05 958.104 299.25 960.404C301.45 962.804 305.15 964.004 310.35 964.004C315.65 964.004 319.35 962.804 321.45 960.404C323.65 958.104 324.75 954.754 324.75 950.354ZM237 1058.76L344.25 1058.76L344.25 1082.76L237 1082.76L237 1058.76ZM237 1103.73L344.25 1103.73L344.25 1121.43L344.4 1169.43C344.4 1188.83 339.85 1203.88 330.75 1214.58C321.65 1225.28 308.3 1230.63 290.7 1230.63C273.1 1230.63 259.75 1225.28 250.65 1214.58C241.55 1203.88 237 1188.83 237 1169.43L237 1103.73ZM324.9 1167.78L324.9 1127.73L256.5 1127.73L256.5 1167.78C256.5 1180.38 259.25 1189.93 264.75 1196.43C270.25 1202.93 278.9 1206.18 290.7 1206.18C302.6 1206.18 311.25 1202.93 316.65 1196.43C322.15 1189.93 324.9 1180.38 324.9 1167.78Z" fill="#F2EBD9" fill-opacity="0.75"/>
<mask id="path-2-outside-1_538_1598" maskUnits="userSpaceOnUse" x="176" y="49" width="116" height="1049" fill="black">
<rect fill="white" x="176" y="49" width="116" height="1049"/>
<path d="M180 52.5L287.25 52.5L287.25 76.5L243.3 76.5L243.3 152.1L287.25 152.1L287.25 176.1L180 176.1L180 152.1L223.8 152.1L223.8 76.5L180 76.5L180 52.5ZM180 188.08L287.25 236.38L287.25 273.43L180 321.73L180 295.63L202.65 285.43L202.65 224.38L180 214.18L180 188.08ZM222.15 233.08L222.15 276.73L268.5 255.88L268.5 253.93L222.15 233.08ZM179.25 386.02C179.25 366.22 183.8 351.07 192.9 340.57C202.1 330.07 215.7 324.82 233.7 324.82C251.6 324.82 265.15 330.07 274.35 340.57C283.55 351.07 288.1 366.22 288 386.02L287.7 440.02L268.5 440.02L268.5 387.67C268.5 374.67 265.75 365.02 260.25 358.72C254.75 352.42 245.9 349.27 233.7 349.27C221.5 349.27 212.6 352.42 207 358.72C201.5 365.02 198.75 374.67 198.75 387.67L198.75 441.52L179.25 441.52L179.25 386.02ZM180 456.504L286.95 456.504L286.95 480.504L243.3 480.504L243.3 516.204L286.95 551.454L286.95 581.304L233.55 537.204L180 581.304L180 551.454L223.8 516.054L223.8 480.504L180 480.504L180 456.504ZM180 593.32L287.25 593.32L287.25 710.92L267.75 710.92L267.75 617.32L244.05 617.32L244.05 702.22L224.55 702.22L224.55 617.32L199.5 617.32L199.5 710.92L180 710.92L180 593.32ZM180 727.354L287.25 727.354L287.25 817.204C287.25 828.304 284.45 836.904 278.85 843.004C273.25 849.204 264.75 852.304 253.35 852.304C243.65 852.304 236.05 850.054 230.55 845.554C225.05 841.054 221.6 834.654 220.2 826.354L180 851.104L180 823.804L219.45 800.854L219.45 751.354L180 751.354L180 727.354ZM267.75 814.354L267.75 751.354L239.1 751.354L238.95 814.354C238.95 818.754 240.05 822.104 242.25 824.404C244.45 826.804 248.15 828.004 253.35 828.004C258.65 828.004 262.35 826.804 264.45 824.404C266.65 822.104 267.75 818.754 267.75 814.354ZM180 922.764L287.25 922.764L287.25 946.764L180 946.764L180 922.764ZM180 967.734L287.25 967.734L287.25 985.434L287.4 1033.43C287.4 1052.83 282.85 1067.88 273.75 1078.58C264.65 1089.28 251.3 1094.63 233.7 1094.63C216.1 1094.63 202.75 1089.28 193.65 1078.58C184.55 1067.88 180 1052.83 180 1033.43L180 967.734ZM267.9 1031.78L267.9 991.734L199.5 991.734L199.5 1031.78C199.5 1044.38 202.25 1053.93 207.75 1060.43C213.25 1066.93 221.9 1070.18 233.7 1070.18C245.6 1070.18 254.25 1066.93 259.65 1060.43C265.15 1053.93 267.9 1044.38 267.9 1031.78Z"/>
</mask>
<path d="M180 52.5L180 49.5L177 49.5L177 52.5L180 52.5ZM287.25 52.5L290.25 52.5L290.25 49.5L287.25 49.5L287.25 52.5ZM287.25 76.5L287.25 79.5L290.25 79.5L290.25 76.5L287.25 76.5ZM243.3 76.5L243.3 73.5L240.3 73.5L240.3 76.5L243.3 76.5ZM243.3 152.1L240.3 152.1L240.3 155.1L243.3 155.1L243.3 152.1ZM287.25 152.1L290.25 152.1L290.25 149.1L287.25 149.1L287.25 152.1ZM287.25 176.1L287.25 179.1L290.25 179.1L290.25 176.1L287.25 176.1ZM180 176.1L177 176.1L177 179.1L180 179.1L180 176.1ZM180 152.1L180 149.1L177 149.1L177 152.1L180 152.1ZM223.8 152.1L223.8 155.1L226.8 155.1L226.8 152.1L223.8 152.1ZM223.8 76.5L226.8 76.5L226.8 73.5L223.8 73.5L223.8 76.5ZM180 76.5L177 76.5L177 79.5L180 79.5L180 76.5ZM180 55.5L287.25 55.5L287.25 49.5L180 49.5L180 55.5ZM284.25 52.5L284.25 76.5L290.25 76.5L290.25 52.5L284.25 52.5ZM287.25 73.5L243.3 73.5L243.3 79.5L287.25 79.5L287.25 73.5ZM240.3 76.5L240.3 152.1L246.3 152.1L246.3 76.5L240.3 76.5ZM243.3 155.1L287.25 155.1L287.25 149.1L243.3 149.1L243.3 155.1ZM284.25 152.1L284.25 176.1L290.25 176.1L290.25 152.1L284.25 152.1ZM287.25 173.1L180 173.1L180 179.1L287.25 179.1L287.25 173.1ZM183 176.1L183 152.1L177 152.1L177 176.1L183 176.1ZM180 155.1L223.8 155.1L223.8 149.1L180 149.1L180 155.1ZM226.8 152.1L226.8 76.5L220.8 76.5L220.8 152.1L226.8 152.1ZM223.8 73.5L180 73.5L180 79.5L223.8 79.5L223.8 73.5ZM183 76.5L183 52.5L177 52.5L177 76.5L183 76.5ZM180 188.08L181.232 185.345L177 183.439L177 188.08L180 188.08ZM287.25 236.38L290.25 236.38L290.25 234.441L288.482 233.645L287.25 236.38ZM287.25 273.43L288.482 276.165L290.25 275.369L290.25 273.43L287.25 273.43ZM180 321.73L177 321.73L177 326.371L181.232 324.465L180 321.73ZM180 295.63L178.768 292.895L177 293.691L177 295.63L180 295.63ZM202.65 285.43L203.882 288.166L205.65 287.369L205.65 285.43L202.65 285.43ZM202.65 224.38L205.65 224.38L205.65 222.441L203.882 221.645L202.65 224.38ZM180 214.18L177 214.18L177 216.119L178.768 216.916L180 214.18ZM222.15 233.08L223.381 230.344L219.15 228.441L219.15 233.08L222.15 233.08ZM222.15 276.73L219.15 276.73L219.15 281.369L223.381 279.466L222.15 276.73ZM268.5 255.88L269.731 258.616L271.5 257.82L271.5 255.88L268.5 255.88ZM268.5 253.93L271.5 253.93L271.5 251.99L269.731 251.194L268.5 253.93ZM178.768 190.815L286.018 239.115L288.482 233.645L181.232 185.345L178.768 190.815ZM284.25 236.38L284.25 273.43L290.25 273.43L290.25 236.38L284.25 236.38ZM286.018 270.695L178.768 318.995L181.232 324.465L288.482 276.165L286.018 270.695ZM183 321.73L183 295.63L177 295.63L177 321.73L183 321.73ZM181.232 298.366L203.882 288.166L201.418 282.695L178.768 292.895L181.232 298.366ZM205.65 285.43L205.65 224.38L199.65 224.38L199.65 285.43L205.65 285.43ZM203.882 221.645L181.232 211.445L178.768 216.916L201.418 227.116L203.882 221.645ZM183 214.18L183 188.08L177 188.08L177 214.18L183 214.18ZM219.15 233.08L219.15 276.73L225.15 276.73L225.15 233.08L219.15 233.08ZM223.381 279.466L269.731 258.616L267.269 253.144L220.919 273.994L223.381 279.466ZM271.5 255.88L271.5 253.93L265.5 253.93L265.5 255.88L271.5 255.88ZM269.731 251.194L223.381 230.344L220.919 235.816L267.269 256.666L269.731 251.194ZM192.9 340.57L190.644 338.593L190.638 338.599L190.633 338.606L192.9 340.57ZM288 386.02L291 386.037L291 386.035L288 386.02ZM287.7 440.02L287.7 443.02L290.683 443.02L290.7 440.037L287.7 440.02ZM268.5 440.02L265.5 440.02L265.5 443.02L268.5 443.02L268.5 440.02ZM260.25 358.72L257.99 360.693L257.99 360.693L260.25 358.72ZM207 358.72L204.758 356.727L204.749 356.737L204.74 356.747L207 358.72ZM198.75 441.52L198.75 444.52L201.75 444.52L201.75 441.52L198.75 441.52ZM179.25 441.52L176.25 441.52L176.25 444.52L179.25 444.52L179.25 441.52ZM182.25 386.02C182.25 366.639 186.706 352.298 195.167 342.535L190.633 338.606C180.894 349.843 176.25 365.801 176.25 386.02L182.25 386.02ZM195.156 342.547C203.632 332.875 216.297 327.82 233.7 327.82L233.7 321.82C215.103 321.82 200.568 327.266 190.644 338.593L195.156 342.547ZM233.7 327.82C250.997 327.82 263.615 332.871 272.094 342.547L276.606 338.593C266.685 327.27 252.203 321.82 233.7 321.82L233.7 327.82ZM272.094 342.547C280.642 352.304 285.098 366.634 285 386.005L291 386.035C291.102 365.807 286.458 349.837 276.606 338.593L272.094 342.547ZM285 386.004L284.7 440.004L290.7 440.037L291 386.037L285 386.004ZM287.7 437.02L268.5 437.02L268.5 443.02L287.7 443.02L287.7 437.02ZM271.5 440.02L271.5 387.67L265.5 387.67L265.5 440.02L271.5 440.02ZM271.5 387.67C271.5 374.329 268.69 363.827 262.51 356.747L257.99 360.693C262.81 366.214 265.5 375.012 265.5 387.67L271.5 387.67ZM262.51 356.747C256.219 349.541 246.36 346.27 233.7 346.27L233.7 352.27C245.44 352.27 253.281 355.299 257.99 360.693L262.51 356.747ZM233.7 346.27C221.035 346.27 211.144 349.543 204.758 356.727L209.242 360.713C214.056 355.298 221.965 352.27 233.7 352.27L233.7 346.27ZM204.74 356.747C198.56 363.827 195.75 374.329 195.75 387.67L201.75 387.67C201.75 375.012 204.44 366.214 209.26 360.693L204.74 356.747ZM195.75 387.67L195.75 441.52L201.75 441.52L201.75 387.67L195.75 387.67ZM198.75 438.52L179.25 438.52L179.25 444.52L198.75 444.52L198.75 438.52ZM182.25 441.52L182.25 386.02L176.25 386.02L176.25 441.52L182.25 441.52ZM180 456.504L180 453.504L177 453.504L177 456.504L180 456.504ZM286.95 456.504L289.95 456.504L289.95 453.504L286.95 453.504L286.95 456.504ZM286.95 480.504L286.95 483.504L289.95 483.504L289.95 480.504L286.95 480.504ZM243.3 480.504L243.3 477.504L240.3 477.504L240.3 480.504L243.3 480.504ZM243.3 516.204L240.3 516.204L240.3 517.637L241.415 518.538L243.3 516.204ZM286.95 551.454L289.95 551.454L289.95 550.021L288.835 549.12L286.95 551.454ZM286.95 581.304L285.04 583.617L289.95 587.672L289.95 581.304L286.95 581.304ZM233.55 537.204L235.46 534.891L233.553 533.315L231.643 534.888L233.55 537.204ZM180 581.304L177 581.304L177 587.661L181.907 583.62L180 581.304ZM180 551.454L178.114 549.121L177 550.021L177 551.454L180 551.454ZM223.8 516.054L225.686 518.387L226.8 517.487L226.8 516.054L223.8 516.054ZM223.8 480.504L226.8 480.504L226.8 477.504L223.8 477.504L223.8 480.504ZM180 480.504L177 480.504L177 483.504L180 483.504L180 480.504ZM180 459.504L286.95 459.504L286.95 453.504L180 453.504L180 459.504ZM283.95 456.504L283.95 480.504L289.95 480.504L289.95 456.504L283.95 456.504ZM286.95 477.504L243.3 477.504L243.3 483.504L286.95 483.504L286.95 477.504ZM240.3 480.504L240.3 516.204L246.3 516.204L246.3 480.504L240.3 480.504ZM241.415 518.538L285.065 553.788L288.835 549.12L245.185 513.87L241.415 518.538ZM283.95 551.454L283.95 581.304L289.95 581.304L289.95 551.454L283.95 551.454ZM288.86 578.991L235.46 534.891L231.64 539.517L285.04 583.617L288.86 578.991ZM231.643 534.888L178.093 578.988L181.907 583.62L235.457 539.52L231.643 534.888ZM183 581.304L183 551.454L177 551.454L177 581.304L183 581.304ZM181.886 553.787L225.686 518.387L221.914 513.721L178.114 549.121L181.886 553.787ZM226.8 516.054L226.8 480.504L220.8 480.504L220.8 516.054L226.8 516.054ZM223.8 477.504L180 477.504L180 483.504L223.8 483.504L223.8 477.504ZM183 480.504L183 456.504L177 456.504L177 480.504L183 480.504ZM180 593.32L180 590.32L177 590.32L177 593.32L180 593.32ZM287.25 593.32L290.25 593.32L290.25 590.32L287.25 590.32L287.25 593.32ZM287.25 710.92L287.25 713.92L290.25 713.92L290.25 710.92L287.25 710.92ZM267.75 710.92L264.75 710.92L264.75 713.92L267.75 713.92L267.75 710.92ZM267.75 617.32L270.75 617.32L270.75 614.32L267.75 614.32L267.75 617.32ZM244.05 617.32L244.05 614.32L241.05 614.32L241.05 617.32L244.05 617.32ZM244.05 702.22L244.05 705.22L247.05 705.22L247.05 702.22L244.05 702.22ZM224.55 702.22L221.55 702.22L221.55 705.22L224.55 705.22L224.55 702.22ZM224.55 617.32L227.55 617.32L227.55 614.32L224.55 614.32L224.55 617.32ZM199.5 617.32L199.5 614.32L196.5 614.32L196.5 617.32L199.5 617.32ZM199.5 710.92L199.5 713.92L202.5 713.92L202.5 710.92L199.5 710.92ZM180 710.92L177 710.92L177 713.92L180 713.92L180 710.92ZM180 596.32L287.25 596.32L287.25 590.32L180 590.32L180 596.32ZM284.25 593.32L284.25 710.92L290.25 710.92L290.25 593.32L284.25 593.32ZM287.25 707.92L267.75 707.92L267.75 713.92L287.25 713.92L287.25 707.92ZM270.75 710.92L270.75 617.32L264.75 617.32L264.75 710.92L270.75 710.92ZM267.75 614.32L244.05 614.32L244.05 620.32L267.75 620.32L267.75 614.32ZM241.05 617.32L241.05 702.22L247.05 702.22L247.05 617.32L241.05 617.32ZM244.05 699.22L224.55 699.22L224.55 705.22L244.05 705.22L244.05 699.22ZM227.55 702.22L227.55 617.32L221.55 617.32L221.55 702.22L227.55 702.22ZM224.55 614.32L199.5 614.32L199.5 620.32L224.55 620.32L224.55 614.32ZM196.5 617.32L196.5 710.92L202.5 710.92L202.5 617.32L196.5 617.32ZM199.5 707.92L180 707.92L180 713.92L199.5 713.92L199.5 707.92ZM183 710.92L183 593.32L177 593.32L177 710.92L183 710.92ZM180 727.354L180 724.354L177 724.354L177 727.354L180 727.354ZM287.25 727.354L290.25 727.354L290.25 724.354L287.25 724.354L287.25 727.354ZM278.85 843.004L276.64 840.975L276.632 840.984L276.624 840.993L278.85 843.004ZM220.2 826.354L223.158 825.855L222.418 821.465L218.627 823.799L220.2 826.354ZM180 851.104L177 851.104L177 856.474L181.573 853.658L180 851.104ZM180 823.804L178.491 821.21L177 822.078L177 823.804L180 823.804ZM219.45 800.854L220.959 803.447L222.45 802.579L222.45 800.854L219.45 800.854ZM219.45 751.354L222.45 751.354L222.45 748.354L219.45 748.354L219.45 751.354ZM180 751.354L177 751.354L177 754.354L180 754.354L180 751.354ZM267.75 751.354L270.75 751.354L270.75 748.354L267.75 748.354L267.75 751.354ZM239.1 751.354L239.1 748.354L236.107 748.354L236.1 751.346L239.1 751.354ZM238.95 814.354L235.95 814.346L235.95 814.354L238.95 814.354ZM242.25 824.404L244.461 822.376L244.44 822.353L244.418 822.33L242.25 824.404ZM264.45 824.404L262.282 822.33L262.236 822.378L262.192 822.428L264.45 824.404ZM180 730.354L287.25 730.354L287.25 724.354L180 724.354L180 730.354ZM284.25 727.354L284.25 817.203L290.25 817.203L290.25 727.354L284.25 727.354ZM284.25 817.203C284.25 827.813 281.58 835.594 276.64 840.975L281.06 845.032C287.32 838.213 290.25 828.794 290.25 817.203L284.25 817.203ZM276.624 840.993C271.778 846.358 264.223 849.304 253.35 849.304L253.35 855.304C265.276 855.304 274.722 852.049 281.076 845.014L276.624 840.993ZM253.35 849.304C244.091 849.304 237.247 847.157 232.45 843.232L228.65 847.875C234.853 852.95 243.209 855.304 253.35 855.304L253.35 849.304ZM232.45 843.232C227.612 839.273 224.461 833.578 223.158 825.855L217.242 826.852C218.739 835.729 222.488 842.834 228.65 847.875L232.45 843.232ZM218.627 823.799L178.427 848.549L181.573 853.658L221.773 828.908L218.627 823.799ZM183 851.104L183 823.804L177 823.804L177 851.104L183 851.104ZM181.509 826.397L220.959 803.447L217.941 798.26L178.491 821.21L181.509 826.397ZM222.45 800.854L222.45 751.354L216.45 751.354L216.45 800.854L222.45 800.854ZM219.45 748.354L180 748.354L180 754.354L219.45 754.354L219.45 748.354ZM183 751.354L183 727.354L177 727.354L177 751.354L183 751.354ZM270.75 814.354L270.75 751.354L264.75 751.354L264.75 814.354L270.75 814.354ZM267.75 748.354L239.1 748.354L239.1 754.354L267.75 754.354L267.75 748.354ZM236.1 751.346L235.95 814.346L241.95 814.361L242.1 751.361L236.1 751.346ZM235.95 814.354C235.95 819.227 237.172 823.435 240.082 826.477L244.418 822.33C242.928 820.772 241.95 818.28 241.95 814.354L235.95 814.354ZM240.039 826.431C243.07 829.738 247.799 831.004 253.35 831.004L253.35 825.004C248.501 825.004 245.83 823.869 244.461 822.376L240.039 826.431ZM253.35 831.004C258.961 831.004 263.754 829.755 266.708 826.379L262.192 822.428C260.946 823.852 258.338 825.004 253.35 825.004L253.35 831.004ZM266.618 826.477C269.528 823.435 270.75 819.227 270.75 814.354L264.75 814.354C264.75 818.28 263.772 820.772 262.282 822.33L266.618 826.477ZM180 922.764L180 919.764L177 919.764L177 922.764L180 922.764ZM287.25 922.764L290.25 922.764L290.25 919.764L287.25 919.764L287.25 922.764ZM287.25 946.764L287.25 949.764L290.25 949.764L290.25 946.764L287.25 946.764ZM180 946.764L177 946.764L177 949.764L180 949.764L180 946.764ZM180 925.764L287.25 925.764L287.25 919.764L180 919.764L180 925.764ZM284.25 922.764L284.25 946.764L290.25 946.764L290.25 922.764L284.25 922.764ZM287.25 943.764L180 943.764L180 949.764L287.25 949.764L287.25 943.764ZM183 946.764L183 922.764L177 922.764L177 946.764L183 946.764ZM180 967.734L180 964.734L177 964.734L177 967.734L180 967.734ZM287.25 967.734L290.25 967.734L290.25 964.734L287.25 964.734L287.25 967.734ZM287.25 985.434L284.25 985.434L284.25 985.444L287.25 985.434ZM287.4 1033.43L290.4 1033.43L290.4 1033.42L287.4 1033.43ZM273.75 1078.58L271.465 1076.64L271.465 1076.64L273.75 1078.58ZM193.65 1078.58L195.935 1076.64L193.65 1078.58ZM267.9 991.734L270.9 991.734L270.9 988.734L267.9 988.734L267.9 991.734ZM199.5 991.734L199.5 988.734L196.5 988.734L196.5 991.734L199.5 991.734ZM207.75 1060.43L205.46 1062.37L207.75 1060.43ZM259.65 1060.43L257.36 1058.5L257.351 1058.51L257.342 1058.52L259.65 1060.43ZM180 970.734L287.25 970.734L287.25 964.734L180 964.734L180 970.734ZM284.25 967.734L284.25 985.434L290.25 985.434L290.25 967.734L284.25 967.734ZM284.25 985.444L284.4 1033.44L290.4 1033.42L290.25 985.425L284.25 985.444ZM284.4 1033.43C284.4 1052.39 279.954 1066.66 271.465 1076.64L276.035 1080.53C285.746 1069.11 290.4 1053.28 290.4 1033.43L284.4 1033.43ZM271.465 1076.64C263.074 1086.51 250.661 1091.63 233.7 1091.63L233.7 1097.63C251.939 1097.63 266.226 1092.06 276.035 1080.53L271.465 1076.64ZM233.7 1091.63C216.739 1091.63 204.326 1086.51 195.935 1076.64L191.365 1080.53C201.174 1092.06 215.461 1097.63 233.7 1097.63L233.7 1091.63ZM195.935 1076.64C187.446 1066.66 183 1052.39 183 1033.43L177 1033.43C177 1053.28 181.654 1069.11 191.365 1080.53L195.935 1076.64ZM183 1033.43L183 967.734L177 967.734L177 1033.43L183 1033.43ZM270.9 1031.78L270.9 991.734L264.9 991.734L264.9 1031.78L270.9 1031.78ZM267.9 988.734L199.5 988.734L199.5 994.734L267.9 994.734L267.9 988.734ZM196.5 991.734L196.5 1031.78L202.5 1031.78L202.5 991.734L196.5 991.734ZM196.5 1031.78C196.5 1044.76 199.326 1055.12 205.46 1062.37L210.04 1058.5C205.174 1052.75 202.5 1044.01 202.5 1031.78L196.5 1031.78ZM205.46 1062.37C211.726 1069.78 221.374 1073.18 233.7 1073.18L233.7 1067.18C222.426 1067.18 214.774 1064.09 210.04 1058.5L205.46 1062.37ZM233.7 1073.18C246.112 1073.18 255.783 1069.78 261.958 1062.35L257.342 1058.52C252.717 1064.08 245.088 1067.18 233.7 1067.18L233.7 1073.18ZM261.94 1062.37C268.074 1055.12 270.9 1044.76 270.9 1031.78L264.9 1031.78C264.9 1044.01 262.226 1052.75 257.36 1058.5L261.94 1062.37Z" fill="#FFC75B" mask="url(#path-2-outside-1_538_1598)"/>
<path d="M40 -0.500006L147.25 -0.500001L147.25 23.5L103.3 23.5L103.3 99.1L147.25 99.1L147.25 123.1L40 123.1L40 99.1L83.8 99.1L83.8 23.5L40 23.5L40 -0.500006ZM40 135.08L147.25 183.38L147.25 220.43L40 268.73L40 242.63L62.65 232.43L62.65 171.38L40 161.18L40 135.08ZM82.15 180.08L82.15 223.73L128.5 202.88L128.5 200.93L82.15 180.08ZM39.25 333.02C39.25 313.22 43.8 298.07 52.9 287.57C62.1 277.07 75.7 271.82 93.7 271.82C111.6 271.82 125.15 277.07 134.35 287.57C143.55 298.07 148.1 313.22 148 333.02L147.7 387.02L128.5 387.02L128.5 334.67C128.5 321.67 125.75 312.02 120.25 305.72C114.75 299.42 105.9 296.27 93.7 296.27C81.5 296.27 72.6 299.42 67 305.72C61.5 312.02 58.75 321.67 58.75 334.67L58.75 388.52L39.25 388.52L39.25 333.02ZM40 403.504L146.95 403.504L146.95 427.504L103.3 427.504L103.3 463.204L146.95 498.454L146.95 528.304L93.55 484.204L40 528.304L40 498.454L83.8 463.054L83.8 427.504L40 427.504L40 403.504ZM40 540.32L147.25 540.32L147.25 657.92L127.75 657.92L127.75 564.32L104.05 564.32L104.05 649.22L84.55 649.22L84.55 564.32L59.5 564.32L59.5 657.92L40 657.92L40 540.32ZM40 674.354L147.25 674.354L147.25 764.204C147.25 775.304 144.45 783.904 138.85 790.004C133.25 796.204 124.75 799.304 113.35 799.304C103.65 799.304 96.05 797.054 90.55 792.554C85.05 788.054 81.6 781.654 80.2 773.354L40 798.104L40 770.804L79.45 747.854L79.45 698.354L40 698.354L40 674.354ZM127.75 761.354L127.75 698.354L99.1 698.354L98.95 761.354C98.95 765.754 100.05 769.104 102.25 771.404C104.45 773.804 108.15 775.004 113.35 775.004C118.65 775.004 122.35 773.804 124.45 771.404C126.65 769.104 127.75 765.754 127.75 761.354ZM40 869.764L147.25 869.764L147.25 893.764L40 893.764L40 869.764ZM40 914.734L147.25 914.734L147.25 932.434L147.4 980.434C147.4 999.834 142.85 1014.88 133.75 1025.58C124.65 1036.28 111.3 1041.63 93.7 1041.63C76.1 1041.63 62.75 1036.28 53.65 1025.58C44.55 1014.88 40 999.834 40 980.434L40 914.734ZM127.9 978.784L127.9 938.734L59.5 938.734L59.5 978.784C59.5 991.384 62.25 1000.93 67.75 1007.43C73.25 1013.93 81.9 1017.18 93.7 1017.18C105.6 1017.18 114.25 1013.93 119.65 1007.43C125.15 1000.93 127.9 991.384 127.9 978.784Z" fill="#E1563F" fill-opacity="0.75"/>
</svg>
