<svg width="1316" height="1070" viewBox="0 0 1316 1070" fill="none" xmlns="http://www.w3.org/2000/svg">
<g clip-path="url(#clip0_538_1218)">
<path d="M835.649 842.85C824.677 729.38 847.095 638.302 890.09 627.972C891.008 627.714 891.967 627.536 892.903 627.392C923.298 622.695 956.401 659.007 982.122 718.377C998.295 755.592 1011.54 801.852 1019.41 852.776C1024.49 885.638 1026.83 917.325 1026.75 946.513L868.071 990.86C856.27 958.456 846.607 920.903 840.355 880.443C839.487 874.829 838.709 869.23 837.997 863.679" fill="#D9D9D9" fill-opacity="0.4"/>
<path d="M835.649 842.85C824.677 729.38 847.095 638.302 890.09 627.972C891.008 627.714 891.967 627.536 892.903 627.392C923.298 622.695 956.401 659.007 982.122 718.377C998.295 755.592 1011.54 801.852 1019.41 852.776C1024.49 885.638 1026.83 917.325 1026.75 946.513L868.071 990.86C856.27 958.456 846.607 920.904 840.355 880.443C839.487 874.829 838.709 869.23 837.997 863.679" stroke="#404040" stroke-opacity="0.4" stroke-width="3" stroke-miterlimit="10"/>
<path d="M947.155 1017.57C963.409 1015.06 966.521 947.888 954.106 867.54C941.69 787.192 918.449 724.093 902.195 726.605C885.94 729.117 882.828 796.288 895.244 876.635C907.659 956.983 930.9 1020.08 947.155 1017.57Z" fill="#404040" fill-opacity="0.4"/>
<path d="M627.633 862.131L616.412 847.753C620.204 852.567 623.935 857.361 627.633 862.131Z" stroke="#ED2424" stroke-width="1.02" stroke-miterlimit="10"/>
<path d="M717.479 983.85L705.635 967.13C709.742 972.853 713.685 978.456 717.479 983.85Z" stroke="#ED2424" stroke-width="1.02" stroke-miterlimit="10"/>
<path d="M289.85 1056.69L302.751 1054.7L305.55 1072.82L300.73 1073.56C300.09 1072.61 299.474 1071.64 298.83 1070.66C296.001 1066.25 292.985 1061.58 289.85 1056.69Z" stroke="#ED2424" stroke-width="1.02" stroke-miterlimit="10"/>
<path d="M39.7734 202.003C69.7806 217.717 91.4764 252.162 107.034 290.285C107.034 290.285 107.085 290.422 107.176 290.64C107.277 290.915 107.432 291.356 107.661 291.901C111.301 300.802 114.542 309.94 117.491 319.064C117.536 319.173 117.578 319.254 117.595 319.367" stroke="#404040" stroke-opacity="0.4" stroke-width="3" stroke-miterlimit="10"/>
<path d="M713.062 546.635C714.779 556.618 707.749 565.978 697.683 567.156L613.573 576.872L612.487 576.982L542.953 585.026C542.953 585.026 475.457 597.052 465.296 619.408C455.168 641.788 460.021 667.746 460.021 667.746C460.021 667.746 459.988 667.722 459.955 667.698L459.927 667.703C454.376 662.029 448.81 656.444 443.168 650.929C436.245 644.073 429.282 637.34 422.308 630.724C404.256 613.657 412.931 583.373 437.303 578.591L538.87 558.6L605.966 552.82L606.825 552.745L673.837 546.977C673.837 546.977 708.701 548.093 711.453 537.158L713.062 546.635Z" fill="#404040" fill-opacity="0.4"/>
<path d="M711.453 537.158L710.549 531.869" stroke="#ED2424" stroke-width="1.02" stroke-miterlimit="10"/>
<path d="M302.75 1054.7L-152.553 1125.05L-149.753 1143.17L305.55 1072.82L302.75 1054.7Z" fill="#404040" fill-opacity="0.4" stroke="#404040" stroke-opacity="0.4" stroke-width="2" stroke-miterlimit="10"/>
<path d="M247.378 927.623L-173.021 992.583L-170.218 1010.73L250.182 945.77L247.378 927.623Z" fill="#404040" fill-opacity="0.4" stroke="#404040" stroke-opacity="0.4" stroke-width="2" stroke-miterlimit="10"/>
<path d="M-110.788 1001.55L117.402 1083.34L84.8524 1088.37L-139.539 1005.99L-110.788 1001.55Z" fill="#404040" fill-opacity="0.4" stroke="#404040" stroke-opacity="0.4" stroke-width="2" stroke-miterlimit="10"/>
<path d="M47.737 977.051L275.928 1058.84L243.349 1063.88L18.9863 981.494L47.737 977.051Z" fill="#404040" fill-opacity="0.4" stroke="#404040" stroke-opacity="0.4" stroke-width="2" stroke-miterlimit="10"/>
<path d="M372.848 1114.56L338.159 1120.96C326.099 1108.48 313.448 1092.93 300.73 1073.56L305.55 1072.82L302.75 1054.7L289.849 1056.69C270.916 1027.16 246.849 989.395 220.354 950.379L250.182 945.77L247.378 927.623L208.846 933.577C146.79 843.852 74.1378 752.804 23.3958 744.184C-56.3866 730.616 -148.018 748.956 -148.018 748.956L-420.202 814.383C-438.647 818.83 -457.171 807.351 -461.395 788.844L-465.127 772.582C-458.422 802.638 -423.599 794.093 -423.599 794.093L-154.989 703.845L-3.1194 674.979C46.7993 665.494 97.9844 684.497 129.284 724.542C212.211 830.608 326.389 1031.07 372.848 1114.56Z" fill="#404040" fill-opacity="0.4"/>
<path d="M837.968 863.682C837.817 862.515 837.67 861.377 837.519 860.211" stroke="#404040" stroke-opacity="0.4" stroke-width="3" stroke-miterlimit="10"/>
<path d="M908.555 935.775L911.354 953.893L716.475 984.006L705.635 967.13L908.555 935.775Z" fill="#404040" fill-opacity="0.4" stroke="#404040" stroke-opacity="0.4" stroke-width="2" stroke-miterlimit="10"/>
<path d="M888.533 803.238L891.337 821.384L626.897 862.245L616.039 845.343L888.533 803.238Z" fill="#404040" fill-opacity="0.4" stroke="#404040" stroke-opacity="0.4" stroke-width="2" stroke-miterlimit="10"/>
<path d="M693.905 950.769L856.845 826.714L885.595 822.271L703.07 963.491L693.905 950.769Z" fill="#404040" fill-opacity="0.4" stroke="#404040" stroke-opacity="0.4" stroke-width="2" stroke-miterlimit="10"/>
<path d="M647.669 889.779L698.319 851.209L727.07 846.766L656.384 901.467L647.669 889.779Z" fill="#404040" fill-opacity="0.4" stroke="#404040" stroke-opacity="0.4" stroke-width="2" stroke-miterlimit="10"/>
<path d="M587.815 501.482C565.719 498.829 508.038 491.891 445.255 483.884C454.526 441.489 471.524 413.025 494.286 407.592C495.204 407.334 496.136 407.161 497.071 407.016C527.721 402.28 561.128 439.242 586.985 499.491C587.26 500.145 587.536 500.8 587.815 501.482Z" fill="#D9D9D9" fill-opacity="0.4" stroke="#404040" stroke-opacity="0.4" stroke-width="3" stroke-miterlimit="10"/>
<path d="M437.302 578.591L435.837 578.875C412.055 583.537 403.587 613.092 421.197 629.735C428.539 636.671 435.871 643.725 443.139 650.933C448.781 656.448 454.347 662.033 459.894 667.679L459.922 667.674L459.992 667.751C513.842 722.6 565.532 783.387 611.146 841.106C611.578 841.649 612.01 842.192 612.414 842.739C613.776 844.415 615.082 846.101 616.383 847.758L627.604 862.136C629.383 864.445 631.158 866.725 632.938 869.034C638.197 875.827 643.329 882.553 648.364 889.207C651.317 893.105 654.238 896.979 657.127 900.829C670.18 918.234 682.491 934.969 693.875 950.774C697.012 955.108 700.047 959.342 703.04 963.496C703.898 964.727 704.78 965.927 705.606 967.134L717.45 983.855C728.116 998.957 737.654 1012.78 745.953 1024.97C769.58 1059.7 783.133 1081.09 783.133 1081.09C783.133 1081.09 797.578 1165.37 622.838 1190.51C514.352 1206.11 452.287 1187.72 420.814 1171.53C420.814 1171.53 420.785 1171.54 420.752 1171.51C401.544 1161.62 393.755 1152.55 393.755 1152.55C393.755 1152.55 386.033 1138.27 372.819 1114.56C326.115 1030.62 210.944 828.423 127.912 722.808C97.3397 683.899 47.612 665.311 -1.00685 674.565L-136.434 700.31C-148.815 702.659 -161.009 705.849 -172.957 709.873L-423.628 794.097C-423.628 794.097 -458.451 802.643 -465.156 772.587C-471.746 743.094 -446.223 728.844 -446.223 728.844C-446.223 728.844 -397.116 715.421 -287.746 628.325C-178.375 541.229 -219.636 435.024 -155.452 292.03C-91.2688 149.036 17.3242 189.737 17.3242 189.737L39.7448 202.007C26.2206 194.894 11.0193 191.582 -6.07843 193.469C-131.344 207.193 -113.022 459.164 -105.756 504.868C-98.4909 550.572 15.3464 575.424 15.3464 575.424C15.3464 575.424 83.548 604.977 202.299 582.534C321.046 560.063 300.785 517.993 300.785 517.993L183.902 463.1C159.58 451.675 142.281 429.15 137.698 402.685C133.698 379.614 127.309 349.539 117.567 319.372C123.485 336.253 129.946 355.895 131.269 364.836C133.815 382.064 150.844 434.968 241.862 454.551C273.54 461.355 363.674 473.526 445.226 483.888C508.008 491.896 565.69 498.833 587.785 501.487L587.842 501.478C593.933 502.191 597.305 502.599 597.305 502.599C597.305 502.599 701.976 515.282 710.52 531.874L711.424 537.163C708.672 548.097 673.808 546.981 673.808 546.981L606.796 552.749L605.937 552.824L538.841 558.605L437.274 578.595L437.302 578.591Z" stroke="#404040" stroke-opacity="0.4" stroke-width="3" stroke-miterlimit="10"/>
<path d="M827.778 606.479C836.252 676.73 832.629 730.126 826.738 766.395C823.516 786.315 812.837 804.193 797.361 817.326L615.926 845.361L627.52 862.149L616.298 847.771C614.997 846.114 613.692 844.429 612.33 842.752C611.926 842.205 611.493 841.662 611.061 841.119C619.366 822.156 625.364 798.034 628.644 770.413C633.436 730.22 632.486 682.553 624.709 632.225C621.743 613.03 617.949 594.485 613.459 576.889L697.569 567.173C707.635 565.995 714.666 556.635 712.949 546.653L711.34 537.176L710.435 531.887C701.891 515.295 597.221 502.612 597.221 502.612C597.221 502.612 593.849 502.205 587.758 501.491C587.45 500.813 587.175 500.159 586.871 499.509C560.575 441.301 526.361 405.132 494.172 407.61C493.134 407.654 492.109 407.783 491.088 407.941L666.994 380.76C702.918 375.209 738.393 390.049 757.264 418.428C784.108 458.755 817.818 523.8 827.778 606.479Z" fill="#404040" fill-opacity="0.4"/>
<path d="M623.576 632.4C631.352 682.728 632.756 730.325 628.757 770.395C625.934 798.904 620.373 823.597 612.443 842.734C612.039 842.187 611.607 841.644 611.175 841.102C565.561 783.382 513.871 722.596 460.021 667.746C460.021 667.746 455.168 641.788 465.296 619.408C475.457 597.052 542.953 585.026 542.953 585.026L612.487 576.982C616.867 594.623 620.605 613.177 623.576 632.4Z" fill="#D9D9D9" fill-opacity="0.4" stroke="#404040" stroke-opacity="0.4" stroke-width="3" stroke-miterlimit="10"/>
<path d="M274.287 556.17L728.791 1157.19L700.122 1173.81L250.975 571.762L274.287 556.17Z" fill="#D9D9D9" fill-opacity="0.4" stroke="#404040" stroke-opacity="0.4" stroke-width="3" stroke-miterlimit="10"/>
<path d="M88.9999 783.5L222.91 931.404L208.875 933.573C208.875 933.573 74.2935 822.192 -9.57147 796.482C-93.4364 770.772 -65.0001 796.482 -65.0001 796.482L-65.0001 707L46.4999 750L88.9999 783.5Z" fill="#404040" fill-opacity="0.4"/>
<path d="M1223.73 826.865C1228.6 867.191 1229.47 901.952 1228.19 931.092C1227.14 955.089 1221.73 978.685 1212.37 1000.8L1212.14 1001.36L1027.45 946.318C1027.47 945.88 1027.45 945.418 1027.47 944.979C1027.83 916.125 1025.65 884.906 1020.66 852.583C1012.79 801.66 999.061 755.474 982.094 718.381C955.905 661.057 921.987 625.481 890.062 627.976C889.052 628.016 888.027 628.145 887.006 628.303L1062.94 601.118C1098.84 595.571 1134.34 610.407 1153.18 638.79C1180.05 679.113 1213.76 744.158 1223.72 826.837L1223.73 826.865Z" fill="#404040" fill-opacity="0.4"/>
<path d="M1027.47 945.008C1027.46 945.446 1027.47 945.908 1027.45 946.346L1026.73 946.544L1027.47 945.008Z" fill="#404040" fill-opacity="0.4"/>
<path d="M1292.07 1025.47L751.041 1193.72C702.044 1212.18 651.478 1226.12 599.962 1235.42L-68.1013 1355.77L-126.724 1297.65L-203.93 1221.1L-140.372 1209.33L337.323 1121L372.012 1114.6C385.227 1138.31 392.949 1152.59 392.949 1152.59C392.949 1152.59 400.738 1161.66 419.946 1171.55C419.979 1171.58 420.007 1171.57 420.007 1171.57C451.48 1187.76 513.545 1206.15 622.031 1190.55C796.772 1165.41 782.327 1081.13 782.327 1081.13C782.327 1081.13 768.773 1059.74 745.147 1025.01L867.206 990.907L1025.89 946.559L1026.61 946.36L1211.3 1001.4L1239.51 1009.82L1292.07 1025.47Z" fill="#404040" fill-opacity="0.4"/>
<path d="M117.596 319.367C117.596 319.367 137.802 425.894 156.154 441.899C174.536 457.899 300.814 517.989 300.814 517.989C300.814 517.989 313.418 551.836 243.362 572.473C173.307 593.111 90.2204 590.098 90.2204 590.098C90.2204 590.098 -28.5464 572.046 -57.3641 550.691C-86.1775 529.364 -104.65 527.051 -107.395 491.999C-110.145 456.92 -109.043 341.933 -101.081 311.731C-93.1198 281.528 -75.9101 204.463 -18.9453 195.864C38.0151 187.237 97.4694 236.082 117.601 319.396L117.596 319.367Z" fill="#404040" fill-opacity="0.4"/>
<path d="M206.777 462.527C206.777 462.527 202.743 464.601 195.787 467.679C181.03 474.198 153.093 485.221 122.834 490.419C94.1576 495.344 63.8565 493.697 45.9013 491.914C30.7449 490.395 16.579 482.887 7.67349 470.532C3.97941 465.413 0.980563 459.344 -0.0840662 452.454C-3.73798 428.807 17.4146 426.671 17.4146 426.671C17.4146 426.671 65.9162 434.882 110.427 427.221C154.909 419.563 194.341 399.332 194.341 399.332L199.355 424.83L206.781 462.555L206.777 462.527Z" fill="#404040" fill-opacity="0.4" stroke="#404040" stroke-opacity="0.4" stroke-width="2" stroke-miterlimit="10"/>
<path d="M206.778 462.527L216.93 536.873C216.93 536.873 204.571 576 109.279 571.593C13.9873 567.186 -15.9223 520.917 -15.9223 520.917C-32.4112 503.26 -43.917 480.652 -47.882 454.992C-58.3749 387.085 -10.7151 322.588 57.2795 312.663C118.857 303.67 176.623 341.396 194.362 399.271C194.362 399.271 154.929 419.502 110.447 427.16C65.965 434.817 17.435 426.61 17.435 426.61C17.435 426.61 -3.71755 428.746 -0.063642 452.393C1.00099 459.283 3.99984 465.352 7.69392 470.471C16.6278 482.822 30.7652 490.334 45.9217 491.853C63.8769 493.636 94.1824 495.311 122.854 490.358C153.114 485.16 181.051 474.137 195.807 467.618C202.763 464.54 206.797 462.465 206.797 462.465L206.778 462.527Z" fill="#D9D9D9" fill-opacity="0.4" stroke="#404040" stroke-opacity="0.4" stroke-width="2" stroke-linecap="round" stroke-linejoin="round"/>
<path d="M871.748 989.479L1024.58 946.761L1025.31 946.562L1210 1001.6L1238.21 1010.02L1290.77 1025.67" stroke="#D9D9D9" stroke-opacity="0.4" stroke-width="3" stroke-linejoin="round"/>
<path d="M1036.25 603.122C1072.15 597.576 1107.65 612.411 1126.49 640.795C1153.36 681.118 1187.07 746.163 1197.03 828.842C1201.9 869.168 1202.77 903.928 1201.5 933.069C1201.23 939.061 1200.7 945.036 1199.91 950.965" stroke="#D9D9D9" stroke-opacity="0.4" stroke-linecap="round" stroke-linejoin="round"/>
<path d="M1000.87 608.59C1036.76 603.044 1072.26 617.879 1091.11 646.262C1117.98 686.585 1151.69 751.63 1161.65 834.309C1166.52 874.636 1167.39 909.396 1166.11 938.536C1165.85 944.528 1165.32 950.503 1164.52 956.432" stroke="#D9D9D9" stroke-opacity="0.4" stroke-linecap="round" stroke-linejoin="round"/>
<path d="M956.539 608.617C992.435 603.071 1027.94 617.906 1046.78 646.289C1073.65 686.612 1107.36 751.657 1117.32 834.336C1122.19 874.663 1123.06 909.423 1121.79 938.563C1121.52 944.555 1120.99 950.53 1120.2 956.459" stroke="#D9D9D9" stroke-opacity="0.4" stroke-linecap="round" stroke-linejoin="round"/>
<path d="M632.443 381.86C668.339 376.314 703.843 391.149 722.686 419.533C749.557 459.855 783.268 524.9 793.227 607.579C798.094 647.906 798.965 682.666 797.691 711.806C797.427 717.798 796.898 723.773 796.102 729.702" stroke="#D9D9D9" stroke-opacity="0.4" stroke-linecap="round" stroke-linejoin="round"/>
<path d="M597.059 387.328C632.954 381.781 668.458 396.617 687.301 425C714.172 465.323 747.883 530.368 757.842 613.047C762.709 653.373 763.58 688.134 762.306 717.274C762.042 723.266 761.514 729.241 760.717 735.17" stroke="#D9D9D9" stroke-opacity="0.4" stroke-linecap="round" stroke-linejoin="round"/>
<path d="M552.732 387.355C588.628 381.808 624.132 396.644 642.975 425.027C669.846 465.35 703.557 530.395 713.516 613.074C718.383 653.4 719.255 688.161 717.98 717.301C717.716 723.293 717.188 729.268 716.391 735.197" stroke="#D9D9D9" stroke-opacity="0.4" stroke-linecap="round" stroke-linejoin="round"/>
<path d="M634.291 1188.92L669.347 1183.38L214.877 582.391L185.145 586.869L634.291 1188.92Z" fill="#D9D9D9" fill-opacity="0.4" stroke="#404040" stroke-opacity="0.4" stroke-width="3" stroke-miterlimit="10"/>
<path d="M531.396 746.016C536.35 753.466 542.153 760.204 547.597 767.259C551.7 772.577 555.186 777.67 559.868 782.23C572.35 769.444 573.853 707.405 562.594 634.537C558.852 610.323 554.11 587.715 548.878 567.941C531.517 570.942 514.169 574.029 496.731 576.724C497.737 596.948 500.034 619.702 503.732 643.632C509.712 682.335 518.202 716.992 527.219 742.278C528.836 743.16 530.274 744.389 531.364 745.992L531.396 746.016Z" fill="#404040" fill-opacity="0.4"/>
<path d="M503.759 634.338L506.563 652.484L461.711 659.415L457.529 641.481L503.759 634.338Z" fill="#404040" fill-opacity="0.4" stroke="#404040" stroke-opacity="0.4" stroke-width="2" stroke-miterlimit="10"/>
<path d="M47.5365 491.777L82.0631 430.965" stroke="#D9D9D9" stroke-opacity="0.4" stroke-width="5" stroke-miterlimit="10"/>
<path d="M75.5546 494.241L113.988 426.584" stroke="#D9D9D9" stroke-opacity="0.4" stroke-width="3" stroke-miterlimit="10"/>
<path d="M78.9691 496.617L69.4957 496.368L71.8638 491.967L78.9691 496.617Z" fill="#D9D9D9" fill-opacity="0.4"/>
<path d="M79.2785 496.366L78.969 496.617L73.6205 493.379L74.3271 493.066L79.2785 496.366Z" fill="#D9D9D9" fill-opacity="0.4"/>
<path d="M110.183 424.326L122.041 421.971L117.292 429.382L110.061 424.664L110.183 424.326Z" fill="#D9D9D9" fill-opacity="0.4"/>
<path d="M53.7053 495.44C53.7053 495.44 40.1044 494.406 37.641 493.306L41.3479 488.176L53.9646 495.052L53.7053 495.44Z" fill="#D9D9D9" fill-opacity="0.4"/>
<path d="M75.7932 427.405C75.7932 427.405 89.2558 426.979 93.0204 426.543L88.0438 434.918L74.9413 428.843L75.7932 427.405Z" fill="#D9D9D9" fill-opacity="0.4"/>
</g>
<defs>
<clipPath id="clip0_538_1218">
<rect width="2336.61" height="1186.48" fill="white" transform="translate(-1175 357.282) rotate(-8.78384)"/>
</clipPath>
</defs>
</svg>
