<svg width="63" height="59" viewBox="0 0 63 59" fill="none" xmlns="http://www.w3.org/2000/svg">
<g clip-path="url(#clip0_2511_6300)">
<path d="M44.2543 58.1538H18.1881C11.574 58.1538 6.19336 52.8091 6.19336 46.2392V38.87C6.19336 32.3001 11.574 26.9554 18.1881 26.9554H44.2572C50.8714 26.9554 56.252 32.3001 56.252 38.87V46.2392C56.252 52.8091 50.8714 58.1538 44.2572 58.1538H44.2543ZM18.1881 29.5999C13.0412 29.5999 8.85558 33.7575 8.85558 38.87V46.2392C8.85558 51.3517 13.0412 55.5094 18.1881 55.5094H44.2572C49.4042 55.5094 53.5898 51.3517 53.5898 46.2392V38.87C53.5898 33.7575 49.4042 29.5999 44.2572 29.5999H18.1881Z" fill="#7970FF"/>
<path d="M19.8555 37.3862V42.393C19.8555 43.1784 20.4965 43.8151 21.2872 43.8151C22.0778 43.8151 22.7188 43.1784 22.7188 42.393V37.3862C22.7188 36.6008 22.0778 35.9641 21.2872 35.9641C20.4965 35.9641 19.8555 36.6008 19.8555 37.3862Z" fill="#7970FF"/>
<path d="M39.7246 37.3862V42.393C39.7246 43.1784 40.3656 43.8151 41.1563 43.8151C41.947 43.8151 42.588 43.1784 42.588 42.393V37.3862C42.588 36.6008 41.947 35.9641 41.1563 35.9641C40.3656 35.9641 39.7246 36.6008 39.7246 37.3862Z" fill="#7970FF"/>
<path d="M30.7247 43.3798L33.904 46.5379C34.1835 46.8155 34.6368 46.8155 34.9163 46.5379C35.1959 46.2602 35.1959 45.81 34.9163 45.5323L31.737 42.3742C31.4575 42.0965 31.0042 42.0965 30.7247 42.3742C30.4451 42.6519 30.4451 43.1021 30.7247 43.3798Z" fill="#7970FF"/>
<path d="M30.7187 42.3738L27.5394 45.5319C27.2598 45.8096 27.2598 46.2598 27.5394 46.5375C27.8189 46.8151 28.2722 46.8151 28.5517 46.5375L31.731 43.3794C32.0106 43.1017 32.0106 42.6515 31.731 42.3738C31.4515 42.0962 30.9982 42.0962 30.7187 42.3738Z" fill="#7970FF"/>
<path d="M55.7607 43.2305C55.5359 43.2305 55.3111 43.1923 55.0952 43.1129C54.3941 42.8514 53.9416 42.2021 53.9149 41.4146L53.8291 38.6968C53.8291 33.6665 49.7086 29.5735 44.6445 29.5735H43.6328L43.337 28.6068C43.0915 27.7312 42.7425 26.4119 42.4733 25.1073C42.1124 23.3679 43.1743 16.2779 43.8399 12.2055C45.6265 1.25758 46.1827 0.769826 46.514 0.476001C46.9458 0.0940285 47.4132 -0.0558223 47.9013 0.0235105C48.7177 0.15867 49.0401 0.722814 49.7412 1.95982C50.2766 2.90006 51.1699 4.47496 52.7761 6.93427L53.3381 7.79224C57.225 13.7128 63.7267 23.6235 62.931 32.7262C62.5169 37.4686 59.7541 40.1659 58.1035 41.776C57.8254 42.0493 57.5829 42.2844 57.3877 42.4959C56.941 42.9749 56.3464 43.2364 55.7607 43.2364V43.2305ZM56.4914 38.6733L56.521 39.6106C58.0503 38.1062 59.97 36.0435 60.2806 32.4941C60.9964 24.3023 54.8083 14.8705 51.1107 9.23492L50.5457 8.37402C49.3714 6.57581 48.5668 5.2389 48.0018 4.26928C47.567 6.30843 46.9606 9.55519 46.3749 13.2045C45.2805 20.0154 44.9373 23.8733 45.0823 24.5726C45.2538 25.4071 45.4639 26.2533 45.6532 26.9731C51.7201 27.4903 56.4825 32.5411 56.4914 38.6762V38.6733Z" fill="#7970FF"/>
<path d="M7.23747 43.2304C6.65179 43.2304 6.05722 42.9689 5.61056 42.49C5.41237 42.2784 5.17277 42.0434 4.89472 41.7701C3.24414 40.16 0.481347 37.4626 0.0672238 32.7203C-0.731443 23.6206 5.77325 13.7098 9.6601 7.78926L10.2221 6.93129C11.8283 4.47197 12.7246 2.89707 13.26 1.95683C13.9611 0.722762 14.2835 0.158618 15.0999 0.0234588C15.588 -0.0588122 16.0553 0.0939768 16.4872 0.475949C16.8185 0.766836 17.3746 1.25752 19.1613 12.2054C19.8268 16.2779 20.8858 23.3708 20.5279 25.1073C20.2557 26.4207 19.9067 27.7341 19.6641 28.6068L19.392 29.5734H18.3804C13.2925 29.5734 9.17202 33.6664 9.17202 38.6967V38.7378L9.08624 41.4146C9.06258 42.202 8.61 42.8514 7.90599 43.1129C7.69005 43.1922 7.46524 43.2304 7.24043 43.2304H7.23747ZM12.4525 8.37103L11.8875 9.23194C8.18996 14.8675 2.00177 24.2993 2.71761 32.4911C3.02821 36.0405 4.94501 38.1032 6.47726 39.6076L6.50684 38.6703C6.51867 32.5293 11.29 27.4755 17.348 26.9672C17.5373 26.2503 17.7444 25.407 17.9189 24.5696C18.0638 23.8674 17.7207 20.0124 16.6262 13.2015C16.0376 9.54927 15.4342 6.3025 14.9993 4.26629C14.4343 5.23592 13.6298 6.57576 12.4554 8.37103H12.4525Z" fill="#7970FF"/>
</g>
<defs>
<clipPath id="clip0_2511_6300">
<rect width="63" height="58.1539" fill="white"/>
</clipPath>
</defs>
</svg>
