<svg width="1817" height="1119" viewBox="0 0 1817 1119" fill="#212121" xmlns="http://www.w3.org/2000/svg">
<g clip-path="url(#clip0_468_645)">
<path d="M419.29 0H279.53V139.76H419.29V0Z" fill="#1d1d1d"/>
<path d="M279.52 0H139.76V139.76H279.52V0Z" fill="#212121"/>
<path d="M139.76 0H0V139.76H139.76V0Z" fill="#1d1d1d"/>
<path d="M559.05 0H419.29V139.76H559.05V0Z" fill="#212121"/>
<path d="M978.35 0H838.59V139.76H978.35V0Z" fill="#1d1d1d"/>
<path d="M838.58 0H698.82V139.76H838.58V0Z" fill="#212121"/>
<path d="M698.82 0H559.06V139.76H698.82V0Z" fill="#1d1d1d"/>
<path d="M1118.11 0H978.35V139.76H1118.11V0Z" fill="#212121"/>
<path d="M1537.41 0H1397.65V139.76H1537.41V0Z" fill="#1d1d1d"/>
<path d="M1397.64 0H1257.88V139.76H1397.64V0Z" fill="#212121"/>
<path d="M1257.88 0H1118.12V139.76H1257.88V0Z" fill="#1d1d1d"/>
<path d="M1677.17 0H1537.41V139.76H1677.17V0Z" fill="#212121"/>
<path d="M1816.93 0H1677.17V139.76H1816.93V0Z" fill="#1d1d1d"/>
<path d="M1537.41 279.53H1677.17V139.77L1537.41 139.77V279.53Z" fill="#1d1d1d"/>
<path d="M1677.18 279.53H1816.94V139.77L1677.18 139.77V279.53Z" fill="#212121"/>
<path d="M1397.65 279.53H1537.41V139.77L1397.65 139.77V279.53Z" fill="#212121"/>
<path d="M978.36 279.53H1118.12V139.77L978.36 139.77V279.53Z" fill="#1d1d1d"/>
<path d="M1118.12 279.53H1257.88V139.77L1118.12 139.77V279.53Z" fill="#212121"/>
<path d="M1257.89 279.53H1397.65V139.77L1257.89 139.77V279.53Z" fill="#1d1d1d"/>
<path d="M838.59 279.53H978.35V139.77L838.59 139.77V279.53Z" fill="#212121"/>
<path d="M419.3 279.53H559.06V139.77L419.3 139.77V279.53Z" fill="#1d1d1d"/>
<path d="M559.06 279.53H698.82V139.77L559.06 139.77V279.53Z" fill="#212121"/>
<path d="M698.83 279.53H838.59V139.77L698.83 139.77V279.53Z" fill="#1d1d1d"/>
<path d="M279.53 279.53H419.29V139.77L279.53 139.77V279.53Z" fill="#212121"/>
<path d="M1.52588e-05 279.53H139.76L139.76 139.77L1.52588e-05 139.77L1.52588e-05 279.53Z" fill="#212121"/>
<path d="M139.77 279.53H279.53V139.77L139.77 139.77L139.77 279.53Z" fill="#1d1d1d"/>
<path d="M419.29 279.53H279.53V419.29H419.29V279.53Z" fill="#1d1d1d"/>
<path d="M279.52 279.53H139.76V419.29H279.52V279.53Z" fill="#212121"/>
<path d="M139.76 279.53H0V419.29H139.76V279.53Z" fill="#1d1d1d"/>
<path d="M559.05 279.53H419.29V419.29H559.05V279.53Z" fill="#212121"/>
<path d="M978.35 279.53H838.59V419.29H978.35V279.53Z" fill="#1d1d1d"/>
<path d="M838.58 279.53H698.82V419.29H838.58V279.53Z" fill="#212121"/>
<path d="M698.82 279.53H559.06V419.29H698.82V279.53Z" fill="#1d1d1d"/>
<path d="M1118.11 279.53H978.35V419.29H1118.11V279.53Z" fill="#212121"/>
<path d="M1537.41 279.53H1397.65V419.29H1537.41V279.53Z" fill="#1d1d1d"/>
<path d="M1397.64 279.53H1257.88V419.29H1397.64V279.53Z" fill="#212121"/>
<path d="M1257.88 279.53H1118.12V419.29H1257.88V279.53Z" fill="#1d1d1d"/>
<path d="M1677.17 279.53H1537.41V419.29H1677.17V279.53Z" fill="#212121"/>
<path d="M1816.93 279.53H1677.17V419.29H1816.93V279.53Z" fill="#1d1d1d"/>
<path d="M1537.41 559.06H1677.17V419.3H1537.41V559.06Z" fill="#1d1d1d"/>
<path d="M1677.18 559.06H1816.94V419.3H1677.18V559.06Z" fill="#212121"/>
<path d="M1397.65 559.06H1537.41V419.3H1397.65V559.06Z" fill="#212121"/>
<path d="M978.36 559.06H1118.12V419.3H978.36V559.06Z" fill="#1d1d1d"/>
<path d="M1118.12 559.06H1257.88V419.3H1118.12V559.06Z" fill="#212121"/>
<path d="M1257.89 559.06H1397.65V419.3H1257.89V559.06Z" fill="#1d1d1d"/>
<path d="M838.59 559.06H978.35V419.3H838.59V559.06Z" fill="#212121"/>
<path d="M419.3 559.06H559.06V419.3H419.3V559.06Z" fill="#1d1d1d"/>
<path d="M559.06 559.06H698.82V419.3H559.06V559.06Z" fill="#212121"/>
<path d="M698.83 559.06H838.59V419.3H698.83V559.06Z" fill="#1d1d1d"/>
<path d="M279.53 559.06H419.29V419.3H279.53V559.06Z" fill="#212121"/>
<path d="M1.52588e-05 559.06H139.76L139.76 419.3H1.52588e-05L1.52588e-05 559.06Z" fill="#212121"/>
<path d="M139.77 559.06H279.53V419.3H139.77L139.77 559.06Z" fill="#1d1d1d"/>
<path d="M419.29 559.06H279.53V698.82H419.29V559.06Z" fill="#1d1d1d"/>
<path d="M279.52 559.06H139.76V698.82H279.52V559.06Z" fill="#212121"/>
<path d="M139.76 559.06H0V698.82H139.76V559.06Z" fill="#1d1d1d"/>
<path d="M559.05 559.06H419.29V698.82H559.05V559.06Z" fill="#212121"/>
<path d="M978.35 559.06H838.59V698.82H978.35V559.06Z" fill="#1d1d1d"/>
<path d="M838.58 559.06H698.82V698.82H838.58V559.06Z" fill="#212121"/>
<path d="M698.82 559.06H559.06V698.82H698.82V559.06Z" fill="#1d1d1d"/>
<path d="M1118.11 559.06H978.35V698.82H1118.11V559.06Z" fill="#212121"/>
<path d="M1537.41 559.06H1397.65V698.82H1537.41V559.06Z" fill="#1d1d1d"/>
<path d="M1397.64 559.06H1257.88V698.82H1397.64V559.06Z" fill="#212121"/>
<path d="M1257.88 559.06H1118.12V698.82H1257.88V559.06Z" fill="#1d1d1d"/>
<path d="M1677.17 559.06H1537.41V698.82H1677.17V559.06Z" fill="#212121"/>
<path d="M1816.93 559.06H1677.17V698.82H1816.93V559.06Z" fill="#1d1d1d"/>
<path d="M1537.41 838.59H1677.17V698.83H1537.41V838.59Z" fill="#1d1d1d"/>
<path d="M1677.18 838.59H1816.94V698.83H1677.18V838.59Z" fill="#212121"/>
<path d="M1397.65 838.59H1537.41V698.83H1397.65V838.59Z" fill="#212121"/>
<path d="M978.36 838.59H1118.12V698.83H978.36V838.59Z" fill="#1d1d1d"/>
<path d="M1118.12 838.59H1257.88V698.83H1118.12V838.59Z" fill="#212121"/>
<path d="M1257.89 838.59H1397.65V698.83H1257.89V838.59Z" fill="#1d1d1d"/>
<path d="M838.59 838.59H978.35V698.83H838.59V838.59Z" fill="#212121"/>
<path d="M419.3 838.59H559.06V698.83H419.3V838.59Z" fill="#1d1d1d"/>
<path d="M559.06 838.59H698.82V698.83H559.06V838.59Z" fill="#212121"/>
<path d="M698.83 838.59H838.59V698.83H698.83V838.59Z" fill="#1d1d1d"/>
<path d="M279.53 838.59H419.29V698.83H279.53V838.59Z" fill="#212121"/>
<path d="M1.52588e-05 838.59H139.76L139.76 698.83H1.52588e-05L1.52588e-05 838.59Z" fill="#212121"/>
<path d="M139.77 838.59H279.53V698.83H139.77L139.77 838.59Z" fill="#1d1d1d"/>
<path d="M419.29 838.59H279.53V978.35H419.29V838.59Z" fill="#1d1d1d"/>
<path d="M279.52 838.59H139.76V978.35H279.52V838.59Z" fill="#212121"/>
<path d="M139.76 838.59H0V978.35H139.76V838.59Z" fill="#1d1d1d"/>
<path d="M559.05 838.59H419.29V978.35H559.05V838.59Z" fill="#212121"/>
<path d="M978.35 838.59H838.59V978.35H978.35V838.59Z" fill="#1d1d1d"/>
<path d="M838.58 838.59H698.82V978.35H838.58V838.59Z" fill="#212121"/>
<path d="M698.82 838.59H559.06V978.35H698.82V838.59Z" fill="#1d1d1d"/>
<path d="M1118.11 838.59H978.35V978.35H1118.11V838.59Z" fill="#212121"/>
<path d="M1537.41 838.59H1397.65V978.35H1537.41V838.59Z" fill="#1d1d1d"/>
<path d="M1397.64 838.59H1257.88V978.35H1397.64V838.59Z" fill="#212121"/>
<path d="M1257.88 838.59H1118.12V978.35H1257.88V838.59Z" fill="#1d1d1d"/>
<path d="M1677.17 838.59H1537.41V978.35H1677.17V838.59Z" fill="#212121"/>
<path d="M1816.93 838.59H1677.17V978.35H1816.93V838.59Z" fill="#1d1d1d"/>
<path d="M1537.41 1118.12H1677.17V978.36H1537.41V1118.12Z" fill="#1d1d1d"/>
<path d="M1677.18 1118.12H1816.94V978.36H1677.18V1118.12Z" fill="#212121"/>
<path d="M1397.65 1118.12H1537.41V978.36H1397.65V1118.12Z" fill="#212121"/>
<path d="M978.36 1118.12H1118.12V978.36H978.36V1118.12Z" fill="#1d1d1d"/>
<path d="M1118.12 1118.12H1257.88V978.36H1118.12V1118.12Z" fill="#212121"/>
<path d="M1257.89 1118.12H1397.65V978.36H1257.89V1118.12Z" fill="#1d1d1d"/>
<path d="M838.59 1118.12H978.35V978.36H838.59V1118.12Z" fill="#212121"/>
<path d="M419.3 1118.12H559.06V978.36H419.3V1118.12Z" fill="#1d1d1d"/>
<path d="M559.06 1118.12H698.82V978.36H559.06V1118.12Z" fill="#212121"/>
<path d="M698.83 1118.12H838.59V978.36H698.83V1118.12Z" fill="#1d1d1d"/>
<path d="M279.53 1118.12H419.29V978.36H279.53V1118.12Z" fill="#212121"/>
<path d="M1.52588e-05 1118.12H139.76L139.76 978.36H1.52588e-05L1.52588e-05 1118.12Z" fill="#212121"/>
<path d="M139.77 1118.12H279.53V978.36H139.77L139.77 1118.12Z" fill="#1d1d1d"/>
</g>
<defs>
<clipPath id="clip0_468_645">
<rect width="1816.94" height="1118.12" fill="#212121"/>
</clipPath>
</defs>
</svg>
