<svg width="44" height="28" viewBox="0 0 44 28" fill="none" xmlns="http://www.w3.org/2000/svg">
<g clip-path="url(#clip0_1383_30191)">
<path d="M43.3635 10.6624C43.324 11.097 42.9461 11.4201 42.5034 11.3806C42.2927 11.3614 42.1023 11.2611 41.9665 11.099C41.8308 10.9369 41.767 10.7313 41.7862 10.5206C41.8754 9.52983 41.1207 8.32129 40.139 7.88063C39.2932 7.50176 38.3885 7.30928 37.4495 7.30928H37.4231C36.5945 7.31232 35.5997 7.3498 34.5482 7.3883H34.536C31.9113 7.48757 28.937 7.59901 26.7732 7.26167C25.5059 7.06413 24.2153 6.21724 22.9379 4.7443C22.6269 4.38569 22.324 3.99669 22.0383 3.58946L21.9137 3.41218L21.7891 3.58946C21.5034 3.99669 21.2006 4.38569 20.8896 4.7443C19.6121 6.21724 18.3215 7.06413 17.0542 7.26167C14.8914 7.59901 11.9162 7.48758 9.29144 7.38931H9.27928C8.22675 7.3498 7.23297 7.31232 6.40432 7.30928C5.45714 7.30928 4.54238 7.4977 3.6884 7.88063C2.70678 8.32129 1.95207 9.52983 2.04122 10.5206C2.06047 10.7313 1.99665 10.9369 1.8609 11.099C1.72516 11.2611 1.53471 11.3614 1.324 11.3806C0.881308 11.4201 0.50345 11.097 0.463942 10.6624C0.313001 8.97875 1.42024 7.16239 3.04006 6.43605C4.09158 5.965 5.21604 5.72592 6.38203 5.72592H6.40938C7.26741 5.72896 8.2774 5.76645 9.35121 5.80697C11.905 5.90219 14.7982 6.01058 16.8101 5.69756C18.2425 5.47469 19.6263 3.86196 20.3233 2.92086L20.381 2.84286L20.3294 2.74865C20.0032 2.1155 19.7479 1.61203 19.5706 1.25241C19.4592 1.02752 19.3781 0.858342 19.3234 0.736779C19.1603 0.375129 19.1887 0.168472 19.4166 0.0469088C19.5473 -0.0240029 19.7175 -0.00779454 19.838 0.0854037L19.8502 0.0935079C19.9353 0.148211 20.2919 0.337647 21.7152 1.0032C21.7385 1.01333 21.7608 1.02752 21.7841 1.04474L21.8266 1.07817L21.8813 1.07614C21.9026 1.07513 21.9239 1.07513 21.9451 1.07614L21.9998 1.07817L22.0434 1.04474C22.0667 1.02752 22.089 1.01333 22.1123 1.0032C23.5265 0.342712 23.8861 0.15125 23.9752 0.095534L23.9904 0.0843907C24.112 -0.0138727 24.2791 -0.028055 24.4199 0.0509609C24.6418 0.170498 24.6671 0.375129 24.504 0.736779C24.4483 0.859355 24.3683 1.02853 24.2568 1.25241C24.0806 1.61001 23.8253 2.11348 23.4981 2.74865L23.4474 2.84488L23.5042 2.92086C24.2011 3.86196 25.5849 5.47469 27.0173 5.69756C29.0302 6.01058 31.9234 5.90219 34.4813 5.80697C35.55 5.76645 36.56 5.72896 37.4191 5.72592H37.4454C38.0289 5.72592 38.6013 5.78569 39.1595 5.90422C39.7176 6.02274 40.2616 6.20002 40.7874 6.43605C42.4062 7.16239 43.5144 8.97875 43.3635 10.6624Z" fill="black"/>
<path d="M38.4763 11.9384C38.4054 12.3689 37.9961 12.6617 37.5656 12.5908C36.9314 12.4864 35.964 12.4479 34.955 12.8582C34.5984 13.0031 32.8043 13.8044 32.5085 15.3067C32.47 15.5062 32.4609 15.6248 32.4589 15.6774V15.6947L32.4609 15.7109C32.5106 15.9712 32.467 16.1941 32.3282 16.3916C31.9058 16.9913 31.2109 16.7462 30.4754 16.418L30.4622 16.4129C30.4116 16.3896 30.366 16.3693 30.3305 16.3541C29.6498 16.0705 28.7877 16.3298 28.0958 16.5385C26.5276 17.0116 25.5278 18.5676 24.9301 19.4986C23.5818 21.5986 22.8129 24.1696 22.7055 26.9301V26.9443C22.7045 26.9565 22.7025 26.9676 22.7014 26.9798L22.6994 26.996C22.6994 27.0051 22.6984 27.0142 22.6964 27.0223C22.6964 27.0345 22.6923 27.0466 22.6903 27.0598L22.6873 27.0709C22.6852 27.08 22.6832 27.0902 22.6812 27.0993C22.6781 27.1104 22.6751 27.1206 22.669 27.1398C22.666 27.151 22.6619 27.1621 22.6589 27.1732C22.6548 27.1834 22.6508 27.1925 22.6447 27.2087C22.6397 27.2198 22.6346 27.232 22.6295 27.2442C22.6245 27.2533 22.6194 27.2634 22.6123 27.2756C22.6062 27.2877 22.6001 27.2999 22.5931 27.31C22.588 27.3191 22.5819 27.3282 22.5738 27.3404C22.5667 27.3515 22.5596 27.3627 22.5505 27.3738C22.5454 27.3819 22.5394 27.389 22.5292 27.4012C22.5211 27.4113 22.513 27.4214 22.5039 27.4306C22.4958 27.4397 22.4877 27.4488 22.4786 27.4579C22.4705 27.467 22.4614 27.4761 22.4512 27.4842C22.4421 27.4934 22.433 27.5015 22.4229 27.5096C22.4137 27.5177 22.4046 27.5248 22.3945 27.5329C22.3844 27.54 22.3742 27.5481 22.3631 27.5552C22.353 27.5622 22.3428 27.5693 22.3327 27.5754C22.3216 27.5825 22.3104 27.5886 22.2993 27.5947C22.2891 27.6007 22.278 27.6068 22.2658 27.6129C22.2547 27.618 22.2436 27.623 22.2324 27.6281C22.2203 27.6332 22.2081 27.6382 22.1959 27.6433C22.1848 27.6473 22.1737 27.6514 22.1625 27.6554C22.1483 27.6595 22.1352 27.6635 22.122 27.6676C22.1109 27.6706 22.0997 27.6727 22.0896 27.6757C22.0744 27.6787 22.0592 27.6818 22.045 27.6838C22.0339 27.6858 22.0237 27.6879 22.0116 27.6889C21.9964 27.6909 21.9812 27.6919 21.966 27.6929L21.9143 27.696L21.8627 27.6929C21.8475 27.6919 21.8313 27.6909 21.8161 27.6889C21.8059 27.6879 21.7948 27.6858 21.7847 27.6838C21.7695 27.6818 21.7543 27.6787 21.7401 27.6757C21.7289 27.6727 21.7178 27.6706 21.7077 27.6676C21.6935 27.6635 21.6793 27.6595 21.6661 27.6554C21.655 27.6514 21.6438 27.6473 21.6337 27.6433C21.6205 27.6392 21.6084 27.6342 21.5952 27.6281C21.5841 27.623 21.5729 27.618 21.5638 27.6129C21.5517 27.6068 21.5395 27.6007 21.5284 27.5947C21.5172 27.5886 21.5071 27.5825 21.497 27.5764C21.4858 27.5693 21.4747 27.5622 21.4645 27.5541C21.4544 27.5481 21.4443 27.541 21.4342 27.5329C21.424 27.5248 21.4149 27.5167 21.4038 27.5086C21.3957 27.5005 21.3865 27.4934 21.3774 27.4853C21.3673 27.4761 21.3582 27.467 21.347 27.4549C21.3389 27.4468 21.3318 27.4397 21.3247 27.4316C21.3156 27.4214 21.3075 27.4113 21.2984 27.4002C21.2913 27.391 21.2842 27.3829 21.2771 27.3738C21.269 27.3627 21.2619 27.3505 21.2508 27.3353C21.2457 27.3272 21.2407 27.3191 21.2356 27.311C21.2285 27.2999 21.2224 27.2877 21.2133 27.2705C21.2093 27.2624 21.2042 27.2533 21.1991 27.2442C21.1941 27.233 21.19 27.2219 21.1819 27.2016C21.1779 27.1925 21.1738 27.1834 21.1698 27.1732C21.1667 27.1631 21.1637 27.152 21.1576 27.1337C21.1535 27.1216 21.1505 27.1104 21.1475 27.0993C21.1454 27.0902 21.1434 27.08 21.1414 27.0709L21.1383 27.0598C21.1363 27.0466 21.1333 27.0345 21.1323 27.0223C21.1302 27.0142 21.1292 27.0051 21.1292 26.996L21.1272 26.9798C21.1262 26.9676 21.1242 26.9565 21.1242 26.9433V26.9342C21.0158 24.1696 20.2469 21.5986 18.8975 19.4976C18.3009 18.5676 17.301 17.0116 15.7328 16.5385C15.2588 16.3957 14.7067 16.2295 14.186 16.2295C13.9459 16.2295 13.7129 16.265 13.4981 16.3552C13.4637 16.3693 13.4211 16.3886 13.3725 16.4099L13.3533 16.418C12.6178 16.7462 11.9219 16.9913 11.5014 16.3926C11.3606 16.1931 11.3171 15.9692 11.3667 15.7099L11.3708 15.6926V15.6754C11.3677 15.6227 11.3586 15.5052 11.3201 15.3067C11.0243 13.8044 9.23024 13.0031 8.87366 12.8582C7.8657 12.4479 6.89725 12.4864 6.26309 12.5908C5.83155 12.6627 5.4233 12.3689 5.35239 11.9384C5.28147 11.5078 5.57424 11.0996 6.00579 11.0287C7.20419 10.8311 8.4026 10.9567 9.47033 11.3913C10.1136 11.6537 12.2541 12.6688 12.8133 14.7414L12.8559 14.9015L13.0119 14.8447C14.1779 14.4162 15.3884 14.7809 16.1897 15.022C18.3181 15.6633 19.5621 17.6012 20.2307 18.6426C20.8537 19.613 21.3724 20.6858 21.7705 21.8326L21.9143 22.2449L22.0582 21.8326C22.4563 20.6868 22.975 19.613 23.598 18.6426C24.2666 17.6012 25.5106 15.6633 27.6389 15.022C28.4402 14.7809 29.6508 14.4162 30.8168 14.8447L30.9728 14.9015L31.0153 14.7414C31.5745 12.6688 33.7151 11.6537 34.3573 11.3913C35.0968 11.0905 35.8991 10.9375 36.7207 10.9375C37.0854 10.9375 37.4541 10.9679 37.8229 11.0287C38.2544 11.0996 38.5472 11.5078 38.4763 11.9384Z" fill="black"/>
<path d="M22.8512 27.0113C22.8502 27.0224 22.8492 27.0346 22.8472 27.0447C22.8441 27.0619 22.8411 27.0781 22.838 27.0944C22.838 27.0964 22.837 27.0994 22.836 27.1014L22.987 27.1207C22.991 27.1035 22.994 27.0863 22.9971 27.068C22.9991 27.0549 23.0011 27.0407 23.0021 27.0265L22.8512 27.0113ZM22.8147 27.1825C22.8107 27.1967 22.8066 27.2109 22.8016 27.225C22.7965 27.2392 22.7904 27.2524 22.7843 27.2666C22.7783 27.2808 22.7732 27.2949 22.7661 27.3091C22.76 27.3223 22.7529 27.3344 22.7469 27.3466C22.7388 27.3608 22.7317 27.375 22.7236 27.3891C22.7165 27.4013 22.7084 27.4124 22.7003 27.4236C22.6922 27.4378 22.683 27.4509 22.6729 27.4641C22.6648 27.4753 22.6557 27.4864 22.6476 27.4965C22.6375 27.5087 22.6273 27.5208 22.6172 27.533C22.6071 27.5431 22.5969 27.5543 22.5868 27.5644C22.5767 27.5755 22.5655 27.5857 22.5544 27.5958C22.5443 27.6059 22.5321 27.6161 22.521 27.6262C22.5098 27.6353 22.4987 27.6444 22.4865 27.6535C22.4744 27.6627 22.4622 27.6718 22.449 27.6799C22.4379 27.689 22.4257 27.6971 22.4136 27.7042C22.4004 27.7123 22.3872 27.7204 22.3731 27.7275C22.3609 27.7346 22.3477 27.7417 22.3346 27.7488C22.3204 27.7549 22.3072 27.7619 22.293 27.768C22.2788 27.7741 22.2647 27.7802 22.2505 27.7852C22.2363 27.7903 22.2231 27.7954 22.21 27.7994C22.1938 27.8055 22.1775 27.8096 22.1613 27.8146C22.1482 27.8177 22.135 27.8207 22.1218 27.8237C22.1046 27.8278 22.0874 27.8308 22.0692 27.8339C22.056 27.8359 22.0438 27.8379 22.0307 27.8399C22.0124 27.842 21.9942 27.844 21.9749 27.845C21.9668 27.845 21.9587 27.847 21.9506 27.847C21.9395 27.848 21.9273 27.848 21.9162 27.848H21.9121C21.901 27.848 21.8888 27.848 21.8777 27.847C21.8696 27.847 21.8615 27.845 21.8534 27.845C21.8341 27.844 21.8159 27.842 21.7977 27.8399C21.7845 27.8379 21.7723 27.8359 21.7592 27.8339C21.7419 27.8308 21.7237 27.8278 21.7055 27.8237C21.6933 27.8207 21.6802 27.8177 21.668 27.8146C21.6508 27.8096 21.6346 27.8045 21.6184 27.7994C21.6052 27.7954 21.592 27.7903 21.5788 27.7852C21.5637 27.7802 21.5485 27.7741 21.5343 27.767C21.5211 27.7609 21.5079 27.7559 21.4948 27.7488C21.4816 27.7417 21.4674 27.7346 21.4542 27.7275C21.4411 27.7204 21.4279 27.7123 21.4158 27.7052C21.4026 27.6971 21.3904 27.688 21.3773 27.6799C21.3661 27.6708 21.354 27.6627 21.3418 27.6535C21.3296 27.6444 21.3185 27.6353 21.3063 27.6252C21.2952 27.6161 21.2841 27.6059 21.2739 27.5968C21.2628 27.5857 21.2516 27.5745 21.2405 27.5634C21.2304 27.5533 21.2213 27.5431 21.2111 27.533C21.201 27.5208 21.1909 27.5087 21.1807 27.4965C21.1716 27.4854 21.1635 27.4753 21.1554 27.4641C21.1453 27.4509 21.1362 27.4368 21.127 27.4236C21.1199 27.4124 21.1118 27.4013 21.1058 27.3891C21.0966 27.375 21.0896 27.3608 21.0815 27.3466C21.0754 27.3344 21.0683 27.3223 21.0622 27.3091C21.0551 27.2949 21.049 27.2808 21.043 27.2656C21.0379 27.2524 21.0318 27.2392 21.0268 27.225C21.0217 27.2109 21.0176 27.1967 21.0136 27.1825C21.0085 27.1673 21.0035 27.1521 20.9994 27.1369C20.9964 27.1227 20.9933 27.1085 20.9903 27.0944C20.9903 27.0933 20.9903 27.0913 20.9893 27.0903L20.8434 27.1308C20.8464 27.145 20.8485 27.1602 20.8525 27.1744C20.8566 27.1906 20.8616 27.2068 20.8697 27.2311C20.8738 27.2463 20.8788 27.2615 20.8839 27.2767C20.889 27.2909 20.8951 27.3051 20.9042 27.3263C20.9113 27.3436 20.9173 27.3598 20.9254 27.375C20.9315 27.3881 20.9386 27.4013 20.9477 27.4175C20.9558 27.4347 20.965 27.4509 20.9751 27.4682C20.9822 27.4793 20.9903 27.4915 21.0004 27.5077C21.0105 27.5229 21.0217 27.5391 21.0328 27.5543C21.043 27.5674 21.0531 27.5796 21.0622 27.5918C21.0734 27.6059 21.0855 27.6201 21.0987 27.6343C21.1078 27.6454 21.1189 27.6566 21.1321 27.6698C21.1443 27.6829 21.1574 27.6961 21.1706 27.7082C21.1828 27.7194 21.1959 27.7305 21.2081 27.7407C21.2223 27.7528 21.2364 27.764 21.2496 27.7741C21.2628 27.7852 21.277 27.7944 21.2911 27.8045C21.3053 27.8146 21.3205 27.8247 21.3357 27.8339C21.3499 27.843 21.3641 27.8511 21.3793 27.8592C21.3955 27.8683 21.4107 27.8764 21.4279 27.8855C21.4431 27.8926 21.4573 27.8997 21.4725 27.9058C21.4897 27.9139 21.5069 27.921 21.5252 27.9281C21.5404 27.9331 21.5545 27.9392 21.5707 27.9443C21.59 27.9504 21.6082 27.9554 21.6285 27.9615C21.6427 27.9645 21.6569 27.9686 21.6731 27.9727C21.6933 27.9767 21.7136 27.9808 21.7349 27.9838C21.749 27.9868 21.7642 27.9889 21.7784 27.9909C21.8007 27.9929 21.822 27.9949 21.8473 27.997C21.8554 27.998 21.8635 27.999 21.8716 27.999C21.8848 27.999 21.898 28 21.9172 28C21.9304 28 21.9435 27.999 21.9557 27.999C21.9648 27.999 21.9729 27.999 21.9851 27.997C22.0063 27.9949 22.0276 27.9929 22.0489 27.9909C22.0641 27.9889 22.0783 27.9868 22.0945 27.9838C22.1147 27.9808 22.135 27.9767 22.1553 27.9727C22.1705 27.9686 22.1857 27.9645 22.2019 27.9605C22.2201 27.9554 22.2383 27.9504 22.2576 27.9443C22.2738 27.9382 22.289 27.9331 22.3042 27.9271C22.3214 27.921 22.3386 27.9139 22.3548 27.9068C22.371 27.8997 22.3862 27.8926 22.4014 27.8845C22.4176 27.8764 22.4328 27.8683 22.448 27.8602C22.4632 27.8511 22.4784 27.843 22.4936 27.8329C22.5078 27.8247 22.522 27.8146 22.5362 27.8055C22.5503 27.7954 22.5645 27.7852 22.5787 27.7741C22.5929 27.764 22.6061 27.7528 22.6192 27.7417C22.6324 27.7305 22.6456 27.7194 22.6577 27.7072C22.6709 27.6961 22.683 27.6829 22.6952 27.6708C22.7074 27.6586 22.7185 27.6465 22.7307 27.6343C22.7428 27.6211 22.754 27.6069 22.7702 27.5867C22.7793 27.5755 22.7874 27.5644 22.7955 27.5543C22.8066 27.5391 22.8168 27.5239 22.8289 27.5056C22.837 27.4925 22.8451 27.4803 22.8532 27.4672C22.8634 27.4509 22.8715 27.4347 22.8816 27.4165C22.8887 27.4033 22.8968 27.3891 22.9029 27.375C22.911 27.3588 22.9181 27.3415 22.9272 27.3192C22.9333 27.3051 22.9393 27.2909 22.9444 27.2767C22.9495 27.2605 22.9545 27.2453 22.9616 27.222C22.9667 27.2058 22.9718 27.1906 22.9758 27.1734C22.9799 27.1602 22.9819 27.145 22.9849 27.1308L22.836 27.1014C22.834 27.1136 22.832 27.1247 22.8289 27.1369C22.8249 27.1521 22.8198 27.1673 22.8147 27.1825ZM20.9761 27.0022V26.9961L20.8262 27.0265C20.8272 27.0407 20.8292 27.0549 20.8312 27.068C20.8343 27.0863 20.8373 27.1035 20.8414 27.1207L20.9893 27.0903C20.9872 27.0751 20.9842 27.0609 20.9812 27.0447C20.9791 27.0316 20.9781 27.0164 20.9761 27.0022Z" fill="#231F20"/>
</g>
<defs>
<clipPath id="clip0_1383_30191">
<rect width="42.9269" height="28" fill="black" transform="translate(0.450195)"/>
</clipPath>
</defs>
</svg>
