<svg width="100%" height="100%" viewBox="0 0 1696 1825" fill="none" xmlns="http://www.w3.org/2000/svg">
<path d="M1697 698.89L299.175 -57H2V1065H1697V698.89Z" fill="#FF4545"/>
<path d="M2 1069.11L1399 1825H1696V703H2V1069.11Z" fill="#FF4545"/>
<rect width="13" height="1222" transform="matrix(0 -1 -1 0 1696 1069)" fill="white"/>
<rect width="13" height="884" transform="matrix(0 -1 -1 0 1696 1164)" fill="white"/>
<rect y="1281" width="1086" height="185" fill="#2F2F2F" fill-opacity="0.8"/>
<rect x="27" y="1215" width="20" height="20" fill="#F2EBD9"/>
<path d="M96.3164 1233.61V1238L77.8008 1237.94V1233.37L91.6289 1221.83V1215.97H82.1367V1221.18H77.6836V1211.57H96.3164V1224.82L84.7734 1233.61H96.3164ZM107.684 1238V1211.57H126.316V1238H107.684ZM121.863 1215.91L112.371 1215.97V1233.78H121.863V1215.91ZM156.316 1233.61V1238L137.801 1237.94V1233.37L151.629 1221.83V1215.97H142.137V1221.18H137.684V1211.57H156.316V1224.82L144.773 1233.61H156.316ZM179.695 1233.61V1220.77L172.254 1233.61H179.695ZM184.383 1243.98H179.695V1238L166.512 1237.94V1233.37L179.695 1211.57H184.383V1233.61H187.957V1238H184.383V1243.98Z" fill="#F2EBD9"/>
<path d="M83.8656 1345.32L82.6926 1382.92H84.2796L96.2856 1345.32H109.81L92.7666 1395H72.0666L73.9296 1363.19L64.6836 1395H43.9836L44.4666 1345.32H57.9906L56.7486 1382.92H58.3356L70.4106 1345.32H83.8656ZM154.867 1345.32L146.173 1395H133.684L136.858 1377.06H123.403L120.298 1395H107.809L116.572 1345.32H128.992L125.266 1366.3H138.721L142.447 1345.32H154.867ZM180.484 1395L180.898 1384.17H169.375L165.994 1395H152.815L170.548 1345.32H193.318L193.594 1395H180.484ZM177.655 1357.39L172.204 1374.92H181.243L182.002 1357.39H177.655ZM245.344 1356.08H228.37L221.539 1395H209.05L215.881 1356.08H198.838L200.77 1345.32H247.276L245.344 1356.08ZM281.951 1345.32L273.257 1395H260.768L269.531 1345.32H281.951ZM296.183 1380.85C296.183 1384.03 298.46 1385.62 303.014 1385.62C307.614 1385.62 309.914 1384.19 309.914 1381.34C309.914 1379.82 309.132 1378.58 307.568 1377.61C306.004 1376.65 304.095 1375.84 301.841 1375.2C299.633 1374.55 297.402 1373.82 295.148 1372.99C292.94 1372.11 291.054 1370.78 289.49 1368.99C287.926 1367.15 287.144 1364.87 287.144 1362.16C287.144 1350.61 294.573 1344.84 309.431 1344.84C314.859 1344.84 318.953 1345.87 321.713 1347.94C324.519 1349.97 325.922 1352.79 325.922 1356.43C325.922 1357.76 325.738 1359.05 325.37 1360.29C325.048 1361.49 324.703 1362.34 324.335 1362.85L323.783 1363.67H311.57C312.582 1362.62 313.088 1361.28 313.088 1359.67C313.088 1356.68 311.133 1355.19 307.223 1355.19C302.301 1355.19 299.84 1356.75 299.84 1359.88C299.84 1361.44 300.622 1362.68 302.186 1363.6C303.75 1364.52 305.636 1365.26 307.844 1365.81C310.098 1366.32 312.352 1366.96 314.606 1367.74C316.86 1368.53 318.769 1369.84 320.333 1371.68C321.897 1373.47 322.679 1375.82 322.679 1378.72C322.679 1384.56 320.931 1388.9 317.435 1391.76C313.939 1394.56 308.557 1395.97 301.289 1395.97C294.021 1395.97 289.053 1394.68 286.385 1392.1C284.407 1390.17 283.418 1387.5 283.418 1384.1C283.418 1382.81 283.556 1381.41 283.832 1379.89L284.039 1378.78H296.459L296.321 1379.61C296.229 1380.07 296.183 1380.49 296.183 1380.85ZM378.339 1376.78H359.985L356.811 1395H344.322L353.085 1345.32H387.723L385.791 1356.08H363.573L361.848 1366.02H380.202L378.339 1376.78ZM412.671 1344.84C423.757 1344.84 429.3 1349.37 429.3 1358.43C429.3 1359.95 429.139 1361.58 428.817 1363.33L426.402 1377.13C425.298 1383.52 422.906 1388.26 419.226 1391.34C415.546 1394.42 410.371 1395.97 403.701 1395.97C397.031 1395.97 392.385 1394.42 389.763 1391.34C387.969 1389.23 387.072 1386.31 387.072 1382.58C387.072 1380.92 387.256 1379.11 387.624 1377.13L390.039 1363.33C392.201 1351 399.745 1344.84 412.671 1344.84ZM405.564 1385.27C407.864 1385.27 409.704 1384.67 411.084 1383.48C412.464 1382.28 413.43 1380.07 413.982 1376.85L416.328 1363.6C416.466 1362.68 416.535 1361.86 416.535 1361.12C416.535 1357.39 414.649 1355.53 410.877 1355.53C406.139 1355.62 403.31 1358.31 402.39 1363.6L400.044 1376.85C399.86 1378 399.768 1379.2 399.768 1380.44C399.768 1383.66 401.7 1385.27 405.564 1385.27ZM460.423 1345.32C465.667 1345.32 469.393 1346.47 471.601 1348.77C473.257 1350.52 474.085 1352.73 474.085 1355.39C474.085 1356.31 473.993 1357.28 473.809 1358.29L472.843 1363.67C472.291 1366.66 471.325 1369.08 469.945 1370.92C468.611 1372.76 467.116 1374.07 465.46 1374.85L471.739 1395H457.801L452.005 1376.44H447.727L444.898 1395H431.65L440.413 1345.32H460.423ZM456.076 1356.08H450.901L449.107 1368.09H453.937C456.375 1368.09 458.123 1367.51 459.181 1366.36C460.239 1365.17 460.768 1363.6 460.768 1361.67C460.768 1357.95 459.204 1356.08 456.076 1356.08ZM498.667 1345.32L506.05 1369.12L521.92 1345.32H534.961L526.198 1395H513.709L518.677 1366.99L508.051 1383.68H499.012L494.32 1366.99L489.352 1395H476.932L485.695 1345.32H498.667ZM570.25 1391.41C566.616 1394.45 561.464 1395.97 554.794 1395.97C548.124 1395.97 543.501 1394.42 540.925 1391.34C539.085 1389.23 538.165 1386.31 538.165 1382.58C538.165 1380.92 538.349 1379.11 538.717 1377.13L544.306 1345.32H556.726L551.137 1376.85C550.953 1378 550.861 1379.2 550.861 1380.44C550.861 1383.66 552.793 1385.27 556.657 1385.27C558.957 1385.27 560.797 1384.67 562.177 1383.48C563.557 1382.28 564.523 1380.07 565.075 1376.85L570.664 1345.32H583.084L577.495 1377.13C576.345 1383.57 573.93 1388.33 570.25 1391.41ZM615.197 1395H583.733L592.496 1345.32H604.916L598.085 1384.24H617.129L615.197 1395ZM645.291 1395L645.705 1384.17H634.182L630.801 1395H617.622L635.355 1345.32H658.125L658.401 1395H645.291ZM642.462 1357.39L637.011 1374.92H646.05L646.809 1357.39H642.462ZM728.564 1345.32L719.87 1395H707.381L710.555 1377.06H697.1L693.995 1395H681.506L690.269 1345.32H702.689L698.963 1366.3H712.418L716.144 1345.32H728.564ZM754.181 1395L754.595 1384.17H743.072L739.691 1395H726.512L744.245 1345.32H767.015L767.291 1395H754.181ZM751.352 1357.39L745.901 1374.92H754.94L755.699 1357.39H751.352ZM791.277 1395.97C784.699 1395.97 780.145 1394.54 777.615 1391.69C775.867 1389.66 774.993 1386.83 774.993 1383.2C774.993 1381.64 775.154 1379.96 775.476 1378.16L778.305 1362.29C780.375 1350.66 787.85 1344.84 800.73 1344.84C806.066 1344.84 810.114 1345.99 812.874 1348.29C815.634 1350.54 817.014 1353.65 817.014 1357.6C817.014 1359.44 816.738 1361.28 816.186 1363.12C815.68 1364.92 815.174 1366.25 814.668 1367.12L813.909 1368.5H801.696C803.214 1366.76 803.973 1364.27 803.973 1361.05C803.973 1359.35 803.536 1358.02 802.662 1357.05C801.788 1356.04 800.5 1355.53 798.798 1355.53C794.152 1355.53 791.392 1358.11 790.518 1363.26L788.103 1377.2C787.873 1378.39 787.758 1379.57 787.758 1380.72C787.758 1383.75 789.575 1385.27 793.209 1385.27C797.579 1385.27 800.201 1382.81 801.075 1377.89H813.495L813.15 1379.89C811.31 1390.61 804.019 1395.97 791.277 1395.97ZM866.657 1345.32L850.856 1370.37L857.894 1395H844.784L839.609 1376.78H834.158L830.915 1395H818.495L827.258 1345.32H839.678L836.021 1366.02H840.437L853.547 1345.32H866.657ZM876.416 1380.85C876.416 1384.03 878.693 1385.62 883.247 1385.62C887.847 1385.62 890.147 1384.19 890.147 1381.34C890.147 1379.82 889.365 1378.58 887.801 1377.61C886.237 1376.65 884.328 1375.84 882.074 1375.2C879.866 1374.55 877.635 1373.82 875.381 1372.99C873.173 1372.11 871.287 1370.78 869.723 1368.99C868.159 1367.15 867.377 1364.87 867.377 1362.16C867.377 1350.61 874.806 1344.84 889.664 1344.84C895.092 1344.84 899.186 1345.87 901.946 1347.94C904.752 1349.97 906.155 1352.79 906.155 1356.43C906.155 1357.76 905.971 1359.05 905.603 1360.29C905.281 1361.49 904.936 1362.34 904.568 1362.85L904.016 1363.67H891.803C892.815 1362.62 893.321 1361.28 893.321 1359.67C893.321 1356.68 891.366 1355.19 887.456 1355.19C882.534 1355.19 880.073 1356.75 880.073 1359.88C880.073 1361.44 880.855 1362.68 882.419 1363.6C883.983 1364.52 885.869 1365.26 888.077 1365.81C890.331 1366.32 892.585 1366.96 894.839 1367.74C897.093 1368.53 899.002 1369.84 900.566 1371.68C902.13 1373.47 902.912 1375.82 902.912 1378.72C902.912 1384.56 901.164 1388.9 897.668 1391.76C894.172 1394.56 888.79 1395.97 881.522 1395.97C874.254 1395.97 869.286 1394.68 866.618 1392.1C864.64 1390.17 863.651 1387.5 863.651 1384.1C863.651 1382.81 863.789 1381.41 864.065 1379.89L864.272 1378.78H876.692L876.554 1379.61C876.462 1380.07 876.416 1380.49 876.416 1380.85ZM923.642 1360.91C923.642 1361.97 923.803 1362.94 924.125 1363.81H911.912C911.636 1362.71 911.498 1361.28 911.498 1359.53C911.498 1354.2 913.361 1349.99 917.087 1346.91C920.813 1343.78 926.149 1342.21 933.095 1342.21C938.569 1342.21 942.617 1343.25 945.239 1345.32C947.907 1347.34 949.241 1350.15 949.241 1353.74C949.241 1356.27 948.62 1358.61 947.378 1360.78C946.182 1362.94 944.687 1364.73 942.893 1366.16C941.099 1367.58 939.305 1368.89 937.511 1370.09C935.717 1371.29 934.13 1372.46 932.75 1373.61C931.37 1374.76 930.588 1375.86 930.404 1376.92L929.576 1381.41H917.984L918.743 1376.92C919.157 1374.67 920.008 1372.76 921.296 1371.19C922.584 1369.58 923.987 1368.37 925.505 1367.54C927.069 1366.66 928.61 1365.81 930.128 1364.98C933.624 1363.05 935.372 1360.27 935.372 1356.64C935.372 1354.15 933.762 1352.91 930.542 1352.91C928.334 1352.91 926.632 1353.65 925.436 1355.12C924.24 1356.54 923.642 1358.48 923.642 1360.91ZM914.879 1392.72C914.879 1389.78 915.523 1387.64 916.811 1386.31C918.145 1384.93 920.192 1384.24 922.952 1384.24C926.816 1384.24 928.748 1385.94 928.748 1389.34C928.748 1392.24 928.081 1394.36 926.747 1395.69C925.459 1397.02 923.412 1397.69 920.606 1397.69C916.788 1397.69 914.879 1396.04 914.879 1392.72Z" fill="#F2EBD9"/>
<path d="M144.6 635V506.3H282.12V529.7H173.4V565.34H268.08V588.74H173.4V635H144.6ZM366.904 635.9C343.984 635.9 326.224 630.44 313.624 619.52C301.024 608.48 294.724 592.16 294.724 570.56C294.724 549.08 301.024 532.88 313.624 521.96C326.224 510.92 344.404 505.4 368.164 505.4H400.564C424.324 505.4 442.504 510.92 455.104 521.96C467.704 532.88 474.004 549.08 474.004 570.56C474.004 592.16 467.704 608.48 455.104 619.52C442.504 630.44 424.624 635.9 401.464 635.9H366.904ZM370.144 528.8C356.824 528.8 346.444 531.2 339.004 536C331.564 540.8 326.884 548.42 324.964 558.86H443.764C441.844 548.42 437.164 540.8 429.724 536C422.284 531.2 411.904 528.8 398.584 528.8H370.144ZM370.684 612.5H398.584C412.024 612.5 422.404 610.1 429.724 605.3C437.164 600.5 441.844 592.82 443.764 582.26H324.964C326.884 592.82 331.564 600.5 339.004 605.3C346.444 610.1 357.004 612.5 370.684 612.5ZM491.944 635V506.3H599.764C613.084 506.3 623.404 509.66 630.724 516.38C638.164 523.1 641.884 533.3 641.884 546.98C641.884 558.62 639.184 567.74 633.784 574.34C628.384 580.94 620.704 585.08 610.744 586.76L640.444 635H607.684L580.144 587.66H520.744V635H491.944ZM596.344 529.7H520.744V564.08L596.344 564.26C601.624 564.26 605.644 562.94 608.404 560.3C611.284 557.66 612.724 553.22 612.724 546.98C612.724 540.62 611.284 536.18 608.404 533.66C605.644 531.02 601.624 529.7 596.344 529.7ZM663.506 635V506.3H687.626L747.206 548.06H748.106L807.686 506.3H831.806V635H803.006V542.3L762.146 569.66V635H733.346V569.66L692.306 542.3V635H663.506ZM909.061 635.9C895.981 635.9 885.661 634.22 878.101 630.86C870.541 627.38 865.141 622.16 861.901 615.2C858.661 608.24 857.041 599.48 857.041 588.92V506.3H885.841V588.92C885.841 598.04 887.941 604.28 892.141 607.64C896.461 610.88 903.721 612.5 913.921 612.5H948.661C958.861 612.5 966.061 610.88 970.261 607.64C974.581 604.28 976.741 598.04 976.741 588.92V506.3H1005.54V588.92C1005.54 599.48 1003.92 608.24 1000.68 615.2C997.441 622.16 992.041 627.38 984.481 630.86C976.921 634.22 966.601 635.9 953.521 635.9H909.061ZM1030.71 635V506.3H1059.51V611.6H1153.65V635H1030.71ZM1160.89 635L1218.85 506.3H1263.31L1321.27 635H1289.95L1277.71 607.82H1204.45L1192.21 635H1160.89ZM1214.89 584.42H1267.27L1242.25 528.8H1239.91L1214.89 584.42ZM144.6 851V722.3H173.4V775.04H264.12V722.3H292.92V851H264.12V798.44H173.4V851H144.6ZM307.296 851L365.256 722.3H409.716L467.676 851H436.356L424.116 823.82H350.856L338.616 851H307.296ZM361.296 800.42H413.676L388.656 744.8H386.316L361.296 800.42ZM544.824 851.9C521.064 851.9 502.884 846.44 490.284 835.52C477.684 824.48 471.384 808.16 471.384 786.56C471.384 765.08 477.684 748.82 490.284 737.78C502.884 726.74 521.064 721.28 544.824 721.4L609.624 721.76V744.8H546.804C531.204 744.8 519.624 748.1 512.064 754.7C504.504 761.3 500.724 771.92 500.724 786.56C500.724 801.2 504.504 811.88 512.064 818.6C519.624 825.2 531.204 828.5 546.804 828.5H611.424V851.9H544.824ZM629.405 851V722.66H658.205V775.04H701.045L743.345 722.66H779.165L726.245 786.74L779.165 851H743.345L700.865 798.44H658.205V851H629.405ZM789.444 851.9V828.5L892.944 828.68C898.224 828.68 902.244 827.48 905.004 825.08C907.884 822.56 909.324 818.54 909.324 813.02C909.324 807.5 907.884 803.54 905.004 801.14C902.244 798.62 898.224 797.36 892.944 797.36H828.504C815.184 797.36 804.804 794.18 797.364 787.82C790.044 781.34 786.384 771.86 786.384 759.38C786.384 746.9 790.044 737.48 797.364 731.12C804.804 724.64 815.184 721.4 828.504 721.4H929.664V744.8L831.564 744.62C826.404 744.62 822.384 745.82 819.504 748.22C816.624 750.5 815.184 754.22 815.184 759.38C815.184 764.54 816.624 768.32 819.504 770.72C822.384 773 826.404 774.14 831.564 774.14H896.004C909.324 774.14 919.644 777.44 926.964 784.04C934.404 790.52 938.124 800.18 938.124 813.02C938.124 825.74 934.404 835.4 926.964 842C919.644 848.6 909.324 851.9 896.004 851.9H789.444Z" fill="#1C1C1C"/>
<g clip-path="url(#clip0_1200_1185)">
<path d="M317.18 454.34L264.47 392.106L122.773 414.001C116.337 414.995 113.704 422.847 118.246 427.518L134.745 444.491C131.282 451.369 127.491 465.945 142.166 485.097C157.262 504.809 185.325 502.819 190.859 502.211L191.016 502.372L305.875 484.624C320.186 482.413 326.543 465.384 317.188 454.338L317.18 454.34Z" fill="black"/>
<path d="M636.98 312.977C633.646 278.497 640.458 250.821 653.523 247.682C653.802 247.603 654.094 247.55 654.378 247.506C663.614 246.078 673.673 257.113 681.489 275.154C686.404 286.462 690.428 300.519 692.819 315.993C694.362 325.979 695.074 335.608 695.051 344.478L646.832 357.953C643.246 348.107 640.31 336.696 638.41 324.401C638.146 322.695 637.91 320.993 637.694 319.307" fill="white"/>
<path d="M636.98 312.977C633.646 278.497 640.458 250.821 653.523 247.682C653.802 247.603 654.094 247.55 654.378 247.506C663.614 246.078 673.673 257.113 681.489 275.154C686.404 286.462 690.428 300.519 692.819 315.993C694.362 325.979 695.074 335.608 695.051 344.478L646.832 357.953C643.246 348.107 640.31 336.696 638.41 324.401C638.146 322.695 637.91 320.993 637.694 319.307" stroke="black" stroke-width="3" stroke-miterlimit="10"/>
<path d="M670.863 366.07C675.802 365.307 676.748 344.895 672.975 320.48C669.203 296.065 662.14 276.891 657.201 277.654C652.262 278.417 651.316 298.828 655.089 323.244C658.861 347.659 665.924 366.833 670.863 366.07Z" fill="black"/>
<path d="M244.467 418.451L225.753 421.342C218.499 422.463 210.162 419.72 204.502 415.919" stroke="white" stroke-width="2" stroke-miterlimit="10"/>
<path d="M340.648 424.328L321.335 427.904L344.795 451.167L345.227 453.958C347.276 467.218 338.185 479.632 324.916 481.682L284.559 487.918C271.3 489.967 258.885 480.876 256.837 467.616L237.22 340.661C235.169 327.393 244.26 314.979 257.52 312.93L297.877 306.694C311.145 304.644 323.56 313.735 325.61 327.003L340.648 424.328Z" fill="black"/>
<path d="M265.097 296.03C264.478 296.134 263.922 296.132 263.413 296.034C260.289 297.055 257.204 297.929 253.942 298.054C253.517 298.269 253.072 298.417 252.623 298.478C251.025 298.699 249.651 298.487 248.132 298.016C248.095 298.004 248.056 297.984 248.019 297.972C247.46 298.006 246.885 297.997 246.308 297.919C243.522 297.529 241.363 295.375 240.858 292.621C240.405 291.8 240.168 290.84 240.219 289.853C240.232 289.595 240.282 289.349 240.314 289.097C239.971 288.189 239.953 287.106 240.434 285.938C243.302 278.923 250.221 276.195 256.497 272.914C259.011 271.6 261.529 270.311 264.068 269.045C267.456 266.651 270.956 264.523 274.966 263.241L274.129 257.822C271.98 243.916 258.969 234.388 245.063 236.537L198.304 243.762C184.398 245.91 174.87 258.921 177.019 272.827L196.278 397.465C198.427 411.371 211.438 420.899 225.344 418.75L272.102 411.525C286.008 409.376 295.536 396.365 293.387 382.459L279.297 291.269C278.909 291.673 278.445 291.983 277.889 292.148C273.616 293.443 269.511 295.251 265.097 296.03Z" fill="black"/>
<path d="M573.769 318.836L570.359 314.467C571.512 315.93 572.645 317.387 573.769 318.836Z" stroke="#ED2424" stroke-width="1.02" stroke-miterlimit="10"/>
<path d="M601.072 355.823L597.473 350.743C598.721 352.482 599.919 354.184 601.072 355.823Z" stroke="#ED2424" stroke-width="1.02" stroke-miterlimit="10"/>
<path d="M471.127 377.958L475.047 377.352L475.898 382.858L474.433 383.084C474.239 382.796 474.052 382.499 473.856 382.203C472.996 380.862 472.08 379.443 471.127 377.958Z" stroke="#ED2424" stroke-width="1.02" stroke-miterlimit="10"/>
<path d="M395.137 118.242C404.255 123.017 410.848 133.484 415.575 145.068C415.575 145.068 415.591 145.11 415.619 145.176C415.649 145.26 415.696 145.394 415.766 145.559C416.872 148.264 417.857 151.041 418.753 153.814C418.767 153.847 418.779 153.871 418.785 153.906" stroke="black" stroke-width="3" stroke-miterlimit="10"/>
<path d="M599.73 222.966C600.252 225.999 598.116 228.844 595.057 229.202L569.498 232.154L569.168 232.187L548.039 234.632C548.039 234.632 527.529 238.286 524.441 245.08C521.363 251.88 522.838 259.768 522.838 259.768C522.838 259.768 522.828 259.761 522.818 259.754L522.81 259.755C521.123 258.031 519.432 256.334 517.717 254.658C515.613 252.575 513.497 250.529 511.378 248.518C505.893 243.332 508.529 234.13 515.935 232.676L546.798 226.602L567.187 224.845L567.448 224.823L587.811 223.07C587.811 223.07 598.405 223.409 599.241 220.086L599.73 222.966Z" fill="black"/>
<path d="M599.24 220.086L598.965 218.479" stroke="#ED2424" stroke-width="1.02" stroke-miterlimit="10"/>
<path d="M475.047 377.352L336.693 398.73L337.544 404.236L475.898 382.858L475.047 377.352Z" fill="black" stroke="black" stroke-width="2" stroke-miterlimit="10"/>
<path d="M458.22 338.738L330.473 358.477L331.325 363.991L459.072 344.252L458.22 338.738Z" fill="black" stroke="black" stroke-width="2" stroke-miterlimit="10"/>
<path d="M349.385 361.201L418.726 386.055L408.835 387.583L340.648 362.551L349.385 361.201Z" fill="black" stroke="black" stroke-width="2" stroke-miterlimit="10"/>
<path d="M397.557 353.757L466.898 378.612L456.998 380.141L388.82 355.107L397.557 353.757Z" fill="black" stroke="black" stroke-width="2" stroke-miterlimit="10"/>
<path d="M496.347 395.541L485.806 397.488C482.141 393.696 478.297 388.971 474.432 383.084L475.897 382.858L475.046 377.352L471.126 377.958C465.373 368.984 458.06 357.508 450.008 345.652L459.072 344.252L458.22 338.738L446.511 340.547C427.654 313.282 405.577 285.615 390.158 282.995C365.915 278.873 338.07 284.446 338.07 284.446L255.361 304.327C249.757 305.678 244.128 302.19 242.844 296.566L241.71 291.625C243.747 300.758 254.329 298.161 254.329 298.161L335.952 270.738L382.101 261.966C397.27 259.084 412.824 264.858 422.335 277.027C447.534 309.257 482.229 370.173 496.347 395.541Z" fill="black"/>
<path d="M637.684 319.308C637.638 318.953 637.593 318.607 637.547 318.253" stroke="black" stroke-width="3" stroke-miterlimit="10"/>
<path d="M666.839 340.024L667.69 345.53L601.072 355.823L597.473 350.743L666.839 340.024Z" fill="black" stroke="black" stroke-width="2" stroke-miterlimit="10"/>
<path d="M660.618 299.771L661.47 305.285L573.769 318.836L570.246 313.735L660.618 299.771Z" fill="black" stroke="black" stroke-width="2" stroke-miterlimit="10"/>
<path d="M593.908 345.771L643.42 308.074L652.157 306.724L596.693 349.637L593.908 345.771Z" fill="black" stroke="black" stroke-width="2" stroke-miterlimit="10"/>
<path d="M579.859 327.238L595.25 315.517L603.987 314.167L582.507 330.789L579.859 327.238Z" fill="black" stroke="black" stroke-width="2" stroke-miterlimit="10"/>
<path d="M561.671 209.245C554.957 208.439 537.429 206.331 518.351 203.898C521.168 191.015 526.333 182.366 533.25 180.715C533.529 180.636 533.812 180.584 534.097 180.54C543.41 179.101 553.562 190.332 561.419 208.64C561.503 208.839 561.586 209.038 561.671 209.245Z" fill="white" stroke="black" stroke-width="3" stroke-miterlimit="10"/>
<path d="M515.935 232.676L515.489 232.763C508.263 234.179 505.69 243.16 511.041 248.218C513.272 250.325 515.5 252.469 517.708 254.659C519.423 256.335 521.114 258.032 522.8 259.748L522.808 259.746L522.829 259.77C539.193 276.437 554.9 294.908 568.761 312.447C568.892 312.612 569.023 312.777 569.146 312.944C569.56 313.453 569.957 313.965 570.352 314.469L573.762 318.838C574.303 319.539 574.842 320.232 575.383 320.934C576.981 322.998 578.54 325.042 580.07 327.064C580.968 328.248 581.855 329.426 582.733 330.596C586.7 335.884 590.441 340.97 593.9 345.772C594.853 347.089 595.775 348.376 596.685 349.638C596.946 350.012 597.214 350.377 597.465 350.744L601.064 355.825C604.305 360.414 607.203 364.615 609.725 368.319C616.904 378.871 621.023 385.372 621.023 385.372C621.023 385.372 625.412 410.982 572.314 418.622C539.348 423.363 520.488 417.773 510.924 412.855C510.924 412.855 510.916 412.857 510.906 412.849C505.069 409.843 502.702 407.086 502.702 407.086C502.702 407.086 500.355 402.747 496.34 395.543C482.148 370.036 447.151 308.593 421.92 276.5C412.63 264.677 397.519 259.028 382.745 261.84L341.592 269.663C337.83 270.377 334.125 271.347 330.494 272.569L254.322 298.163C254.322 298.163 243.74 300.759 241.703 291.626C239.701 282.664 247.456 278.334 247.456 278.334C247.456 278.334 262.378 274.255 295.613 247.789C328.848 221.323 316.31 189.051 335.813 145.599C355.317 102.147 388.315 114.515 388.315 114.515L395.128 118.243C391.019 116.082 386.399 115.075 381.204 115.649C343.139 119.819 348.707 196.386 350.914 210.274C353.122 224.162 387.714 231.714 387.714 231.714C387.714 231.714 408.439 240.694 444.524 233.875C480.608 227.046 474.451 214.263 474.451 214.263L438.934 197.582C431.543 194.11 426.286 187.265 424.893 179.224C423.678 172.213 421.736 163.074 418.776 153.907C420.574 159.037 422.538 165.006 422.94 167.722C423.713 172.957 428.888 189.033 456.546 194.984C466.172 197.052 493.561 200.75 518.342 203.899C537.42 206.332 554.948 208.44 561.662 209.247L561.68 209.244C563.53 209.461 564.555 209.585 564.555 209.585C564.555 209.585 596.361 213.439 598.958 218.48L599.232 220.088C598.396 223.41 587.802 223.071 587.802 223.071L567.439 224.824L567.178 224.847L546.789 226.603L515.926 232.678L515.935 232.676Z" stroke="black" stroke-width="3" stroke-miterlimit="10"/>
<path d="M634.588 241.151C637.163 262.498 636.062 278.724 634.272 289.745C633.293 295.798 630.048 301.231 625.345 305.221L570.212 313.74L573.735 318.842L570.325 314.473C569.93 313.969 569.533 313.457 569.119 312.948C568.997 312.781 568.865 312.616 568.734 312.451C571.257 306.689 573.08 299.359 574.077 290.966C575.533 278.752 575.244 264.268 572.881 248.974C571.98 243.141 570.827 237.506 569.463 232.159L595.021 229.207C598.08 228.849 600.216 226.005 599.695 222.971L599.206 220.092L598.931 218.484C596.334 213.443 564.528 209.589 564.528 209.589C564.528 209.589 563.503 209.465 561.653 209.248C561.559 209.042 561.475 208.843 561.383 208.646C553.392 190.958 542.996 179.967 533.214 180.72C532.899 180.733 532.588 180.773 532.277 180.821L585.73 172.561C596.647 170.874 607.426 175.384 613.161 184.007C621.318 196.262 631.561 216.027 634.588 241.151Z" fill="black"/>
<path d="M572.537 249.028C574.901 264.321 575.327 278.784 574.112 290.96C573.254 299.623 571.564 307.127 569.155 312.942C569.032 312.776 568.901 312.611 568.769 312.446C554.909 294.907 539.201 276.436 522.838 259.768C522.838 259.768 521.363 251.88 524.441 245.08C527.528 238.286 548.039 234.632 548.039 234.632L569.168 232.187C570.499 237.548 571.635 243.186 572.537 249.028Z" fill="white" stroke="black" stroke-width="3" stroke-miterlimit="10"/>
<path d="M466.397 225.863L604.508 408.495L595.797 413.547L459.314 230.601L466.397 225.863Z" fill="white" stroke="black" stroke-width="3" stroke-miterlimit="10"/>
<path d="M204.679 417.056C210.151 416.211 209.086 379.925 202.301 336.009C195.515 292.094 185.578 257.179 180.106 258.024C174.633 258.87 175.698 295.156 182.484 339.071C189.27 382.987 199.207 417.902 204.679 417.056Z" fill="white" stroke="black" stroke-width="1.78" stroke-miterlimit="10"/>
<path d="M396.316 270.885L450.786 339.887L446.521 340.546C446.521 340.546 405.626 306.7 380.142 298.887C354.657 291.075 250.235 304.255 250.235 304.255L249.631 300.343L396.325 270.884L396.316 270.885Z" fill="black"/>
<path d="M754.907 308.12C756.385 320.374 756.65 330.937 756.263 339.792C755.943 347.084 754.299 354.254 751.455 360.974L751.385 361.144L695.262 344.419C695.268 344.285 695.264 344.145 695.27 344.012C695.379 335.244 694.716 325.757 693.198 315.935C690.807 300.461 686.636 286.426 681.481 275.155C673.523 257.736 663.216 246.925 653.514 247.683C653.208 247.695 652.896 247.735 652.586 247.783L706.047 239.522C716.955 237.836 727.744 242.344 733.47 250.969C741.635 263.222 751.879 282.988 754.905 308.111L754.907 308.12Z" fill="black"/>
<path d="M695.271 344.02C695.265 344.153 695.27 344.294 695.264 344.427L695.044 344.487L695.271 344.02Z" fill="black"/>
<path d="M196.825 378.846C199.295 378.465 198.238 358.363 194.466 333.947C190.693 309.532 185.633 290.048 183.163 290.43C180.693 290.812 181.75 310.914 185.522 335.329C189.295 359.744 194.355 379.228 196.825 378.846Z" fill="black"/>
<path d="M775.673 368.471L611.269 419.598C596.381 425.207 581.015 429.442 565.361 432.267L362.355 468.84L344.541 451.179L321.081 427.916L340.394 424.341L485.552 397.5L496.093 395.554C500.109 402.758 502.456 407.098 502.456 407.098C502.456 407.098 504.822 409.855 510.659 412.861C510.669 412.868 510.678 412.867 510.678 412.867C520.242 417.785 539.101 423.374 572.067 418.633C625.166 410.993 620.776 385.383 620.776 385.383C620.776 385.383 616.658 378.883 609.479 368.33L646.569 357.968L694.787 344.492L695.007 344.431L751.13 361.157L759.703 363.713L775.673 368.471Z" fill="black"/>
<path d="M418.785 153.906C418.785 153.906 424.924 186.276 430.501 191.14C436.087 196.002 474.459 214.261 474.459 214.261C474.459 214.261 478.289 224.546 457.001 230.818C435.714 237.089 410.466 236.173 410.466 236.173C410.466 236.173 374.376 230.688 365.619 224.198C356.864 217.718 351.25 217.015 350.416 206.364C349.58 195.704 349.915 160.763 352.335 151.585C354.754 142.407 359.983 118.99 377.293 116.377C394.602 113.755 412.669 128.598 418.786 153.914L418.785 153.906Z" fill="black"/>
<path d="M243.734 418.564C246.688 435.106 250.201 453.618 253.502 465.679C260.075 489.717 264.052 492.56 267.377 492.046L268.403 491.888" stroke="white" stroke-width="2.05" stroke-miterlimit="10"/>
<path d="M266.416 485.817C271.888 484.972 270.603 447.258 263.545 401.582C256.487 355.906 246.33 319.564 240.857 320.41C235.385 321.255 236.671 358.968 243.729 404.644C250.786 450.32 260.944 486.663 266.416 485.817Z" fill="white" stroke="black" stroke-width="1.62" stroke-miterlimit="10"/>
<path d="M445.883 197.408C445.883 197.408 444.657 198.038 442.543 198.974C438.059 200.954 429.57 204.304 420.375 205.884C411.661 207.38 402.453 206.88 396.997 206.338C392.392 205.876 388.087 203.595 385.381 199.84C384.258 198.285 383.347 196.441 383.024 194.347C381.913 187.161 388.341 186.512 388.341 186.512C388.341 186.512 403.079 189.007 416.605 186.679C430.122 184.352 442.104 178.205 442.104 178.205L443.628 185.953L445.884 197.416L445.883 197.408Z" fill="black" stroke="black" stroke-width="2" stroke-miterlimit="10"/>
<path d="M445.883 197.408L448.968 219.999C448.968 219.999 445.212 231.889 416.256 230.55C387.299 229.211 378.211 215.151 378.211 215.151C373.2 209.785 369.704 202.916 368.499 195.118C365.31 174.483 379.793 154.884 400.455 151.868C419.166 149.136 436.72 160.6 442.11 178.186C442.11 178.186 430.127 184.334 416.611 186.661C403.094 188.987 388.347 186.494 388.347 186.494C388.347 186.494 381.919 187.143 383.03 194.328C383.353 196.422 384.264 198.266 385.387 199.822C388.102 203.575 392.398 205.857 397.003 206.319C402.459 206.861 411.668 207.37 420.381 205.865C429.576 204.285 438.065 200.936 442.549 198.955C444.663 198.02 445.889 197.389 445.889 197.389L445.883 197.408Z" fill="#FF4545" stroke="black" stroke-width="2" stroke-linecap="round" stroke-linejoin="round"/>
<path d="M240.683 323.4C244.314 317.723 250.271 313.574 257.448 312.465L307.067 304.797" stroke="white" stroke-width="3" stroke-linejoin="round"/>
<path d="M361.959 468.901L344.145 451.241L320.685 427.978L339.998 424.402L343.712 423.714" stroke="white" stroke-width="3" stroke-linejoin="round"/>
<path d="M647.948 357.534L694.391 344.553L694.611 344.493L750.733 361.218L759.306 363.775L775.276 368.532" stroke="white" stroke-width="3" stroke-linejoin="round"/>
<path d="M260.581 448.062C263.051 447.681 261.994 427.579 258.222 403.163C254.449 378.748 249.389 359.265 246.919 359.646C244.449 360.028 245.506 380.13 249.278 404.545C253.051 428.961 258.111 448.444 260.581 448.062Z" fill="black"/>
<path d="M697.938 240.131C708.845 238.445 719.634 242.953 725.36 251.578C733.525 263.831 743.769 283.597 746.795 308.721C748.274 320.975 748.539 331.537 748.152 340.392C748.071 342.213 747.911 344.029 747.669 345.83" stroke="white" stroke-linecap="round" stroke-linejoin="round"/>
<path d="M687.186 241.792C698.093 240.107 708.882 244.615 714.608 253.24C722.773 265.493 733.017 285.258 736.043 310.382C737.522 322.636 737.787 333.199 737.4 342.054C737.319 343.875 737.159 345.69 736.917 347.492" stroke="white" stroke-linecap="round" stroke-linejoin="round"/>
<path d="M673.715 241.801C684.623 240.115 695.411 244.623 701.137 253.248C709.302 265.501 719.546 285.266 722.573 310.39C724.051 322.644 724.316 333.207 723.929 342.062C723.849 343.883 723.688 345.698 723.446 347.5" stroke="white" stroke-linecap="round" stroke-linejoin="round"/>
<path d="M575.232 172.896C586.14 171.21 596.929 175.718 602.654 184.343C610.82 196.596 621.064 216.361 624.09 241.485C625.569 253.739 625.834 264.302 625.447 273.157C625.366 274.978 625.206 276.793 624.964 278.595" stroke="white" stroke-linecap="round" stroke-linejoin="round"/>
<path d="M564.479 174.557C575.386 172.872 586.175 177.38 591.901 186.005C600.066 198.258 610.31 218.023 613.336 243.147C614.815 255.401 615.08 265.963 614.693 274.818C614.612 276.639 614.452 278.455 614.21 280.256" stroke="white" stroke-linecap="round" stroke-linejoin="round"/>
<path d="M551.01 174.565C561.917 172.88 572.706 177.388 578.432 186.013C586.597 198.266 596.841 218.031 599.867 243.155C601.346 255.409 601.611 265.972 601.224 274.827C601.144 276.647 600.983 278.463 600.741 280.265" stroke="white" stroke-linecap="round" stroke-linejoin="round"/>
<path d="M275.248 310.332C280.719 309.486 290.878 345.832 297.936 391.505C299.7 402.921 301.105 413.845 302.135 423.822" stroke="white" stroke-miterlimit="10"/>
<path d="M263.814 312.099C269.286 311.253 279.445 347.599 286.502 393.271C288.266 404.687 289.672 415.612 290.702 425.589" stroke="white" stroke-miterlimit="10"/>
<path d="M252.373 313.866C257.844 313.021 268.003 349.366 275.061 395.039C276.825 406.455 278.23 417.38 279.26 427.357" stroke="white" stroke-miterlimit="10"/>
<path d="M213.918 241.358C219.389 240.513 229.548 276.858 236.606 322.531C238.37 333.947 239.775 344.871 240.805 354.848" stroke="white" stroke-miterlimit="10"/>
<path d="M202.477 243.126C207.948 242.28 218.107 278.626 225.164 324.299C226.928 335.715 228.334 346.639 229.364 356.616" stroke="white" stroke-miterlimit="10"/>
<path d="M191.043 244.893C196.514 244.047 206.673 280.393 213.731 326.065C215.495 337.481 216.9 348.406 217.93 358.383" stroke="white" stroke-miterlimit="10"/>
<path d="M575.794 418.137L586.446 416.456L448.345 233.831L439.311 235.192L575.794 418.137Z" fill="white" stroke="black" stroke-width="3" stroke-miterlimit="10"/>
<path d="M544.526 283.552C546.032 285.816 547.795 287.864 549.45 290.008C550.696 291.623 551.756 293.171 553.178 294.557C556.971 290.671 557.428 271.82 554.007 249.677C552.87 242.319 551.429 235.449 549.839 229.44C544.563 230.352 539.292 231.29 533.993 232.109C534.298 238.255 534.996 245.169 536.12 252.441C537.937 264.201 540.517 274.733 543.257 282.416C543.748 282.684 544.186 283.058 544.517 283.545L544.526 283.552Z" fill="black"/>
<path d="M545.791 248.123L546.643 253.637L523.639 257.192L522.08 251.787L545.791 248.123Z" fill="black" stroke="black" stroke-width="2" stroke-miterlimit="10"/>
<path d="M397.495 206.296L407.987 187.817" stroke="white" stroke-width="5" stroke-miterlimit="10"/>
<path d="M406.008 207.045L417.687 186.486" stroke="white" stroke-width="3" stroke-miterlimit="10"/>
<path d="M407.046 207.767L404.167 207.691L404.887 206.354L407.046 207.767Z" fill="white"/>
<path d="M407.141 207.69L407.047 207.767L405.421 206.783L405.636 206.688L407.141 207.69Z" fill="white"/>
<path d="M416.531 185.8L420.134 185.084L418.691 187.336L416.494 185.902L416.531 185.8Z" fill="white"/>
<path d="M399.37 207.409C399.37 207.409 395.237 207.095 394.488 206.761L395.615 205.202L399.449 207.291L399.37 207.409Z" fill="white"/>
<path d="M406.081 186.735C406.081 186.735 410.171 186.606 411.315 186.473L409.803 189.018L405.822 187.172L406.081 186.735Z" fill="white"/>
<path d="M165.203 322.932L91.1856 237.692C90.7562 237.197 90.0074 237.145 89.513 237.574L88.4465 238.5C87.9521 238.929 87.8993 239.678 88.3287 240.173L162.346 325.412C162.775 325.907 163.524 325.96 164.018 325.53L165.085 324.604C165.579 324.175 165.632 323.426 165.203 322.932Z" fill="black"/>
<path d="M170.866 278.54L116.188 215.571C115.87 215.206 115.212 215.258 114.718 215.687L113.652 216.613C113.157 217.043 113.013 217.687 113.331 218.052L168.009 281.021C168.326 281.386 168.984 281.334 169.479 280.905L170.545 279.979C171.04 279.55 171.183 278.906 170.866 278.54Z" fill="black"/>
<path d="M155.46 289.961L58.3634 178.143C57.9793 177.701 57.2642 177.693 56.7661 178.125L56.6213 178.251C56.1232 178.683 56.0309 179.392 56.4149 179.835L153.511 291.653C153.895 292.095 154.61 292.103 155.108 291.671L155.253 291.545C155.751 291.113 155.844 290.403 155.46 289.961Z" fill="black"/>
<path d="M523.377 186.726L453.925 126.454C453.65 126.216 453.077 126.426 452.645 126.924L452.519 127.069C452.087 127.567 451.959 128.164 452.234 128.403L521.685 188.675C521.96 188.914 522.533 188.703 522.966 188.205L523.092 188.06C523.524 187.562 523.652 186.965 523.377 186.726Z" fill="black"/>
<path d="M502.473 184.297L417.427 110.491C417.119 110.224 416.491 110.444 416.023 110.982C415.556 111.52 415.427 112.173 415.735 112.44L500.782 186.246C501.09 186.513 501.718 186.294 502.185 185.755C502.652 185.217 502.781 184.564 502.473 184.297Z" fill="black"/>
<path d="M502.63 149.478L455.057 108.193C454.8 107.97 454.218 108.22 453.758 108.751L452.946 109.686C452.485 110.217 452.32 110.828 452.577 111.051L500.15 152.336C500.407 152.559 500.988 152.309 501.449 151.778L502.261 150.843C502.721 150.312 502.887 149.701 502.63 149.478Z" fill="black"/>
</g>
<defs>
<clipPath id="clip0_1200_1185">
<rect width="710.03" height="360.538" fill="white" transform="translate(26 165.427) rotate(-8.78384)"/>
</clipPath>
</defs>
</svg>
