<svg width="1728" height="1825" viewBox="0 0 1728 1825" fill="none" xmlns="http://www.w3.org/2000/svg">
<path d="M1729 698.89L352.617 -57H60V1065H1729V698.89Z" fill="#FF4545"/>
<path d="M60 1069.11L1435.56 1825H1728V703H60V1069.11Z" fill="#FF4545"/>
<rect width="13" height="1222" transform="matrix(0 -1 -1 0 1728 910)" fill="white"/>
<rect width="13" height="884" transform="matrix(0 -1 -1 0 1728 1005)" fill="white"/>
<rect x="241" y="1115" width="14" height="14" fill="#F2EBD9"/>
<path d="M280.453 1128.48V1132L265.641 1131.95V1128.3L276.703 1119.06V1114.38H269.109V1118.55H265.547V1110.86H280.453V1121.45L271.219 1128.48H280.453ZM289.547 1132V1110.86H304.453V1132H289.547ZM300.891 1114.33L293.297 1114.38V1128.62H300.891V1114.33ZM328.453 1128.48V1132L313.641 1131.95V1128.3L324.703 1119.06V1114.38H317.109V1118.55H313.547V1110.86H328.453V1121.45L319.219 1128.48H328.453ZM347.156 1128.48V1118.22L341.203 1128.48H347.156ZM350.906 1136.78H347.156V1132L336.609 1131.95V1128.3L347.156 1110.86H350.906V1128.48H353.766V1132H350.906V1136.78Z" fill="#F2EBD9"/>
<rect width="762" height="134" transform="translate(229 1173)" fill="#2F2F2F" fill-opacity="0.8"/>
<path d="M325.733 1220.44L324.917 1246.6H326.021L334.373 1220.44H343.781L331.925 1255H317.525L318.821 1232.87L312.389 1255H297.989L298.325 1220.44H307.733L306.869 1246.6H307.973L316.373 1220.44H325.733ZM375.125 1220.44L369.077 1255H360.389L362.597 1242.52H353.237L351.077 1255H342.389L348.485 1220.44H357.125L354.533 1235.03H363.893L366.485 1220.44H375.125ZM392.945 1255L393.233 1247.46H385.217L382.865 1255H373.697L386.033 1220.44H401.873L402.065 1255H392.945ZM390.977 1228.84L387.185 1241.03H393.473L394.001 1228.84H390.977ZM438.066 1227.93H426.258L421.506 1255H412.818L417.57 1227.93H405.714L407.058 1220.44H439.41L438.066 1227.93ZM463.531 1220.44L457.483 1255H448.795L454.891 1220.44H463.531ZM473.432 1245.16C473.432 1247.37 475.016 1248.47 478.184 1248.47C481.384 1248.47 482.984 1247.48 482.984 1245.5C482.984 1244.44 482.44 1243.58 481.352 1242.9C480.264 1242.23 478.936 1241.67 477.368 1241.22C475.832 1240.78 474.28 1240.26 472.712 1239.69C471.176 1239.08 469.864 1238.15 468.776 1236.9C467.688 1235.62 467.144 1234.04 467.144 1232.15C467.144 1224.12 472.312 1220.1 482.648 1220.1C486.424 1220.1 489.272 1220.82 491.192 1222.26C493.144 1223.67 494.12 1225.64 494.12 1228.17C494.12 1229.1 493.992 1229.99 493.736 1230.86C493.512 1231.69 493.272 1232.28 493.016 1232.63L492.632 1233.21H484.136C484.84 1232.47 485.192 1231.54 485.192 1230.42C485.192 1228.34 483.832 1227.3 481.112 1227.3C477.688 1227.3 475.976 1228.39 475.976 1230.57C475.976 1231.66 476.52 1232.52 477.608 1233.16C478.696 1233.8 480.008 1234.31 481.544 1234.7C483.112 1235.05 484.68 1235.5 486.248 1236.04C487.816 1236.58 489.144 1237.5 490.232 1238.78C491.32 1240.02 491.864 1241.66 491.864 1243.67C491.864 1247.74 490.648 1250.76 488.216 1252.74C485.784 1254.7 482.04 1255.67 476.984 1255.67C471.928 1255.67 468.472 1254.78 466.616 1252.98C465.24 1251.64 464.552 1249.78 464.552 1247.42C464.552 1246.52 464.648 1245.54 464.84 1244.49L464.984 1243.72H473.624L473.528 1244.3C473.464 1244.62 473.432 1244.9 473.432 1245.16ZM530.584 1242.33H517.816L515.608 1255H506.92L513.016 1220.44H537.112L535.768 1227.93H520.312L519.112 1234.84H531.88L530.584 1242.33ZM554.467 1220.1C562.179 1220.1 566.035 1223.26 566.035 1229.56C566.035 1230.62 565.923 1231.75 565.699 1232.97L564.019 1242.57C563.251 1247.02 561.587 1250.31 559.027 1252.46C556.467 1254.6 552.867 1255.67 548.227 1255.67C543.587 1255.67 540.355 1254.6 538.531 1252.46C537.283 1250.98 536.659 1248.95 536.659 1246.36C536.659 1245.21 536.787 1243.94 537.043 1242.57L538.723 1232.97C540.227 1224.39 545.475 1220.1 554.467 1220.1ZM549.523 1248.23C551.123 1248.23 552.403 1247.82 553.363 1246.98C554.323 1246.15 554.995 1244.62 555.379 1242.38L557.011 1233.16C557.107 1232.52 557.155 1231.94 557.155 1231.43C557.155 1228.84 555.843 1227.54 553.219 1227.54C549.923 1227.61 547.955 1229.48 547.315 1233.16L545.683 1242.38C545.555 1243.18 545.491 1244.01 545.491 1244.87C545.491 1247.11 546.835 1248.23 549.523 1248.23ZM587.686 1220.44C591.334 1220.44 593.926 1221.24 595.462 1222.84C596.614 1224.06 597.19 1225.59 597.19 1227.45C597.19 1228.09 597.126 1228.76 596.998 1229.46L596.326 1233.21C595.942 1235.29 595.27 1236.97 594.31 1238.25C593.382 1239.53 592.342 1240.44 591.19 1240.98L595.558 1255H585.862L581.83 1242.09H578.854L576.886 1255H567.67L573.766 1220.44H587.686ZM584.662 1227.93H581.062L579.814 1236.28H583.174C584.87 1236.28 586.086 1235.88 586.822 1235.08C587.558 1234.25 587.926 1233.16 587.926 1231.82C587.926 1229.22 586.838 1227.93 584.662 1227.93ZM614.29 1220.44L619.426 1237L630.466 1220.44H639.538L633.442 1255H624.754L628.21 1235.51L620.818 1247.13H614.53L611.266 1235.51L607.81 1255H599.17L605.266 1220.44H614.29ZM664.087 1252.5C661.559 1254.62 657.975 1255.67 653.335 1255.67C648.695 1255.67 645.479 1254.6 643.687 1252.46C642.407 1250.98 641.767 1248.95 641.767 1246.36C641.767 1245.21 641.895 1243.94 642.151 1242.57L646.039 1220.44H654.679L650.791 1242.38C650.663 1243.18 650.599 1244.01 650.599 1244.87C650.599 1247.11 651.943 1248.23 654.631 1248.23C656.231 1248.23 657.511 1247.82 658.471 1246.98C659.431 1246.15 660.103 1244.62 660.487 1242.38L664.375 1220.44H673.015L669.127 1242.57C668.327 1247.05 666.647 1250.36 664.087 1252.5ZM695.355 1255H673.467L679.563 1220.44H688.203L683.451 1247.51H696.699L695.355 1255ZM716.289 1255L716.577 1247.46H708.561L706.209 1255H697.041L709.377 1220.44H725.217L725.409 1255H716.289ZM714.321 1228.84L710.529 1241.03H716.817L717.345 1228.84H714.321ZM774.218 1220.44L768.17 1255H759.482L761.69 1242.52H752.33L750.17 1255H741.482L747.578 1220.44H756.218L753.626 1235.03H762.986L765.578 1220.44H774.218ZM792.039 1255L792.327 1247.46H784.311L781.959 1255H772.791L785.127 1220.44H800.967L801.159 1255H792.039ZM790.071 1228.84L786.279 1241.03H792.567L793.095 1228.84H790.071ZM817.845 1255.67C813.269 1255.67 810.101 1254.68 808.341 1252.7C807.125 1251.29 806.517 1249.32 806.517 1246.79C806.517 1245.7 806.629 1244.54 806.853 1243.29L808.821 1232.25C810.261 1224.15 815.461 1220.1 824.421 1220.1C828.133 1220.1 830.949 1220.9 832.869 1222.5C834.789 1224.07 835.749 1226.23 835.749 1228.98C835.749 1230.26 835.557 1231.54 835.173 1232.82C834.821 1234.07 834.469 1235 834.117 1235.61L833.589 1236.57H825.093C826.149 1235.35 826.677 1233.62 826.677 1231.38C826.677 1230.2 826.373 1229.27 825.765 1228.6C825.157 1227.9 824.261 1227.54 823.077 1227.54C819.845 1227.54 817.925 1229.34 817.317 1232.92L815.637 1242.62C815.477 1243.45 815.397 1244.26 815.397 1245.06C815.397 1247.18 816.661 1248.23 819.189 1248.23C822.229 1248.23 824.053 1246.52 824.661 1243.1H833.301L833.061 1244.49C831.781 1251.94 826.709 1255.67 817.845 1255.67ZM870.283 1220.44L859.291 1237.86L864.187 1255H855.067L851.467 1242.33H847.675L845.419 1255H836.779L842.875 1220.44H851.515L848.971 1234.84H852.043L861.163 1220.44H870.283ZM877.072 1245.16C877.072 1247.37 878.656 1248.47 881.824 1248.47C885.024 1248.47 886.624 1247.48 886.624 1245.5C886.624 1244.44 886.08 1243.58 884.992 1242.9C883.904 1242.23 882.576 1241.67 881.008 1241.22C879.472 1240.78 877.92 1240.26 876.352 1239.69C874.816 1239.08 873.504 1238.15 872.416 1236.9C871.328 1235.62 870.784 1234.04 870.784 1232.15C870.784 1224.12 875.952 1220.1 886.288 1220.1C890.064 1220.1 892.912 1220.82 894.832 1222.26C896.784 1223.67 897.76 1225.64 897.76 1228.17C897.76 1229.1 897.632 1229.99 897.376 1230.86C897.152 1231.69 896.912 1232.28 896.656 1232.63L896.272 1233.21H887.776C888.48 1232.47 888.832 1231.54 888.832 1230.42C888.832 1228.34 887.472 1227.3 884.752 1227.3C881.328 1227.3 879.616 1228.39 879.616 1230.57C879.616 1231.66 880.16 1232.52 881.248 1233.16C882.336 1233.8 883.648 1234.31 885.184 1234.7C886.752 1235.05 888.32 1235.5 889.888 1236.04C891.456 1236.58 892.784 1237.5 893.872 1238.78C894.96 1240.02 895.504 1241.66 895.504 1243.67C895.504 1247.74 894.288 1250.76 891.856 1252.74C889.424 1254.7 885.68 1255.67 880.624 1255.67C875.568 1255.67 872.112 1254.78 870.256 1252.98C868.88 1251.64 868.192 1249.78 868.192 1247.42C868.192 1246.52 868.288 1245.54 868.48 1244.49L868.624 1243.72H877.264L877.168 1244.3C877.104 1244.62 877.072 1244.9 877.072 1245.16ZM909.925 1231.29C909.925 1232.02 910.037 1232.7 910.261 1233.3H901.765C901.573 1232.54 901.477 1231.54 901.477 1230.33C901.477 1226.62 902.773 1223.69 905.365 1221.54C907.957 1219.37 911.669 1218.28 916.501 1218.28C920.309 1218.28 923.125 1219 924.949 1220.44C926.805 1221.85 927.733 1223.8 927.733 1226.3C927.733 1228.06 927.301 1229.69 926.437 1231.19C925.605 1232.7 924.565 1233.94 923.317 1234.94C922.069 1235.93 920.821 1236.84 919.573 1237.67C918.325 1238.5 917.221 1239.32 916.261 1240.12C915.301 1240.92 914.757 1241.69 914.629 1242.42L914.053 1245.54H905.989L906.517 1242.42C906.805 1240.86 907.397 1239.53 908.293 1238.44C909.189 1237.32 910.165 1236.47 911.221 1235.9C912.309 1235.29 913.381 1234.7 914.437 1234.12C916.869 1232.78 918.085 1230.84 918.085 1228.31C918.085 1226.58 916.965 1225.72 914.725 1225.72C913.189 1225.72 912.005 1226.23 911.173 1227.26C910.341 1228.25 909.925 1229.59 909.925 1231.29ZM903.829 1253.42C903.829 1251.37 904.277 1249.88 905.173 1248.95C906.101 1247.99 907.525 1247.51 909.445 1247.51C912.133 1247.51 913.477 1248.7 913.477 1251.06C913.477 1253.08 913.013 1254.55 912.085 1255.48C911.189 1256.41 909.765 1256.87 907.813 1256.87C905.157 1256.87 903.829 1255.72 903.829 1253.42Z" fill="#F2EBD9"/>
<path d="M245.96 591V499.48H343.752V516.12H266.44V541.464H333.768V558.104H266.44V591H245.96ZM404.043 591.64C387.744 591.64 375.115 587.757 366.155 579.992C357.195 572.141 352.715 560.536 352.715 545.176C352.715 529.901 357.195 518.381 366.155 510.616C375.115 502.765 388.043 498.84 404.939 498.84H427.979C444.875 498.84 457.803 502.765 466.763 510.616C475.723 518.381 480.203 529.901 480.203 545.176C480.203 560.536 475.723 572.141 466.763 579.992C457.803 587.757 445.088 591.64 428.619 591.64H404.043ZM406.347 515.48C396.875 515.48 389.494 517.187 384.203 520.6C378.912 524.013 375.584 529.432 374.219 536.856H458.699C457.334 529.432 454.006 524.013 448.715 520.6C443.424 517.187 436.043 515.48 426.571 515.48H406.347ZM406.731 575H426.571C436.128 575 443.51 573.293 448.715 569.88C454.006 566.467 457.334 561.005 458.699 553.496H374.219C375.584 561.005 378.912 566.467 384.203 569.88C389.494 573.293 397.003 575 406.731 575ZM492.96 591V499.48H569.632C579.104 499.48 586.443 501.869 591.648 506.648C596.939 511.427 599.584 518.68 599.584 528.408C599.584 536.685 597.664 543.171 593.824 547.864C589.984 552.557 584.523 555.501 577.44 556.696L598.56 591H575.264L555.68 557.336H513.44V591H492.96ZM567.2 516.12H513.44V540.568L567.2 540.696C570.955 540.696 573.813 539.757 575.776 537.88C577.824 536.003 578.848 532.845 578.848 528.408C578.848 523.885 577.824 520.728 575.776 518.936C573.813 517.059 570.955 516.12 567.2 516.12ZM614.96 591V499.48H632.112L674.48 529.176H675.12L717.488 499.48H734.64V591H714.16V525.08L685.104 544.536V591H664.624V544.536L635.44 525.08V591H614.96ZM789.577 591.64C780.276 591.64 772.937 590.445 767.561 588.056C762.185 585.581 758.345 581.869 756.041 576.92C753.737 571.971 752.585 565.741 752.585 558.232V499.48H773.065V558.232C773.065 564.717 774.558 569.155 777.545 571.544C780.617 573.848 785.78 575 793.033 575H817.737C824.99 575 830.11 573.848 833.097 571.544C836.169 569.155 837.705 564.717 837.705 558.232V499.48H858.185V558.232C858.185 565.741 857.033 571.971 854.729 576.92C852.425 581.869 848.585 585.581 843.209 588.056C837.833 590.445 830.494 591.64 821.193 591.64H789.577ZM876.085 591V499.48H896.565V574.36H963.509V591H876.085ZM968.655 591L1009.87 499.48H1041.49L1082.7 591H1060.43L1051.73 571.672H999.631L990.927 591H968.655ZM1007.06 555.032H1044.3L1026.51 515.48H1024.85L1007.06 555.032ZM245.96 745V653.48H266.44V690.984H330.952V653.48H351.432V745H330.952V707.624H266.44V745H245.96ZM361.655 745L402.871 653.48H434.487L475.703 745H453.431L444.727 725.672H392.631L383.927 745H361.655ZM400.055 709.032H437.303L419.511 669.48H417.847L400.055 709.032ZM530.564 745.64C513.668 745.64 500.74 741.757 491.78 733.992C482.82 726.141 478.34 714.536 478.34 699.176C478.34 683.901 482.82 672.339 491.78 664.488C500.74 656.637 513.668 652.755 530.564 652.84L576.644 653.096V669.48H531.972C520.879 669.48 512.644 671.827 507.268 676.52C501.892 681.213 499.204 688.765 499.204 699.176C499.204 709.587 501.892 717.181 507.268 721.96C512.644 726.653 520.879 729 531.972 729H577.924V745.64H530.564ZM590.71 745V653.736H611.19V690.984H641.654L671.734 653.736H697.206L659.574 699.304L697.206 745H671.734L641.526 707.624H611.19V745H590.71ZM704.516 745.64V729L778.116 729.128C781.871 729.128 784.729 728.275 786.692 726.568C788.74 724.776 789.764 721.917 789.764 717.992C789.764 714.067 788.74 711.251 786.692 709.544C784.729 707.752 781.871 706.856 778.116 706.856H732.292C722.82 706.856 715.439 704.595 710.148 700.072C704.943 695.464 702.34 688.723 702.34 679.848C702.34 670.973 704.943 664.275 710.148 659.752C715.439 655.144 722.82 652.84 732.292 652.84H804.228V669.48L734.468 669.352C730.799 669.352 727.94 670.205 725.892 671.912C723.844 673.533 722.82 676.179 722.82 679.848C722.82 683.517 723.844 686.205 725.892 687.912C727.94 689.533 730.799 690.344 734.468 690.344H780.292C789.764 690.344 797.103 692.691 802.308 697.384C807.599 701.992 810.244 708.861 810.244 717.992C810.244 727.037 807.599 733.907 802.308 738.6C797.103 743.293 789.764 745.64 780.292 745.64H704.516Z" fill="#1C1C1C"/>
<g clip-path="url(#clip0_1200_1185)">
<path d="M323.826 389.895L280.593 338.852L164.375 356.81C159.096 357.625 156.936 364.066 160.661 367.896L174.194 381.817C171.353 387.459 168.245 399.414 180.28 415.122C192.662 431.29 215.679 429.658 220.218 429.159L220.347 429.291L314.553 414.735C326.291 412.921 331.506 398.954 323.833 389.894L323.826 389.895Z" fill="black"/>
<path d="M586.122 273.951C583.387 245.671 588.975 222.971 599.69 220.396C599.919 220.332 600.158 220.288 600.392 220.251C607.967 219.081 616.217 228.131 622.628 242.928C626.659 252.203 629.96 263.733 631.921 276.425C633.186 284.615 633.77 292.513 633.751 299.787L594.202 310.84C591.261 302.764 588.853 293.405 587.295 283.32C587.079 281.921 586.885 280.526 586.707 279.142" fill="white"/>
<path d="M586.122 273.951C583.387 245.671 588.975 222.971 599.69 220.396C599.919 220.332 600.158 220.288 600.392 220.251C607.967 219.081 616.217 228.131 622.628 242.928C626.659 252.203 629.96 263.733 631.921 276.425C633.186 284.615 633.77 292.513 633.751 299.787L594.202 310.84C591.261 302.764 588.853 293.405 587.295 283.32C587.079 281.921 586.885 280.526 586.707 279.142" stroke="black" stroke-width="3" stroke-miterlimit="10"/>
<path d="M613.914 317.497C617.965 316.871 618.741 300.13 615.646 280.104C612.552 260.079 606.759 244.353 602.708 244.979C598.657 245.605 597.881 262.346 600.976 282.371C604.07 302.397 609.863 318.123 613.914 317.497Z" fill="black"/>
<path d="M264.185 360.459L248.836 362.831C242.886 363.75 236.048 361.5 231.406 358.383" stroke="white" stroke-width="2" stroke-miterlimit="10"/>
<path d="M343.073 365.28L327.232 368.213L346.475 387.293L346.828 389.582C348.509 400.458 341.052 410.64 330.17 412.322L297.069 417.436C286.194 419.117 276.012 411.66 274.331 400.785L258.242 296.657C256.56 285.774 264.016 275.592 274.892 273.912L307.992 268.797C318.875 267.116 329.057 274.572 330.739 285.455L343.073 365.28Z" fill="black"/>
<path d="M281.108 260.051C280.6 260.137 280.144 260.135 279.726 260.054C277.164 260.892 274.634 261.608 271.958 261.711C271.609 261.888 271.245 262.009 270.876 262.059C269.565 262.24 268.439 262.066 267.193 261.68C267.162 261.67 267.131 261.653 267.1 261.644C266.641 261.671 266.17 261.664 265.697 261.6C263.412 261.28 261.641 259.514 261.227 257.255C260.855 256.582 260.661 255.794 260.703 254.984C260.713 254.773 260.754 254.571 260.78 254.365C260.499 253.619 260.485 252.732 260.879 251.774C263.232 246.02 268.906 243.783 274.054 241.091C276.116 240.013 278.181 238.956 280.264 237.918C283.043 235.955 285.913 234.209 289.202 233.158L288.515 228.713C286.753 217.307 276.081 209.492 264.676 211.255L226.325 217.181C214.919 218.943 207.104 229.615 208.866 241.02L224.662 343.247C226.425 354.652 237.096 362.467 248.502 360.705L286.853 354.779C298.258 353.017 306.073 342.345 304.311 330.94L292.754 256.146C292.436 256.477 292.056 256.731 291.599 256.867C288.095 257.929 284.728 259.412 281.108 260.051Z" fill="black"/>
<path d="M534.277 278.756L531.48 275.173C532.426 276.373 533.355 277.568 534.277 278.756Z" stroke="#ED2424" stroke-width="1.02" stroke-miterlimit="10"/>
<path d="M556.671 309.093L553.719 304.926C554.742 306.352 555.725 307.749 556.671 309.093Z" stroke="#ED2424" stroke-width="1.02" stroke-miterlimit="10"/>
<path d="M450.09 327.247L453.305 326.751L454.003 331.266L452.802 331.452C452.642 331.216 452.489 330.972 452.328 330.729C451.623 329.63 450.871 328.465 450.09 327.247Z" stroke="#ED2424" stroke-width="1.02" stroke-miterlimit="10"/>
<path d="M387.764 114.23C395.242 118.147 400.65 126.732 404.527 136.233C404.527 136.233 404.54 136.267 404.563 136.322C404.588 136.39 404.626 136.5 404.684 136.636C405.591 138.854 406.399 141.132 407.133 143.406C407.145 143.433 407.155 143.453 407.16 143.481" stroke="black" stroke-width="3" stroke-miterlimit="10"/>
<path d="M555.569 200.124C555.997 202.612 554.244 204.945 551.736 205.239L530.773 207.66L530.502 207.688L513.172 209.692C513.172 209.692 496.349 212.69 493.817 218.262C491.293 223.84 492.502 230.309 492.502 230.309C492.502 230.309 492.494 230.303 492.486 230.297L492.479 230.298C491.095 228.884 489.708 227.492 488.302 226.118C486.576 224.409 484.841 222.731 483.103 221.082C478.604 216.828 480.766 209.281 486.84 208.089L512.154 203.106L528.877 201.666L529.091 201.647L545.792 200.209C545.792 200.209 554.482 200.487 555.168 197.762L555.569 200.124Z" fill="black"/>
<path d="M555.169 197.762L554.943 196.444" stroke="#ED2424" stroke-width="1.02" stroke-miterlimit="10"/>
<path d="M453.305 326.751L339.828 344.285L340.526 348.801L454.003 331.266L453.305 326.751Z" fill="black" stroke="black" stroke-width="2" stroke-miterlimit="10"/>
<path d="M439.504 295.079L334.727 311.27L335.425 315.792L440.203 299.602L439.504 295.079Z" fill="black" stroke="black" stroke-width="2" stroke-miterlimit="10"/>
<path d="M350.238 313.503L407.111 333.889L398.998 335.142L343.072 314.611L350.238 313.503Z" fill="black" stroke="black" stroke-width="2" stroke-miterlimit="10"/>
<path d="M389.748 307.398L446.621 327.784L438.501 329.038L382.582 308.506L389.748 307.398Z" fill="black" stroke="black" stroke-width="2" stroke-miterlimit="10"/>
<path d="M470.776 341.669L462.131 343.266C459.125 340.156 455.972 336.28 452.802 331.452L454.003 331.266L453.306 326.751L450.09 327.247C445.372 319.887 439.373 310.475 432.77 300.751L440.204 299.602L439.505 295.079L429.901 296.563C414.435 274.201 396.328 251.508 383.681 249.36C363.797 245.979 340.959 250.549 340.959 250.549L273.121 266.856C268.525 267.964 263.908 265.103 262.855 260.491L261.925 256.438C263.596 263.929 272.275 261.799 272.275 261.799L339.222 239.306L377.073 232.112C389.514 229.748 402.271 234.484 410.072 244.464C430.74 270.9 459.197 320.862 470.776 341.669Z" fill="black"/>
<path d="M586.7 279.143C586.662 278.852 586.625 278.569 586.588 278.278" stroke="black" stroke-width="3" stroke-miterlimit="10"/>
<path d="M610.613 296.134L611.31 300.65L556.671 309.093L553.719 304.926L610.613 296.134Z" fill="black" stroke="black" stroke-width="2" stroke-miterlimit="10"/>
<path d="M605.511 263.119L606.21 267.642L534.278 278.756L531.389 274.572L605.511 263.119Z" fill="black" stroke="black" stroke-width="2" stroke-miterlimit="10"/>
<path d="M550.795 300.848L591.405 269.929L598.571 268.822L553.08 304.019L550.795 300.848Z" fill="black" stroke="black" stroke-width="2" stroke-miterlimit="10"/>
<path d="M539.272 285.647L551.895 276.034L559.061 274.927L541.444 288.56L539.272 285.647Z" fill="black" stroke="black" stroke-width="2" stroke-miterlimit="10"/>
<path d="M524.353 188.87C518.846 188.209 504.47 186.48 488.823 184.484C491.133 173.918 495.369 166.824 501.043 165.47C501.271 165.406 501.504 165.362 501.737 165.326C509.376 164.146 517.702 173.358 524.146 188.374C524.215 188.537 524.284 188.7 524.353 188.87Z" fill="white" stroke="black" stroke-width="3" stroke-miterlimit="10"/>
<path d="M486.841 208.089L486.476 208.16C480.548 209.321 478.438 216.688 482.827 220.835C484.657 222.564 486.484 224.322 488.296 226.119C489.702 227.493 491.089 228.885 492.471 230.292L492.478 230.291L492.496 230.31C505.917 243.981 518.8 259.131 530.169 273.516C530.276 273.652 530.384 273.787 530.485 273.923C530.824 274.341 531.15 274.761 531.474 275.174L534.271 278.758C534.714 279.333 535.156 279.901 535.6 280.477C536.911 282.17 538.19 283.846 539.444 285.505C540.181 286.476 540.909 287.442 541.629 288.401C544.882 292.739 547.95 296.91 550.787 300.849C551.569 301.929 552.326 302.985 553.072 304.02C553.286 304.327 553.505 304.626 553.711 304.927L556.663 309.094C559.321 312.858 561.699 316.304 563.767 319.341C569.656 327.997 573.034 333.328 573.034 333.328C573.034 333.328 576.634 354.333 533.083 360.6C506.044 364.488 490.576 359.904 482.731 355.87C482.731 355.87 482.724 355.871 482.716 355.865C477.929 353.4 475.988 351.138 475.988 351.138C475.988 351.138 474.063 347.579 470.769 341.67C459.129 320.75 430.425 270.355 409.73 244.033C402.111 234.335 389.717 229.702 377.599 232.009L343.846 238.425C340.761 239.011 337.722 239.806 334.744 240.809L272.268 261.8C272.268 261.8 263.589 263.93 261.918 256.439C260.275 249.088 266.636 245.537 266.636 245.537C266.636 245.537 278.876 242.191 306.134 220.484C333.393 198.777 323.11 172.307 339.106 136.668C355.103 101.029 382.168 111.173 382.168 111.173L387.756 114.231C384.385 112.458 380.597 111.633 376.335 112.103C345.115 115.524 349.682 178.323 351.492 189.714C353.303 201.105 381.675 207.299 381.675 207.299C381.675 207.299 398.673 214.665 428.27 209.071C457.866 203.471 452.816 192.986 452.816 192.986L423.685 179.304C417.623 176.457 413.312 170.843 412.169 164.247C411.172 158.497 409.58 151.001 407.152 143.482C408.627 147.69 410.237 152.585 410.567 154.814C411.202 159.107 415.446 172.293 438.13 177.174C446.026 178.869 468.49 181.903 488.816 184.485C504.463 186.481 518.839 188.21 524.346 188.872L524.361 188.869C525.878 189.047 526.719 189.149 526.719 189.149C526.719 189.149 552.806 192.31 554.936 196.445L555.161 197.763C554.475 200.489 545.786 200.21 545.786 200.21L529.085 201.648L528.87 201.667L512.148 203.107L486.834 208.09L486.841 208.089Z" stroke="black" stroke-width="3" stroke-miterlimit="10"/>
<path d="M584.161 215.039C586.273 232.548 585.37 245.856 583.901 254.896C583.098 259.86 580.437 264.316 576.58 267.589L531.36 274.577L534.25 278.761L531.453 275.177C531.129 274.764 530.803 274.344 530.464 273.927C530.363 273.79 530.255 273.655 530.147 273.52C532.217 268.793 533.712 262.781 534.53 255.897C535.724 245.88 535.487 233.999 533.549 221.456C532.81 216.672 531.864 212.05 530.745 207.665L551.708 205.243C554.217 204.949 555.969 202.617 555.541 200.129L555.14 197.767L554.915 196.448C552.785 192.313 526.698 189.152 526.698 189.152C526.698 189.152 525.858 189.051 524.34 188.873C524.263 188.704 524.194 188.541 524.118 188.379C517.565 173.871 509.037 164.857 501.015 165.474C500.756 165.485 500.5 165.518 500.246 165.557L544.088 158.782C553.041 157.399 561.883 161.098 566.586 168.171C573.276 178.221 581.678 194.433 584.161 215.039Z" fill="black"/>
<path d="M533.266 221.5C535.205 234.043 535.554 245.906 534.558 255.893C533.854 262.998 532.468 269.152 530.492 273.922C530.391 273.786 530.283 273.65 530.176 273.515C518.807 259.13 505.924 243.98 492.503 230.309C492.503 230.309 491.293 223.839 493.818 218.262C496.35 212.69 513.172 209.692 513.172 209.692L530.503 207.688C531.594 212.084 532.526 216.709 533.266 221.5Z" fill="white" stroke="black" stroke-width="3" stroke-miterlimit="10"/>
<path d="M446.212 202.501L559.49 352.294L552.345 356.437L440.402 206.387L446.212 202.501Z" fill="white" stroke="black" stroke-width="3" stroke-miterlimit="10"/>
<path d="M231.551 359.316C236.039 358.622 235.166 328.861 229.6 292.842C224.035 256.822 215.884 228.185 211.396 228.879C206.908 229.572 207.781 259.334 213.347 295.353C218.913 331.372 227.063 360.009 231.551 359.316Z" fill="white" stroke="black" stroke-width="1.78" stroke-miterlimit="10"/>
<path d="M388.731 239.427L433.407 296.022L429.909 296.562C429.909 296.562 396.367 268.802 375.465 262.394C354.563 255.987 268.917 266.797 268.917 266.797L268.421 263.589L388.738 239.426L388.731 239.427Z" fill="black"/>
<path d="M682.845 269.967C684.057 280.018 684.275 288.681 683.957 295.944C683.695 301.925 682.346 307.806 680.014 313.317L679.956 313.457L633.924 299.739C633.929 299.629 633.926 299.514 633.931 299.405C634.021 292.213 633.477 284.433 632.232 276.377C630.271 263.685 626.85 252.174 622.621 242.929C616.094 228.642 607.64 219.775 599.683 220.397C599.432 220.407 599.176 220.439 598.922 220.479L642.771 213.703C651.717 212.321 660.566 216.018 665.262 223.092C671.959 233.142 680.361 249.353 682.843 269.96L682.845 269.967Z" fill="black"/>
<path d="M633.932 299.412C633.927 299.521 633.93 299.636 633.925 299.746L633.745 299.795L633.932 299.412Z" fill="black"/>
<path d="M225.109 327.976C227.135 327.663 226.269 311.176 223.174 291.15C220.08 271.125 215.929 255.145 213.904 255.458C211.878 255.771 212.745 272.258 215.839 292.284C218.933 312.309 223.084 328.289 225.109 327.976Z" fill="black"/>
<path d="M699.877 319.466L565.035 361.4C552.823 366.001 540.22 369.475 527.381 371.791L360.877 401.788L346.266 387.303L327.024 368.223L342.865 365.291L461.922 343.276L470.568 341.68C473.862 347.589 475.786 351.148 475.786 351.148C475.786 351.148 477.727 353.409 482.515 355.875C482.523 355.881 482.53 355.88 482.53 355.88C490.374 359.913 505.843 364.498 532.881 360.609C576.433 354.343 572.832 333.338 572.832 333.338C572.832 333.338 569.454 328.006 563.566 319.351L593.987 310.852L633.536 299.799L633.716 299.749L679.747 313.467L686.779 315.564L699.877 319.466Z" fill="black"/>
<path d="M407.158 143.481C407.158 143.481 412.194 170.031 416.768 174.02C421.349 178.008 452.822 192.985 452.822 192.985C452.822 192.985 455.964 201.42 438.503 206.564C421.043 211.707 400.335 210.957 400.335 210.957C400.335 210.957 370.734 206.457 363.552 201.135C356.371 195.82 351.767 195.243 351.083 186.507C350.397 177.764 350.672 149.106 352.656 141.578C354.641 134.05 358.93 114.843 373.127 112.7C387.324 110.55 402.142 122.724 407.159 143.488L407.158 143.481Z" fill="black"/>
<path d="M263.586 360.552C266.008 374.12 268.89 389.304 271.598 399.196C276.988 418.911 280.25 421.244 282.978 420.822L283.819 420.692" stroke="white" stroke-width="2.05" stroke-miterlimit="10"/>
<path d="M282.187 415.713C286.676 415.019 285.621 384.087 279.833 346.624C274.044 309.161 265.713 279.353 261.224 280.047C256.736 280.74 257.79 311.672 263.579 349.136C269.368 386.599 277.699 416.406 282.187 415.713Z" fill="white" stroke="black" stroke-width="1.62" stroke-miterlimit="10"/>
<path d="M429.386 179.162C429.386 179.162 428.381 179.679 426.647 180.446C422.969 182.07 416.006 184.818 408.465 186.113C401.318 187.341 393.766 186.93 389.29 186.486C385.513 186.107 381.982 184.236 379.763 181.157C378.842 179.881 378.095 178.368 377.829 176.651C376.919 170.758 382.191 170.225 382.191 170.225C382.191 170.225 394.279 172.272 405.372 170.362C416.459 168.454 426.287 163.411 426.287 163.411L427.536 169.766L429.387 179.169L429.386 179.162Z" fill="black" stroke="black" stroke-width="2" stroke-miterlimit="10"/>
<path d="M429.386 179.161L431.916 197.691C431.916 197.691 428.836 207.443 405.086 206.345C381.336 205.246 373.882 193.714 373.882 193.714C369.772 189.314 366.904 183.679 365.916 177.284C363.301 160.359 375.18 144.284 392.126 141.81C407.473 139.569 421.87 148.972 426.292 163.396C426.292 163.396 416.464 168.438 405.377 170.347C394.291 172.255 382.195 170.21 382.195 170.21C382.195 170.21 376.924 170.742 377.834 176.636C378.1 178.353 378.847 179.866 379.768 181.141C381.994 184.22 385.518 186.092 389.295 186.471C393.77 186.915 401.324 187.332 408.47 186.098C416.011 184.802 422.974 182.055 426.652 180.431C428.386 179.663 429.391 179.146 429.391 179.146L429.386 179.161Z" fill="#FF4545" stroke="black" stroke-width="2" stroke-linecap="round" stroke-linejoin="round"/>
<path d="M261.082 282.5C264.06 277.843 268.946 274.44 274.832 273.53L315.529 267.242" stroke="white" stroke-width="3" stroke-linejoin="round"/>
<path d="M360.552 401.839L345.941 387.354L326.699 368.273L342.54 365.341L345.585 364.776" stroke="white" stroke-width="3" stroke-linejoin="round"/>
<path d="M595.118 310.496L633.21 299.849L633.39 299.799L679.422 313.517L686.453 315.614L699.552 319.516" stroke="white" stroke-width="3" stroke-linejoin="round"/>
<path d="M277.402 384.747C279.428 384.434 278.562 367.946 275.467 347.921C272.373 327.895 268.222 311.915 266.197 312.228C264.171 312.541 265.038 329.029 268.132 349.054C271.226 369.08 275.377 385.06 277.402 384.747Z" fill="black"/>
<path d="M636.119 214.203C645.066 212.82 653.914 216.518 658.611 223.592C665.308 233.642 673.71 249.853 676.192 270.46C677.405 280.51 677.622 289.174 677.304 296.436C677.239 297.93 677.107 299.419 676.908 300.897" stroke="white" stroke-linecap="round" stroke-linejoin="round"/>
<path d="M627.299 215.565C636.245 214.183 645.094 217.881 649.79 224.955C656.487 235.004 664.889 251.216 667.372 271.822C668.585 281.873 668.802 290.536 668.484 297.799C668.418 299.293 668.287 300.782 668.088 302.259" stroke="white" stroke-linecap="round" stroke-linejoin="round"/>
<path d="M616.252 215.572C625.198 214.19 634.047 217.887 638.743 224.961C645.441 235.011 653.842 251.223 656.325 271.829C657.538 281.88 657.755 290.543 657.437 297.806C657.371 299.299 657.24 300.788 657.041 302.266" stroke="white" stroke-linecap="round" stroke-linejoin="round"/>
<path d="M535.477 159.057C544.423 157.674 553.272 161.372 557.968 168.446C564.665 178.496 573.067 194.707 575.549 215.313C576.762 225.364 576.979 234.028 576.662 241.29C576.596 242.784 576.464 244.273 576.266 245.751" stroke="white" stroke-linecap="round" stroke-linejoin="round"/>
<path d="M526.656 160.419C535.603 159.037 544.451 162.735 549.148 169.809C555.845 179.858 564.247 196.07 566.729 216.676C567.942 226.727 568.159 235.39 567.842 242.653C567.776 244.147 567.644 245.636 567.445 247.113" stroke="white" stroke-linecap="round" stroke-linejoin="round"/>
<path d="M515.609 160.426C524.556 159.044 533.404 162.741 538.101 169.815C544.798 179.865 553.2 196.077 555.682 216.683C556.895 226.734 557.112 235.397 556.795 242.66C556.729 244.153 556.597 245.642 556.399 247.12" stroke="white" stroke-linecap="round" stroke-linejoin="round"/>
<path d="M289.432 271.781C293.919 271.088 302.251 300.898 308.04 338.358C309.487 347.722 310.64 356.682 311.484 364.865" stroke="white" stroke-miterlimit="10"/>
<path d="M280.055 273.23C284.542 272.537 292.875 302.347 298.663 339.807C300.11 349.171 301.263 358.131 302.107 366.314" stroke="white" stroke-miterlimit="10"/>
<path d="M270.67 274.68C275.157 273.987 283.49 303.797 289.278 341.258C290.725 350.621 291.878 359.581 292.723 367.764" stroke="white" stroke-miterlimit="10"/>
<path d="M239.129 215.209C243.616 214.516 251.949 244.326 257.737 281.786C259.184 291.15 260.337 300.11 261.182 308.293" stroke="white" stroke-miterlimit="10"/>
<path d="M229.746 216.659C234.233 215.966 242.566 245.776 248.354 283.237C249.801 292.6 250.954 301.56 251.799 309.743" stroke="white" stroke-miterlimit="10"/>
<path d="M220.367 218.108C224.855 217.415 233.187 247.225 238.975 284.686C240.422 294.049 241.575 303.009 242.42 311.192" stroke="white" stroke-miterlimit="10"/>
<path d="M535.937 360.202L544.674 358.823L431.404 209.036L423.994 210.152L535.937 360.202Z" fill="white" stroke="black" stroke-width="3" stroke-miterlimit="10"/>
<path d="M510.292 249.817C511.527 251.673 512.973 253.353 514.33 255.111C515.352 256.437 516.221 257.706 517.388 258.842C520.499 255.656 520.874 240.194 518.068 222.032C517.135 215.997 515.953 210.363 514.649 205.434C510.322 206.182 505.998 206.952 501.652 207.623C501.903 212.664 502.476 218.335 503.397 224.299C504.888 233.945 507.004 242.583 509.251 248.885C509.654 249.105 510.012 249.411 510.284 249.811L510.292 249.817Z" fill="black"/>
<path d="M511.33 220.758L512.029 225.281L493.161 228.196L491.883 223.763L511.33 220.758Z" fill="black" stroke="black" stroke-width="2" stroke-miterlimit="10"/>
<path d="M389.698 186.452L398.303 171.295" stroke="white" stroke-width="5" stroke-miterlimit="10"/>
<path d="M396.681 187.066L406.26 170.203" stroke="white" stroke-width="3" stroke-miterlimit="10"/>
<path d="M397.532 187.658L395.171 187.596L395.762 186.499L397.532 187.658Z" fill="white"/>
<path d="M397.609 187.595L397.532 187.658L396.199 186.851L396.375 186.773L397.609 187.595Z" fill="white"/>
<path d="M405.312 169.641L408.267 169.054L407.084 170.901L405.282 169.725L405.312 169.641Z" fill="white"/>
<path d="M391.236 187.365C391.236 187.365 387.846 187.107 387.232 186.833L388.156 185.554L391.3 187.268L391.236 187.365Z" fill="white"/>
<path d="M396.74 170.408C396.74 170.408 400.095 170.302 401.034 170.193L399.793 172.28L396.528 170.766L396.74 170.408Z" fill="white"/>
<path d="M199.174 282.115L138.466 212.202C138.114 211.797 137.499 211.753 137.094 212.105L136.219 212.865C135.814 213.217 135.77 213.831 136.123 214.237L196.831 284.15C197.183 284.556 197.797 284.599 198.203 284.247L199.077 283.487C199.483 283.135 199.526 282.521 199.174 282.115Z" fill="black"/>
<path d="M203.82 245.706L158.973 194.059C158.713 193.759 158.173 193.802 157.768 194.154L156.893 194.914C156.487 195.266 156.37 195.794 156.63 196.094L201.477 247.741C201.737 248.04 202.276 247.998 202.682 247.645L203.557 246.886C203.962 246.534 204.08 246.005 203.82 245.706Z" fill="black"/>
<path d="M191.183 255.073L111.545 163.361C111.23 162.998 110.643 162.991 110.235 163.346L110.116 163.449C109.708 163.804 109.632 164.386 109.947 164.748L189.585 256.461C189.9 256.824 190.486 256.83 190.895 256.476L191.013 256.372C191.422 256.018 191.498 255.436 191.183 255.073Z" fill="black"/>
<path d="M492.946 170.401L435.982 120.966C435.757 120.77 435.287 120.943 434.932 121.351L434.829 121.47C434.474 121.879 434.37 122.369 434.595 122.564L491.559 171.999C491.784 172.195 492.254 172.022 492.609 171.613L492.712 171.494C493.067 171.086 493.171 170.596 492.946 170.401Z" fill="black"/>
<path d="M475.802 168.408L406.047 107.873C405.795 107.654 405.279 107.834 404.896 108.276C404.513 108.717 404.407 109.253 404.66 109.472L474.414 170.007C474.667 170.226 475.182 170.046 475.565 169.604C475.948 169.163 476.054 168.627 475.802 168.408Z" fill="black"/>
<path d="M475.93 139.85L436.911 105.989C436.7 105.806 436.223 106.01 435.845 106.446L435.18 107.213C434.802 107.648 434.666 108.15 434.877 108.332L473.896 142.194C474.106 142.377 474.583 142.172 474.961 141.737L475.627 140.97C476.005 140.534 476.14 140.033 475.93 139.85Z" fill="black"/>
</g>
<rect width="1" height="1" fill="#D9D9D9"/>
<defs>
<clipPath id="clip0_1200_1185">
<rect width="582.362" height="295.711" fill="white" transform="translate(85 152.931) rotate(-8.78384)"/>
</clipPath>
</defs>
</svg>
