<?xml version="1.0" encoding="UTF-8"?>
<svg xmlns="http://www.w3.org/2000/svg" viewBox="0 0 1298 839.75">
  <defs>
    <style>
      .cls-1, .cls-2, .cls-3 {
        fill: none;
        stroke-linecap: round;
        stroke-linejoin: round;
      }

      .cls-1, .cls-3 {
        stroke: #444;
      }

      .cls-2 {
        stroke: #303030;
      }

      .cls-2, .cls-3 {
        stroke-width: 2px;
      }

      .cls-4 {
        fill: #1c1c1c;
        stroke-width: 0px;
      }
    </style>
  </defs>
  <g id="BKGD">
    <rect class="cls-4" x="1" y="1" width="1296" height="837.75"/>
  </g>
  <g id="Layer_01" data-name="Layer 01">
    <path class="cls-1" d="M228.48,484.66c5.8-19.98,41.11-26.46,68.98-24.72,29.49,1.84,50.66,12.87,71.28,30.47,19.26,16.43,38.04,38.59,39.09,60.94,1.44,30.63-30.43,61.61-68.41,71.86-40.87,11.03-88.81-1.95-102.33-30.47-9.27-19.56-2.34-46.43-5.75-73.01-1.64-12.77-5.66-25.48-2.87-35.07Z"/>
    <path class="cls-1" d="M323.91,523.18c-23.72-7.5-50.3-22.84-58.06-13.8-5.82,6.79-1.06,27.29,9.77,43.69,19.35,29.29,58.07,45.46,75.88,25.29,8.84-10.01,12.53-28.96,6.9-39.09-5.4-9.71-19.36-11.31-34.49-16.1Z"/>
    <path class="cls-1" d="M441.19,240.34c-24.52,3.99-52.62,5.53-59.3,13.8-7.01,8.67,9.56,24.75,34.95,35.07,28.39,11.53,67.8,15.86,81.3-2.3,9.02-12.13,6.47-34.29-2.34-44.27-10.81-12.23-31.06-6.13-54.61-2.3Z"/>
    <path class="cls-1" d="M923.94,191.12c1.36,25.29,21.6,54.57,38.97,60.65,15.87,5.56,29.34-8.25,37.03-27.2,13.97-34.46,8.81-85.92-16.81-92.89-22.62-6.15-61.18,22.36-59.18,59.44Z"/>
    <path class="cls-1" d="M1000.15,515.86c13.75,7.76,34.33-2.26,39.98-18.15,9.88-27.8-25.92-73.57-56.73-79.8-12.82-2.59-24.77,1.66-29.32,5.86-7.44,6.88,4.98,13.61,14.77,33.86,9.14,18.9,15.98,49.59,31.29,58.23Z"/>
    <path class="cls-1" d="M681.89,756.46c4.04,20.01,24.33,38.67,42.98,36.8,19.3-1.94,36.85-25.86,35.49-46.56-.91-13.93-10.39-26.41-23.12-31.91-14.81-6.41-34.03-3.36-45.26,7.49-8.73,8.43-12.64,21.58-10.09,34.19Z"/>
    <path class="cls-1" d="M782.29,838.75c17.65-15.01,31.54-35.23,37.36-55.42,11.71-40.54-9.1-80.91-34.43-112.14-12.22-15.06-25.49-27.99-47.64-28.43-14.44-.29-32.64,4.72-48.14,12.4-47.62,23.58-69.58,72.29-62.57,116.1,4.17,26.09,18.61,50.45,38.07,67.49"/>
    <path class="cls-1" d="M237.31,838.75c-15.5-15.61-35.88-13.05-60.65-17.57-21.04-3.84-45.26-12.8-52.74-9.89-6.5,2.53-.36,14.05,12.59,27.46"/>
    <path class="cls-1" d="M53.96,838.75c-5-9.54-11.73-19.22-20.46-29.29-9.2-10.6-20.62-21.61-32.49-30.11"/>
    <path class="cls-1" d="M81.07,838.75c-7.21-8.42-15.12-17.53-23.29-27.4-18.07-21.79-37.42-47.25-56.77-62.68"/>
    <path class="cls-1" d="M450.76,838.75c2.95-10.19,3.9-19.41,2.1-26.6-6.57-26.35-49.91-25.48-93.21-27.66-83.98-4.22-167.79-19.92-213.55-70.13-17.6-19.31-29.57-43.72-49.63-67.3-26.18-30.77-66.14-60.14-95.47-62.25"/>
    <path class="cls-1" d="M1,136.05c7.07,2.54,13.92,3.3,20.29,1.94,25.68-5.49,43.4-45.57,44.64-81.97.64-18.78-3.11-36.58-13.35-55.02"/>
    <path class="cls-1" d="M1,421.06c9.07,19.65,23.04,38.78,34.08,41.11,21.32,4.5,31.7-53.69,33.06-109.15,2.07-84.12-16.6-161.95-4.4-208.17,12.54-47.49,57.68-61.6,51.08-91.23-3.08-13.82-17.41-31.02-35.94-52.62"/>
    <path class="cls-1" d="M134.12,1c12.68,13.82,33.31,30.24,55.07,41.01,28.38,14.05,58.69,18.48,63.94,3.3,3.66-10.59-4.86-30.72-15.82-41.76-.9-.91-1.82-1.76-2.76-2.55"/>
    <path class="cls-1" d="M114.77,1c9.33,8.62,18.39,17.12,26.79,25.37,32.61,32.02,55.45,60.19,87.66,58.95,36.12-1.39,84.02-39.78,80.62-63.22-1.27-8.74-9.68-15.4-22.45-21.1"/>
    <path class="cls-1" d="M1,559.28c24.65,6.58,50.79,6.3,70.34-2.63,48.04-21.97,56.22-96.25,55.68-159.21-.72-84.13-16.99-148.05,11.76-225.08,8.33-22.31,20.43-45.72,34.36-54.97,16.61-11.04,35.8-1.91,57.5,4.32,55.02,15.8,126.13,13.03,180.12-48.94,18.41-21.13,34.82-49.14,40.71-71.77"/>
    <path class="cls-1" d="M662.12,1c19.73,18.47,45.17,29.31,70.37,26.21,18.72-2.3,37.31-12.29,52.7-26.21"/>
    <path class="cls-1" d="M885.43,1c-20.27,16.38-23.5,45.79-26.85,73.4-2.46,20.32-4.98,39.68-13.42,55.93-21.04,40.51-78.89,61.77-106.27,96.2-49.71,62.51.97,168.44,45.86,256.17,50.21,98.11,93.17,173.47,131.8,209.29"/>
    <path class="cls-1" d="M1219.57,1c-.15,2.8-.21,5.59-.2,8.33.16,40.38,17.38,72.63,37.17,95.66,13,15.12,27.1,26.26,40.46,31.06"/>
    <path class="cls-1" d="M1193.02,1c-.73,9.03.42,17.85,3.8,27.16,8.31,22.92,30.06,48.84,28.36,73.75-3.42,50.12-101.8,96.16-95.5,121.03,5.12,20.21,79.37,26.45,114.41,51.06,43.35,30.44,26.71,88.98,52.37,145.87.18.39.36.79.54,1.18"/>
    <path class="cls-1" d="M1119.39,1c11.6,12.61,24.11,26.37,29.92,41.96,28.19,75.63-101.7,194.05-60.39,245.47,18,22.41,68.51,32.1,94.11,57.25,43.3,42.54,15.35,129.29,54.9,178.03,13.78,16.98,35.75,29.35,59.07,35.57"/>
    <path class="cls-1" d="M1297,779.35c-17.38-12.45-35.72-19.52-49.43-12.01-17.18,9.41-27.07,41.71-28.11,71.41"/>
    <path class="cls-1" d="M1297,748.68c-14.52-11.58-29.04-17.52-43.01-12.02-19.23,7.57-37.41,36.79-48.72,60.52-7.41,15.53-11.87,28.7-12.41,41.58"/>
    <path class="cls-1" d="M1297,584.8c-.89-.06-1.77-.1-2.65-.12-36.8-.56-54.88,45.09-86.02,81.72-51.26,60.31-137.9,96.19-109.19,145.02,5.06,8.61,13.7,17.61,22.58,27.31"/>
    <path class="cls-1" d="M714.91,110.92c-15.79,6.64-9.66,46.77,5.57,64.25,25.19,28.93,75.27-4.16,95.35-47.92,9.5-20.69,12.29-43.76,6.28-50.06-10.65-11.18-48.95,30.36-83.24,32.78-9.19.65-18.09-1.51-23.97.95Z"/>
    <path class="cls-1" d="M913.4,689.23c38.09,34.31,70.79,32.47,102.92,58.54,14.98,12.16,29.84,30.38,31.32,42.14,4.57,36.32-118.47,10.95-162.2,46.29-1.01.82-1.98,1.67-2.91,2.55"/>
    <path class="cls-1" d="M672.44,466.98c-8.88-8.1-20.43-14.46-33.21-14.65-14.07-.21-29.64,7.04-36.47,16.28-15.58,21.08,14.34,52.53,18.56,89.22,4.49,39.1-20.2,84.16-3.58,97.04,16.38,12.69,72.92-5.91,89.55-33.86,10.41-17.5,5.17-38.67.98-59.91-7.05-35.7-11.19-71.63-35.82-94.11Z"/>
    <path class="cls-1" d="M1012.82,780.5c3.37-14.37-30.77-33.57-59.83-40.12-18.08-4.08-34.2-3.25-44.12,7.96-7.15,8.08-11.09,21.55-7.95,31.31,10.87,33.82,106.66,23.17,111.9.85Z"/>
    <path class="cls-1" d="M527.07,1.06c4.65,12.37,11.33,23.62,19.09,32.76,25.04,29.49,61.33,37.01,86.02,61.56,32.29,32.12,44.75,93.37,40.89,150.21-4.74,69.81-34.1,132.97-101.68,158.81-42.83,16.38-101,17.77-101.38,31.84-.28,10.54,31.92,28.2,52.55,52.13,47.3,54.88,33.72,142.75,11.11,213.02-13.34,41.43-29.81,76.74-6.67,137.42"/>
    <path class="cls-1" d="M189.11,376.38c7.39-47.94,1.91-94.13,4.38-127.09,2.82-37.7,16.04-58.1,47.53-64.62,8.83-1.83,19.09-2.56,32.89-2.68,14.5-.12,32.92.44,53.95-6.77,29.23-10.01,63.53-35.02,89.14-43.7,16.92-5.73,30.04-4.34,47.42-3.35,23.64,1.34,55.14,1.92,79.22,14.19,24.61,12.54,41.46,37.28,49.88,64.11,11.71,37.31,7.08,78.65-6.64,107.39-11.29,23.66-28.75,38.79-62.39,54.29-52.04,23.97-142.79,48.84-120.25,88.1,9.3,16.21,37.92,34.87,56.44,51.03,12.8,11.17,20.78,21.14,25.41,32.67,12.19,30.33,1.24,71.42-22.08,99.84-17.85,21.76-42.93,36.09-66.76,46.58-20.22,8.9-39.54,15.03-59.7,17.38-23.41,2.74-47.95.39-69.99-8.24-39.51-15.46-71.01-51.07-90.55-80.23-25.27-37.72-30.54-64.66-23.04-102.97,7.5-38.31,27.77-88,35.16-135.94Z"/>
    <path class="cls-1" d="M872.12,193.56c-23.58,27.62-82.65,56.08-86.91,115.08-4.26,58.99,46.29,148.51,94.13,215.44,49.64,69.45,96.36,114.57,135.6,128.42,13.29,4.69,25.73,5.79,39.6,3.82,20.34-2.89,43.78-12.39,61.45-26.83,17.02-13.91,28.69-32.4,34.31-54.59,7.8-30.8,3.96-68.73-6.53-102.02-9.03-28.67-22.99-53.9-41.19-74.48-14.31-16.19-31.25-29.5-46.83-44.32-10.8-10.27-20.94-21.26-26.83-32.05-4.65-8.52-6.64-16.91-5.85-26.02,1.31-15.02,10.21-32,18.82-51.76,17.57-40.35,33.89-92.3,18.69-129.07-10.63-25.73-36.68-44.02-62.38-49.23-42.77-8.67-84.56,18.91-99.49,46.07-14.93,27.17-3.01,53.93-26.59,81.55Z"/>
    <path class="cls-1" d="M880.03,237.91c-6.78-7.57-27.54,10.14-38.6,32.05-15.58,30.86-11.89,70.08-1.61,76.19,9.33,5.55,24.09-16.18,49.24-29.03,17.53-8.96,40.1-13.6,40.21-19.14.12-6.45-30.28-14.11-40.34-31.84-5.78-10.19-4.85-23.7-8.89-28.22Z"/>
    <path class="cls-1" d="M473.38,202.06c-28.22-8.4-66.45,8.1-96.01,21.94-21.68,10.15-38.69,18.87-36.49,35.19,3.02,22.37,42.16,59.03,81.15,68.51,36.06,8.77,72-5.71,86.81-29.87,20.42-33.3.71-84.99-35.46-95.76Z"/>
  </g>
  <g id="Default">
    <path class="cls-3" d="M1249.24,1c.01,12.94,2.23,27.79,5.33,41.12,3.46,14.87,8.01,27.84,16.23,38.82,7.06,9.42,16.81,17.37,26.2,20.86"/>
    <path class="cls-3" d="M1,638.11c23.82-18.82,41.65,23.69,66.57,56.2,32.42,42.28,76.86,67.64,151.67,89.46,49.52,14.44,112.34,27.32,131.66,54.99"/>
    <path class="cls-3" d="M348.97,1c4.61,5.62,7.39,11.86,7.8,18.89,1.58,27.03-31.84,65.6-63.03,81.5-54.5,27.79-102.19-13.63-140.33.26-29.96,10.91-54.03,55.95-62.6,103.3-17.12,94.55,27.54,198.32-8.08,268.3-11.03,21.68-29.78,40.13-50.95,37.03-10.07-1.47-20.7-7.82-30.77-17.21"/>
    <path class="cls-3" d="M1,236.74c3.49,2.6,6.6,4.53,9.12,4.75,12.03,1.08,10.98-36.29-9.12-54.26"/>
    <path class="cls-3" d="M789.93,736.05c-8.5-28.1-25.81-73.66-65.43-63-26.53,7.14-63.05,39.48-68.67,70.72-7.46,41.49,39.59,81.05,76.33,78.47,28.63-2.01,51-29.62,58.61-48.99,5.4-13.76,3.35-23.36-.84-37.2Z"/>
    <path class="cls-2" d="M626.24,1c28.39,29.37,67.06,50.18,104.01,46.9,30.19-2.68,59.24-21.46,80.68-46.9"/>
    <path class="cls-2" d="M690.85,559.14c-14.47-49.71-50.77-85.16-58.43-78.24-5.77,5.21,4.69,34.41,8.43,66.06,4.29,36.25-.24,75.71,16.93,80.4,12.73,3.48,37.41-12.19,37.51-41.74.03-8.26-1.86-17.6-4.45-26.48Z"/>
    <path class="cls-3" d="M578.3,1c30.51,44.68,83.28,76.54,132.25,81.75,48.25,5.13,92.81-15.63,125.22-54.08,7.14-8.47,13.69-17.8,19.51-27.66"/>
    <path class="cls-3" d="M1,336.12c9.11,34.01,20.63,65.34,28.74,62.71,8.05-2.6,12.76-38.61,14.81-67.24,2.61-36.43.93-60.9-3.98-95.19-3.85-26.91-9.68-59.86-28.69-74.99-3.26-2.6-6.92-4.67-10.89-6.24"/>
    <path class="cls-2" d="M173.19,369.74c8.91-58.14,4.46-114.15,8.62-154.13,4.76-45.72,20.79-70.46,58.98-68.39,10.7.58,23.15,3.27,37.65,2.71,15.24-.59,32.76-4.79,53.23-10.95,47.22-14.21,110.14-38.88,164.87-46.94,29.62-4.36,56.83-3.86,82.58,10.92,26.31,15.1,51.08,45.11,62.07,77.64,15.3,45.25,3.95,95.38-8.82,127.24-10.52,26.23-22,40.08-56.91,56.14-54,24.85-164.06,55.01-136.74,89.68,11.28,14.32,45.99,29.4,63.61,51.14,12.18,15.03,16.19,33.24,17.71,51.64,3.99,48.44-9.3,98.27-30.83,132.74-16.48,26.38-37.79,43.77-62.51,56.49-20.97,10.79-44.4,18.22-68.85,18.01-28.39-.25-58.15-10.81-84.88-24.24-47.92-24.07-86.11-57.38-109.81-87.18-30.65-38.54-37.04-71.21-29.1-117.67,7.94-46.46,30.22-106.72,39.13-164.86Z"/>
    <path class="cls-3" d="M1,101.8c4.98,1.85,9.85,2.45,14.16,1.34,22.66-5.8,29.8-58.58,10.35-95.06-1.3-2.44-2.72-4.8-4.23-7.08"/>
    <path class="cls-2" d="M972.74,396.95c-36.2-6.48-60.88,11-60.26,27.67.49,13.36,17.23,26.21,31.32,43.5,28.62,35.13,46.31,88.58,85.9,71.85,19.71-8.33,44.85-34.05,42.88-60.43-2.76-36.96-58.73-75.23-99.84-82.59Z"/>
    <path class="cls-3" d="M1116.36,537.1c12.64-40.25-15.47-86.93-54.25-123.71-42.82-40.61-98.65-69.14-140.75-62.42-26.43,4.22-47.44,22.33-52.31,41.58-7.78,30.79,25.72,64.5,57.91,110.21,28.36,40.27,55.69,89.84,94.26,96.82,36.64,6.63,83.41-25.17,95.13-62.49Z"/>
    <path class="cls-3" d="M1297,187.23c-3.56-3.18-7.71-5.75-12.5-7.4-14.08-4.84-33.62-1.63-49.87,3.53-20.57,6.53-35.87,16.19-32.87,22.7,3.29,7.13,28.55,10.48,47.5,11.81,10.67.75,19.33.85,27.66,4.78,7.22,3.41,14.2,9.7,20.07,14.07"/>
    <path class="cls-3" d="M1297,155.16c-12.07-4.78-27.06-4.94-42.9-1.19-38.95,9.21-83.1,41.98-77.44,61.77,3.4,11.88,24.73,19.08,43.53,20.98,18.62,1.88,34.75-1.43,45.57,7.28,14.21,11.43,19.26,43.58,27.51,77.48,1.19,4.87,2.44,9.78,3.74,14.64"/>
    <path class="cls-3" d="M868.34,151.02c-8.83,21.5-35.01,35.77-54.15,52.11-51.12,43.61-52.08,101.93-41.77,153.8,7.72,38.81,21.75,74.01,44.28,123.54,36.27,79.76,94.55,196.68,183.37,226.07,81.75,27.05,189.37-20.06,210.11-114.59,14.35-65.41-12.91-153.53-55.49-203.94-37.67-44.61-87.34-59.7-104.43-79.14-17.38-19.76-1.07-44,19.91-83.89,20.8-39.56,46.2-94.5,33.79-137.83-12.55-43.8-63.73-75.73-119.01-68.07-46.4,6.42-95.68,40.73-107.43,79.84-5.38,17.91-2.89,36.83-9.16,52.11Z"/>
    <path class="cls-3" d="M187.33,489.97c4.88-28.54,18.34-53,24.92-83.35,12.32-56.77.57-134.1,15.55-169.05,15.97-37.27,62.33-26.35,110.86-38.29,58.7-14.44,120.59-62.33,167.7-38.59,40.91,20.62,70.68,95.25,42.7,144.38-35.9,63.03-166.86,84.06-164.61,136.05,1.5,34.7,62.36,83.19,61.63,128.53-.91,56.66-98,108.4-164.47,93.2-69.78-15.95-105.8-105.69-94.3-172.88Z"/>
    <path class="cls-3" d="M22.92,838.75c-5.98-9.72-13.78-18.07-21.92-24.33"/>
    <path class="cls-3" d="M1297,493.07c-18.95-17.68-35.94-46.14-43.59-73.19-11.81-41.77-1.36-80.17-35.76-103.04-29.9-19.87-93.67-28.01-113.25-50.01-34.02-38.22,65.43-118.29,75.13-183.98,4.53-30.64-10.47-58.15-20.26-81.85"/>
    <path class="cls-2" d="M275.05,242.64c-9.76-1.17-21.15,3.39-27.59,10.35-13.1,14.14-5.77,38.18-3.45,59.79,2.21,20.57-.12,38.93,3.45,56.91,3.78,19.03,14.17,37.65,31.04,51.74,16.74,13.97,39.86,23.49,57.49,16.67,18.88-7.3,31.45-33.34,31.62-55.76.18-23.9-13.74-43.69-25.87-63.24-12.71-20.48-23.45-40.7-40.24-59.21-7.41-8.16-15.99-15.99-26.44-17.25Z"/>
    <path class="cls-2" d="M808.73,838.75c20.77-23.64,34.91-53.53,36.96-81.67,4.34-59.68-45.72-111.49-81.96-159.51-30.52-40.44-51.24-78.19-62.57-137.48-4.28-22.43-7.22-47.95-16.74-54.64-16.68-11.73-53.57,34.35-90.77,42.3-8.61,1.84-17.24,1.64-22.91,3.53-25.17,8.36,7.83,57.79,22.03,100.46,30.18,90.71-24.61,150.88-6.17,218.55,6.45,23.67,21.87,48.27,42.15,68.45"/>
    <path class="cls-3" d="M301.49,305.3c-8.43-9.55-16.09-20.82-21.85-21.85-9.93-1.77-14.15,27.01-10.35,52.31,4.39,29.24,19.5,53.85,36.79,49.44,11.94-3.05,24.91-19.93,26.44-33.34,2.01-17.64-15.77-29.27-31.04-46.56Z"/>
    <path class="cls-3" d="M1297,688.18c-4.62,4.61-6.85,13.73-2.27,25.54.63,1.62,1.39,3.3,2.27,5.02"/>
    <path class="cls-2" d="M1033.79,137.89c-3.87-21.95-14.07-40.4-31.33-45.2-30.84-8.58-84.21,26.38-97.9,71.92-14.72,48.98,16.45,110.21,45.54,125.21,28.86,14.88,55.68-15.76,71.73-58.24,11.14-29.48,17.09-64.66,11.96-93.7Z"/>
    <path class="cls-3" d="M1297,814.42c-13.22-10.16-27.33-14.78-35.97-10.69-9.11,4.31-12.13,18.31-11.76,35.01"/>
    <path class="cls-3" d="M853.75,838.75c22.72-37.33,35-82.92,29.19-118.95-9.92-61.44-72.48-95.08-108.8-171.73-38.71-81.71-47.6-212.29-87.92-203.59-21.53,4.64-52.04,49.02-101.72,68.7-27.4,10.85-60.63,14.19-70.93,23.01-16.17,13.86,24.23,41.25,44.21,73.96,47.83,78.28-21.27,186.99-2.49,273.85,4.24,19.61,12.96,38.11,24.78,54.76"/>
    <path class="cls-3" d="M1160.34,838.75c-5.26-12.44-9.36-23.86-8.84-34.17,1.77-35.17,57.28-57.38,95.02-100.53,21.23-24.27,36.84-55.16,50.48-65.94"/>
    <path class="cls-3" d="M1,718.75c15.73,30.84,70.08,76.97,116.53,120"/>
  </g>
  <g id="Layer_4" data-name="Layer 4">
    <path class="cls-3" d="M292.67,838.75c-28.19-14.79-85.32-22.77-130.02-40.67-93.69-37.52-132.79-118.63-156.37-112.94-1.92.46-3.73,1.5-5.28,3.04"/>
  </g>
</svg>