<svg width="21" height="23" viewBox="0 0 21 23" fill="none" xmlns="http://www.w3.org/2000/svg">
<path d="M1.125 5.25016H3.20833M3.20833 5.25016H19.875M3.20833 5.25016V19.8335C3.20833 20.386 3.42783 20.9159 3.81853 21.3066C4.20923 21.6973 4.73913 21.9168 5.29167 21.9168H15.7083C16.2609 21.9168 16.7908 21.6973 17.1815 21.3066C17.5722 20.9159 17.7917 20.386 17.7917 19.8335V5.25016M6.33333 5.25016V3.16683C6.33333 2.6143 6.55283 2.08439 6.94353 1.69369C7.33423 1.30299 7.86413 1.0835 8.41667 1.0835H12.5833C13.1359 1.0835 13.6658 1.30299 14.0565 1.69369C14.4472 2.08439 14.6667 2.6143 14.6667 3.16683V5.25016M8.41667 10.4585V16.7085M12.5833 10.4585V16.7085" stroke="#1E1E1E" stroke-width="2" stroke-linecap="round" stroke-linejoin="round"/>
</svg>
