<svg width="27" height="26" viewBox="0 0 27 26" fill="none" xmlns="http://www.w3.org/2000/svg">
<g clip-path="url(#clip0_2814_5644)">
<path d="M14.6661 25.5035V16.4183H18.0309L18.6008 13.3149H14.6661V11.6741C14.6661 10.5722 14.8991 9.8296 15.4001 9.33765C15.899 8.84766 16.6511 8.61955 17.767 8.61955C18.098 8.61955 18.5161 8.62395 18.8628 8.64109V5.84504C18.2537 5.72022 17.1789 5.60763 16.5199 5.60763C12.6071 5.60763 10.862 7.38943 10.862 11.3852V13.3149H8.33794V16.4183H10.862V25.2808L10.4674 25.1829C7.79395 24.5196 5.37414 22.9596 3.65304 20.7896C1.87907 18.5526 0.941406 15.8578 0.941406 12.9972C0.941406 9.64359 2.24777 6.49021 4.62009 4.11905C6.9924 1.74691 10.1467 0.440918 13.5012 0.440918C16.8558 0.440918 20.01 1.74691 22.3819 4.11856C24.7537 6.49021 26.0605 9.6431 26.0605 12.9967C26.0605 19.3426 21.3149 24.7007 15.0225 25.4604L14.6661 25.5035ZM15.3026 17.0547V24.7805C21.0975 23.9038 25.424 18.9006 25.424 12.9967C25.424 9.81296 24.1837 6.81964 21.9319 4.56841C19.68 2.31719 16.6859 1.07727 13.5012 1.07727C10.3166 1.07727 7.32242 2.31719 5.07056 4.56841C2.81869 6.81964 1.57843 9.81296 1.57843 12.9967C1.57843 15.7125 2.4686 18.2706 4.15199 20.3941C5.70073 22.3472 7.84536 23.78 10.2255 24.4599V17.0547H7.70141V12.6785H10.2255V11.3852C10.2255 9.19472 10.7308 7.61411 11.7703 6.55286C12.8128 5.48868 14.3664 4.97128 16.5199 4.97128C17.3322 4.97128 18.6924 5.12743 19.2663 5.28701L19.4993 5.35162V9.33716L19.1478 9.29996C18.879 9.27157 18.3888 9.2559 17.767 9.2559C16.8283 9.2559 16.2182 9.42625 15.8461 9.79191C15.4755 10.1561 15.3026 10.7543 15.3026 11.6741V12.6785H19.3647L18.5607 17.0547H15.3021H15.3026Z" fill="#706DE2"/>
<path d="M14.3472 25.8621V16.0995H17.7649L18.2178 13.6324H14.3472V11.6734C14.3472 10.4805 14.6107 9.66593 15.1762 9.11034C15.7383 8.55818 16.5614 8.3007 17.7664 8.3007C17.9828 8.3007 18.2673 8.30266 18.544 8.31V6.1087C17.927 6.00493 17.0643 5.92465 16.5193 5.92465C12.7765 5.92465 11.1797 7.55763 11.1797 11.3841V13.6319H8.65563V16.099H11.1797V25.6864L10.3899 25.4906C7.64843 24.8107 5.16742 23.211 3.40323 20.9862C1.58421 18.6929 0.623047 15.9296 0.623047 12.9965C0.623047 9.55775 1.96271 6.32457 4.39476 3.89321C6.8273 1.46184 10.0609 0.122559 13.5006 0.122559C16.9404 0.122559 20.174 1.46184 22.6065 3.89321C25.0386 6.32457 26.3782 9.55775 26.3782 12.9965C26.3782 19.503 21.5122 24.9972 15.0601 25.7765L14.3472 25.8626V25.8621ZM25.7417 13.0092C25.7388 15.9321 24.686 18.7629 22.7769 20.9808C20.8688 23.1978 18.2311 24.6585 15.3495 25.0946L15.3309 25.0975C21.2864 24.2062 25.7353 19.0717 25.7417 13.0097V13.0092ZM3.98444 20.694C5.52583 22.5952 7.62199 24.0035 9.94926 24.7099C7.6264 24.0045 5.51898 22.5859 3.98444 20.694ZM15.6203 17.3727V24.4044C18.2085 23.9271 20.5672 22.5737 22.2946 20.5662C24.1073 18.4604 25.1052 15.772 25.1052 12.997C25.1052 9.89795 23.8982 6.98491 21.7061 4.79389C19.5144 2.60287 16.6001 1.39576 13.5006 1.39576C10.4012 1.39576 7.48685 2.60239 5.29521 4.79389C3.10357 6.98491 1.89612 9.89844 1.89612 12.997C1.89612 15.6403 2.76229 18.1299 4.40113 20.1966C5.81276 21.9769 7.75566 23.3265 9.90715 24.0299V17.3732H7.38305V12.3606H9.90715V11.3856C9.90715 9.10789 10.4423 7.45435 11.543 6.33045C12.6482 5.20214 14.2762 4.65341 16.5198 4.65341C17.3693 4.65341 18.7457 4.8125 19.3514 4.98088L19.8175 5.11011V9.69089L19.1144 9.61698C18.8563 9.59005 18.378 9.57488 17.7669 9.57488C16.9174 9.57488 16.3778 9.71634 16.0688 10.0193C15.7628 10.3199 15.6203 10.8461 15.6203 11.6749V12.3611H19.746L18.8255 17.3737H15.6203V17.3727ZM14.9838 11.6528C14.9838 11.6597 14.9838 11.6665 14.9838 11.6739C14.9838 11.667 14.9838 11.6597 14.9838 11.6528ZM14.9852 11.5158C14.9852 11.5158 14.9852 11.5202 14.9852 11.5226C14.9852 11.5202 14.9852 11.5182 14.9852 11.5158ZM14.9862 11.4844C14.9862 11.4844 14.9862 11.4874 14.9862 11.4888C14.9862 11.4874 14.9862 11.4859 14.9862 11.4844ZM14.9867 11.4565C14.9867 11.4565 14.9867 11.4604 14.9867 11.4629C14.9867 11.4609 14.9867 11.459 14.9867 11.4565ZM14.9891 11.3963C14.9891 11.3997 14.9891 11.4032 14.9891 11.4061C14.9891 11.4027 14.9891 11.3993 14.9891 11.3963ZM14.9911 11.3469C14.9906 11.3601 14.9896 11.3738 14.9891 11.3875C14.9896 11.3738 14.9901 11.3606 14.9911 11.3469ZM14.9921 11.3302C14.9921 11.3346 14.9921 11.3391 14.9916 11.3435C14.9916 11.3391 14.9916 11.3346 14.9921 11.3302ZM14.9931 11.3126C14.9931 11.3126 14.9931 11.3136 14.9931 11.3141C14.9931 11.3141 14.9931 11.3131 14.9931 11.3126ZM14.995 11.2769C14.995 11.2798 14.995 11.2832 14.9945 11.2862C14.9945 11.2832 14.9945 11.2798 14.995 11.2769ZM14.9955 11.272C14.9955 11.272 14.9955 11.273 14.9955 11.2735C14.9955 11.2735 14.9955 11.2725 14.9955 11.272ZM14.996 11.2671C14.996 11.2671 14.996 11.2671 14.996 11.2676C14.996 11.2676 14.996 11.2676 14.996 11.2671ZM18.0372 8.93852C18.542 8.94244 18.942 8.9581 19.1805 8.98307V8.97573L18.8461 8.95908C18.591 8.94636 18.2942 8.94097 18.0367 8.93901L18.0372 8.93852ZM16.5237 5.28927C16.5942 5.28927 16.6701 5.29074 16.7499 5.29319C16.6706 5.29074 16.5947 5.28927 16.5237 5.28927ZM13.2617 0.761361C10.0829 0.82206 7.10346 2.08694 4.84866 4.34012C7.10346 2.08694 10.0829 0.82157 13.2617 0.761361Z" fill="#706DE2"/>
<path d="M14.5425 25.6414V16.2958H17.9274L18.4523 13.4371H14.5421V11.6739C14.5421 10.5368 14.7869 9.76676 15.3123 9.25034C15.8352 8.73636 16.6147 8.49699 17.7654 8.49699C18.0337 8.49699 18.4068 8.49993 18.7388 8.51314V5.9457C18.1091 5.82675 17.1215 5.72983 16.5182 5.72983C14.5783 5.72983 13.2014 6.17283 12.3098 7.0833C11.4172 7.99476 10.9833 9.40208 10.9833 11.3851V13.4371H8.45923V16.2958H10.9833V25.4373L10.4364 25.3017C7.737 24.632 5.2932 23.0568 3.55595 20.8653C1.76533 18.6062 0.818359 15.8851 0.818359 12.9965C0.818359 9.61012 2.13746 6.42639 4.53279 4.03174C6.92811 1.63708 10.1127 0.318359 13.5001 0.318359C16.8874 0.318359 20.0721 1.63708 22.4674 4.03174C24.8627 6.42639 26.1818 9.61012 26.1818 12.9965C26.1818 19.4041 21.3902 24.8146 15.0361 25.5817L14.5425 25.6414ZM14.7874 16.5405V25.3653L15.0067 25.3389C21.2379 24.5865 25.937 19.2803 25.937 12.9965C25.937 9.67523 24.6434 6.55317 22.2946 4.20453C19.9457 1.85638 16.8223 0.563111 13.5001 0.563111C10.1779 0.563111 7.05493 1.85638 4.70563 4.20453C2.35682 6.55317 1.06318 9.67523 1.06318 12.9965C1.06318 15.8293 1.99154 18.4976 3.74789 20.7131C5.45184 22.862 7.84815 24.4073 10.4956 25.0638L10.7385 25.124V16.5405H8.21441V13.1923H10.7385V11.3851C10.7385 9.33502 11.1953 7.87189 12.135 6.91198C13.0756 5.95157 14.5092 5.48458 16.5187 5.48458C17.168 5.48458 18.2521 5.59472 18.8862 5.72444L18.9841 5.74451V8.76915L18.8558 8.76279C18.5003 8.74517 18.067 8.74125 17.7659 8.74125C16.6837 8.74125 15.9591 8.95859 15.4846 9.4246C15.0087 9.89208 14.7874 10.6068 14.7874 11.6734V13.1918H18.7466L18.1316 16.54H14.7874V16.5405ZM15.1791 24.9223V16.9316H18.4577L19.2167 12.8002H15.1791V11.6734C15.1791 10.7184 15.3632 10.0928 15.7593 9.70362C16.1559 9.31397 16.7934 9.13286 17.7663 9.13286C18.3921 9.13286 18.8871 9.14852 19.1599 9.1774L19.3763 9.20041V5.44395L19.2328 5.4043C18.6673 5.24717 17.3232 5.09298 16.5192 5.09298C14.4005 5.09298 12.8753 5.59815 11.8573 6.63786C10.8413 7.67511 10.3473 9.22782 10.3473 11.3846V12.8002H7.82318V16.9316H10.3473V24.6212L10.1911 24.5767C7.79086 23.8909 5.61147 22.4322 4.05538 20.4693C2.35437 18.3238 1.45538 15.7397 1.45538 12.996C1.45538 9.77949 2.70838 6.75583 4.98326 4.4811C7.25813 2.20638 10.2827 0.954714 13.5001 0.954714C16.7175 0.954714 19.7421 2.20736 22.0174 4.48159C24.2923 6.75583 25.5453 9.77998 25.5453 12.9965C25.5453 15.8772 24.5092 18.6674 22.628 20.853C20.7507 23.0343 18.1551 24.472 15.3196 24.9012L15.1791 24.9228V24.9223ZM15.4239 17.1769V24.6369C18.1463 24.191 20.6347 22.7944 22.4424 20.6935C24.2854 18.5519 25.3005 15.8185 25.3005 12.9965C25.3005 9.84557 24.0729 6.8831 21.8441 4.65487C19.6152 2.42665 16.6519 1.19947 13.5001 1.19947C10.3483 1.19947 7.38495 2.42665 5.1561 4.65487C2.92725 6.8831 1.69972 9.84557 1.69972 12.9965C1.69972 15.6844 2.58058 18.2161 4.24683 20.3175C5.73779 22.1982 7.81241 23.606 10.102 24.2957V17.1764H7.57787V12.5555H10.102V11.3846C10.102 9.16076 10.6185 7.55176 11.6821 6.46653C12.7485 5.37738 14.3305 4.84823 16.5187 4.84823C17.3394 4.84823 18.7163 5.00683 19.2979 5.16836L19.6206 5.25794V9.47208L19.1339 9.42068C18.869 9.39278 18.3833 9.37761 17.7659 9.37761C16.8615 9.37761 16.2783 9.5367 15.9307 9.87837C15.585 10.2181 15.4239 10.7884 15.4239 11.6734V12.5555H19.5105L18.6619 17.1764H15.4239V17.1769Z" fill="#706DE2"/>
<path d="M14.2242 26V15.9769H17.6624L18.0708 13.7546H14.2247V11.6732C14.2247 10.4455 14.4998 9.60309 15.0904 9.02303C15.6769 8.44688 16.527 8.17814 17.7663 8.17814C17.945 8.17814 18.181 8.17961 18.4214 8.1845V6.21278C17.8177 6.11831 17.0205 6.04684 16.5191 6.04684C14.6693 6.04684 13.3668 6.45851 12.5379 7.30487C11.7064 8.15416 11.302 9.48854 11.302 11.3839V13.7541H8.77789V15.9764H11.302V25.8429L10.3604 25.6094C7.59296 24.9231 5.08795 23.3082 3.30712 21.0619C1.47047 18.7465 0.5 15.9573 0.5 12.9963C0.5 9.52477 1.85239 6.26124 4.30746 3.80638C6.76301 1.35201 10.0275 0 13.5 0C16.9725 0 20.237 1.35201 22.6925 3.80638C25.1481 6.26124 26.5 9.52477 26.5 12.9963C26.5 19.5645 21.5879 25.1111 15.0742 25.8977L14.2242 26.0005V26ZM15.7421 17.4949V24.2559C18.2451 23.7605 20.5269 22.431 22.2014 20.4857C23.995 18.4019 24.9826 15.7424 24.9826 12.9963C24.9826 9.93008 23.7884 7.04739 21.6197 4.87937C19.4511 2.71136 16.5676 1.51746 13.5005 1.51746C10.4334 1.51746 7.55036 2.71136 5.38124 4.87937C3.21262 7.04739 2.01838 9.93008 2.01838 12.9963C2.01838 15.6117 2.87525 18.0749 4.49695 20.1201C5.85522 21.8333 7.72075 23.1491 9.78459 23.8594V17.4949H7.26049V12.2376H9.78459V11.3849C9.78459 9.07344 10.331 7.392 11.4553 6.24411C12.5849 5.09084 14.2413 4.53036 16.5196 4.53036C17.378 4.53036 18.77 4.69141 19.384 4.86224L19.9398 5.01644V9.82581L19.1015 9.7377C18.8474 9.71078 18.3734 9.69609 17.7667 9.69609C16.9623 9.69609 16.4349 9.83022 16.1548 10.1058C15.8777 10.378 15.7431 10.891 15.7431 11.6737V12.2376H19.8937L18.9282 17.4949H15.7435H15.7421Z" fill="#706DE2"/>
<path d="M13.5005 25.5524C12.4767 25.5524 11.4557 25.428 10.4667 25.1828L10.2253 25.1231V17.0546H7.70117V12.6784H10.2253V11.3852C10.2253 9.19463 10.7306 7.61402 11.7701 6.55278C12.8125 5.4886 14.3662 4.97119 16.5196 4.97119C17.3319 4.97119 18.6922 5.12734 19.266 5.28692L19.4991 5.35154V9.33708L19.1475 9.29987C18.8787 9.27148 18.3886 9.25582 17.7667 9.25582C16.8281 9.25582 16.218 9.42617 15.8459 9.79183C15.4752 10.156 15.3024 10.7542 15.3024 11.674V12.6784H19.3644L18.5605 17.0546H15.3019V25.4266L15.0218 25.4604C14.5165 25.5215 14.0048 25.5524 13.5005 25.5524ZM10.8618 24.6223C12.0996 24.9018 13.3825 24.9841 14.6654 24.8592V16.4182H18.0302L18.6001 13.3148H14.6654V11.674C14.6654 10.5721 14.8984 9.82952 15.3993 9.33757C15.8983 8.84757 16.6504 8.61946 17.7663 8.61946C18.0973 8.61946 18.5154 8.62387 18.8621 8.641V5.84496C18.253 5.72013 17.1782 5.60755 16.5191 5.60755C12.6064 5.60755 10.8613 7.38934 10.8613 11.3852V13.3148H8.33722V16.4182H10.8613V24.6223H10.8618Z" fill="#706DE2"/>
<path d="M13.5009 25.8704C12.4511 25.8704 11.4047 25.7426 10.3902 25.491L9.90692 25.3711V17.3721H7.38281V12.3596H9.90692V11.3845C9.90692 9.10683 10.4421 7.45328 11.5428 6.32938C12.6479 5.20108 14.276 4.65234 16.5195 4.65234C17.3691 4.65234 18.7455 4.81143 19.3511 4.97982L19.8173 5.10905V9.68983L19.1142 9.61591C18.8561 9.58899 18.3777 9.57382 17.7667 9.57382C16.9171 9.57382 16.3775 9.71528 16.0686 10.0183C15.7625 10.3188 15.6201 10.8451 15.6201 11.6738V12.3601H19.7458L18.8253 17.3726H15.6201V25.7088L15.0599 25.7764C14.5419 25.8391 14.0175 25.8704 13.5004 25.8704H13.5009ZM14.1276 25.2179C13.9416 25.2272 13.755 25.2326 13.569 25.234C13.7545 25.233 13.9411 25.2277 14.1276 25.2179ZM14.5213 25.1914C14.5213 25.1914 14.5208 25.1914 14.5203 25.1914C14.5203 25.1914 14.5208 25.1914 14.5213 25.1914ZM14.7162 25.1738L14.6966 25.1758C14.6393 25.1812 14.582 25.1865 14.5242 25.1914C14.5884 25.1861 14.652 25.1802 14.7162 25.1738ZM10.7692 24.9271C10.8495 24.9452 10.9298 24.9628 11.0106 24.9795C10.9376 24.9643 10.8647 24.9486 10.7922 24.932L10.7697 24.9271H10.7692ZM11.1805 24.3652C12.221 24.5766 13.284 24.6442 14.3475 24.5668V16.0999H17.7652L18.2181 13.6328H14.3475V11.6738C14.3475 10.4809 14.6109 9.66633 15.1764 9.11074C15.7386 8.55858 16.5616 8.30111 17.7667 8.30111C17.9831 8.30111 18.2676 8.30306 18.5442 8.31041V6.10911C17.9273 6.00533 17.0645 5.92505 16.5195 5.92505C12.7767 5.92505 11.18 7.55804 11.18 11.3845V13.6323H8.65588V16.0994H11.18V24.3647L11.1805 24.3652ZM17.7667 8.93746C16.8589 8.93746 16.2209 9.09312 15.7846 9.42452C16.2223 9.09214 16.8603 8.93746 17.774 8.93746H17.7667ZM18.0374 8.93844C18.5422 8.94236 18.9423 8.95802 19.1807 8.98298V5.59317V8.97564L18.8463 8.959C18.5912 8.94627 18.2945 8.94089 18.0369 8.93893L18.0374 8.93844ZM16.5235 5.28919C16.594 5.28919 16.6699 5.29066 16.7497 5.2931C16.6703 5.29066 16.5945 5.28919 16.5235 5.28919Z" fill="#706DE2"/>
<path d="M13.4999 25.6746C12.4662 25.6746 11.4355 25.5488 10.4367 25.3011L10.1022 25.2179V17.1763H7.57812V12.5554H10.1022V11.3845C10.1022 9.16067 10.6188 7.55167 11.6823 6.46644C12.7487 5.3773 14.3308 4.84814 16.519 4.84814C17.3396 4.84814 18.7165 5.00674 19.2982 5.16828L19.6209 5.25786V9.472L19.1342 9.4206C18.8693 9.3927 18.3835 9.37752 17.7661 9.37752C16.8617 9.37752 16.2786 9.53661 15.9309 9.87829C15.5852 10.218 15.4242 10.7883 15.4242 11.6733V12.5554H19.5107L18.6622 17.1763H15.4242V25.5346L15.0364 25.5816C14.5261 25.6432 14.0096 25.6746 13.5003 25.6746H13.4999ZM10.3471 25.027L10.4959 25.0637C11.4752 25.3065 12.4863 25.4298 13.5003 25.4298C13.9998 25.4298 14.5066 25.399 15.007 25.3388L15.1793 25.3182V16.932H18.458L19.2169 12.8006H15.1793V11.6738C15.1793 10.7188 15.3634 10.0932 15.7596 9.70402C16.1562 9.31438 16.7937 9.13326 17.7666 9.13326C18.3924 9.13326 18.8874 9.14893 19.1601 9.17781L19.3765 9.20081V5.44436L19.2331 5.40471C18.6675 5.24758 17.3235 5.09339 16.5195 5.09339C14.4008 5.09339 12.8756 5.59855 11.8576 6.63826C10.8416 7.67552 10.3475 9.22823 10.3475 11.385V12.8006H7.82344V16.932H10.3475V25.027H10.3471ZM13.4955 25.0382C12.5999 25.0382 11.7087 24.9389 10.8342 24.7416L10.7388 24.72V16.5404H8.21466V13.1922H10.7388V11.385C10.7388 9.33494 11.1956 7.87181 12.1352 6.91189C13.0758 5.95149 14.5095 5.4845 16.519 5.4845C17.1683 5.4845 18.2523 5.59464 18.8864 5.72436L18.9843 5.74443V8.76907L18.8561 8.76271C18.5006 8.74508 18.0672 8.74117 17.7661 8.74117C16.684 8.74117 15.9593 8.95851 15.4849 9.42452C15.0089 9.89199 14.7876 10.6067 14.7876 11.6733V13.1917H18.7469L18.1319 16.5399H14.7876V24.9697L14.677 24.9805C14.2833 25.0186 13.8891 25.0377 13.4959 25.0377L13.4955 25.0382ZM10.9836 24.5238C12.1509 24.7773 13.3471 24.8527 14.5423 24.7475V16.2957H17.9272L18.4521 13.437H14.5418V11.6738C14.5418 10.5367 14.7866 9.76668 15.312 9.25025C15.835 8.73627 16.6145 8.49691 17.7651 8.49691C18.0335 8.49691 18.4066 8.49984 18.7385 8.51306V5.94561C18.1089 5.82666 17.1213 5.72974 16.518 5.72974C14.5781 5.72974 13.2012 6.17274 12.3095 7.08322C11.4169 7.99468 10.9831 9.402 10.9831 11.385V13.437H8.45899V16.2957H10.9831V24.5238H10.9836Z" fill="#706DE2"/>
<path d="M13.5003 25.9926C12.4407 25.9926 11.384 25.8638 10.3602 25.6098L9.78387 25.4668V17.4948H7.25977V12.2375H9.78387V11.3848C9.78387 9.07336 10.3303 7.39191 11.4545 6.24403C12.5841 5.09076 14.2406 4.53027 16.5189 4.53027C17.3772 4.53027 18.7693 4.69132 19.3833 4.86216L19.9391 5.01635V9.82573L19.1008 9.73762C18.8467 9.71069 18.3727 9.69601 17.766 9.69601C16.9615 9.69601 16.4342 9.83013 16.1541 10.1057C15.877 10.3779 15.7423 10.8909 15.7423 11.6736V12.2375H19.893L18.9274 17.4948H15.7428V25.8168L15.0749 25.8976C14.5525 25.9608 14.0227 25.9926 13.5007 25.9926H13.5003ZM11.3023 24.2641C12.2634 24.4506 13.2437 24.5138 14.2244 24.4521V15.9768H17.6627L18.0711 13.7545H14.2249V11.6731C14.2249 10.4454 14.5001 9.603 15.0906 9.02294C15.6772 8.44679 16.5272 8.17806 17.7665 8.17806C17.9452 8.17806 18.1812 8.17952 18.4216 8.18442V6.2127C17.8179 6.11822 17.0208 6.04676 16.5194 6.04676C14.6695 6.04676 13.3671 6.45843 12.5381 7.30478C11.7067 8.15407 11.3023 9.48846 11.3023 11.3838V13.754H8.77815V15.9763H11.3023V24.2636V24.2641Z" fill="#706DE2"/>
</g>
<defs>
<clipPath id="clip0_2814_5644">
<rect width="26" height="26" fill="white" transform="translate(0.5)"/>
</clipPath>
</defs>
</svg>
