<svg width="25" height="24" viewBox="0 0 25 24" fill="none" xmlns="http://www.w3.org/2000/svg">
<g clip-path="url(#clip0_2814_5642)">
<path d="M7.55677 0C3.67904 0 0.5 3.17904 0.5 7.05677V16.9432C0.5 20.821 3.67904 24 7.55677 24H17.4432C21.321 24 24.5 20.821 24.5 16.9432V7.05677C24.5 3.17904 21.321 0 17.4432 0H7.55677ZM7.55677 2.20087H17.4432C20.1332 2.20087 22.3341 4.36681 22.3341 7.0917V16.9782C22.3341 19.6681 20.1681 21.869 17.4432 21.869H7.55677C4.86681 21.869 2.66594 19.7031 2.66594 16.9782V7.0917C2.66594 4.40175 4.83188 2.20087 7.55677 2.20087ZM18.9803 4.57642C18.4214 4.57642 18.0022 5.03057 18.0022 5.55458C18.0022 6.0786 18.4563 6.53275 18.9803 6.53275C19.5044 6.53275 19.9585 6.0786 19.9585 5.55458C19.9585 5.03057 19.5044 4.57642 18.9803 4.57642ZM12.5175 5.44978C8.91921 5.44978 5.94978 8.38428 5.94978 12.0175C5.94978 15.6507 8.88428 18.5852 12.5175 18.5852C16.1507 18.5852 19.0852 15.6507 19.0852 12.0175C19.0852 8.38428 16.1507 5.44978 12.5175 5.44978ZM12.5175 7.65065C14.9279 7.65065 16.8843 9.60699 16.8843 12.0175C16.8843 14.4279 14.9279 16.3843 12.5175 16.3843C10.107 16.3843 8.15065 14.4279 8.15065 12.0175C8.15065 9.60699 10.107 7.65065 12.5175 7.65065Z" fill="#706DE2"/>
</g>
<defs>
<clipPath id="clip0_2814_5642">
<rect width="24" height="24" fill="white" transform="translate(0.5)"/>
</clipPath>
</defs>
</svg>
