<svg width="25" height="24" viewBox="0 0 25 24" fill="none" xmlns="http://www.w3.org/2000/svg">
<path d="M3.22489 0C1.72271 0 0.5 1.22271 0.5 2.72489V21.2751C0.5 22.7773 1.72271 24 3.22489 24H21.7751C23.2773 24 24.5 22.7773 24.5 21.2751V2.72489C24.5 1.22271 23.2773 0 21.7751 0H3.22489ZM3.22489 2.20087H21.7751C22.0895 2.20087 22.3341 2.44541 22.3341 2.75983V21.31C22.3341 21.6245 22.0895 21.869 21.7751 21.869H3.22489C2.91048 21.869 2.66594 21.6245 2.66594 21.31V2.72489C2.66594 2.41048 2.91048 2.16594 3.22489 2.16594V2.20087ZM6.43886 4.0524C5.39083 4.0524 4.5524 4.89083 4.5524 5.93886C4.5524 6.9869 5.39083 7.82533 6.43886 7.82533C7.4869 7.82533 8.32533 6.9869 8.32533 5.93886C8.32533 4.89083 7.4869 4.0524 6.43886 4.0524ZM16.2904 9.04803C14.7183 9.04803 13.6703 9.9214 13.2511 10.7249H13.1812V9.29258H10.107V19.6681H13.321V14.5677C13.321 13.2052 13.6004 11.9127 15.2773 11.9127C16.9541 11.9127 16.9541 13.4498 16.9541 14.6376V19.7031H20.1681V14.0087C20.1681 11.214 19.5742 9.08297 16.3253 9.08297L16.2904 9.04803ZM4.86681 9.29258V19.6681H8.11572V9.29258H4.86681Z" fill="#706DE2"/>
</svg>
