<svg width="25" height="24" viewBox="0 0 25 24" fill="none" xmlns="http://www.w3.org/2000/svg">
<g clip-path="url(#clip0_2814_5660)">
<path d="M5.53057 0C2.77074 0 0.5 2.27074 0.5 5.03057V18.9694C0.5 21.7293 2.77074 24 5.53057 24H19.4694C22.2293 24 24.5 21.7293 24.5 18.9694V5.03057C24.5 2.27074 22.2293 0 19.4694 0H5.53057ZM5.53057 2.20087H19.4694C21.0415 2.20087 22.3341 3.45852 22.3341 5.0655V19.0044C22.3341 20.5764 21.0764 21.869 19.4694 21.869H5.53057C3.95852 21.869 2.66594 20.6114 2.66594 19.0044V5.03057C2.66594 3.45852 3.92358 2.16594 5.53057 2.16594V2.20087ZM13.6004 4.36681V15.2664C13.6004 16.4891 12.6223 17.4323 11.4345 17.4323C10.2467 17.4323 9.26856 16.4541 9.26856 15.2664C9.26856 14.0786 10.2467 13.1004 11.4345 13.1004V10.9345C9.02402 10.9345 7.06769 12.8908 7.06769 15.3013C7.06769 17.7118 9.02402 19.6681 11.4345 19.6681C13.845 19.6681 15.8013 17.7118 15.8013 15.3013V8.62882C16.7096 9.32751 17.7926 9.81659 18.9803 9.85153V7.68559C17.1987 7.68559 15.8013 6.21834 15.8013 4.40175H13.6354L13.6004 4.36681Z" fill="#706DE2"/>
</g>
<defs>
<clipPath id="clip0_2814_5660">
<rect width="24" height="24" fill="white" transform="translate(0.5)"/>
</clipPath>
</defs>
</svg>
